<mxfile host="app.diagrams.net" modified="2024-01-17T20:11:39.660Z" agent="Mozilla/5.0 (X11; Ubuntu; Linux x86_64; rv:121.0) Gecko/20100101 Firefox/121.0" etag="L5LvbFmmR46C9WuK6F8F" version="22.1.21" type="device">
  <diagram name="Page-1" id="4UURUv6fNhPE5xnEzwsr">
    <mxGraphModel dx="1199" dy="1123" grid="1" gridSize="10" guides="1" tooltips="1" connect="1" arrows="1" fold="1" page="1" pageScale="1" pageWidth="850" pageHeight="1100" math="0" shadow="0">
      <root>
        <mxCell id="0" />
        <mxCell id="1" parent="0" />
        <mxCell id="ZFCfkoxtxYTRv5SqpdLA-7" value="" style="shape=image;verticalLabelPosition=bottom;labelBackgroundColor=default;verticalAlign=top;aspect=fixed;imageAspect=0;image=data:image/jpeg,/9j/4AAQSkZJRgABAQAAAAAAAAD/4gIoSUNDX1BST0ZJTEUAAQEAAAIYAAAAAAIQAABtbnRyUkdCIFhZWiAAAAAAAAAAAAAAAABhY3NwAAAAAAAAAAAAAAAAAAAAAAAAAAAAAAAAAAAAAQAA9tYAAQAAAADTLQAAAAAAAAAAAAAAAAAAAAAAAAAAAAAAAAAAAAAAAAAAAAAAAAAAAAAAAAAAAAAAAAAAAAlkZXNjAAAA8AAAAHRyWFlaAAABZAAAABRnWFlaAAABeAAAABRiWFlaAAABjAAAABRyVFJDAAABoAAAAChnVFJDAAABoAAAAChiVFJDAAABoAAAACh3dHB0AAAByAAAABRjcHJ0AAAB3AAAADxtbHVjAAAAAAAAAAEAAAAMZW5VUwAAAFgAAAAcAHMAUgBHAEIAAAAAAAAAAAAAAAAAAAAAAAAAAAAAAAAAAAAAAAAAAAAAAAAAAAAAAAAAAAAAAAAAAAAAAAAAAAAAAAAAAAAAAAAAAAAAAAAAAAAAAAAAAFhZWiAAAAAAAABvogAAOPUAAAOQWFlaIAAAAAAAAGKZAAC3hQAAGNpYWVogAAAAAAAAJKAAAA+EAAC2z3BhcmEAAAAAAAQAAAACZmYAAPKnAAANWQAAE9AAAApbAAAAAAAAAABYWVogAAAAAAAA9tYAAQAAAADTLW1sdWMAAAAAAAAAAQAAAAxlblVTAAAAIAAAABwARwBvAG8AZwBsAGUAIABJAG4AYwAuACAAMgAwADEANv/bAEMAEAsMDgwKEA4NDhIREBMYKBoYFhYYMSMlHSg6Mz08OTM4N0BIXE5ARFdFNzhQbVFXX2JnaGc+TXF5cGR4XGVnY//bAEMBERISGBUYLxoaL2NCOEJjY2NjY2NjY2NjY2NjY2NjY2NjY2NjY2NjY2NjY2NjY2NjY2NjY2NjY2NjY2NjY2NjY//AABEIBDgFQAMBIgACEQEDEQH/xAAbAAADAAMBAQAAAAAAAAAAAAAAAQIDBAUGB//EAEcQAAIBAwIEBAMGAwcDAgUEAwABAgMEESExBRJBURMiYXEGMoEUI0JSkaEzYrEVQ3KCksHRJFPhFjREVGNz8CU1orLxg5P/xAAaAQEBAQEBAQEAAAAAAAAAAAAAAQIDBAUG/8QAJxEBAQACAgMBAQADAAIDAQAAAAECEQMSBCExQRMiMlEUYSMzUnH/2gAMAwEAAhEDEQA/ANhIYBnABgYAAhgABj1FgewwEGBhgBYDAwAMCwMZROB4AfQBYSDAwAWAwMAFgMDAgMIMANFCwRUgpQa9DJ1EEc9eopNxcZreLyXUXLWlHpuRLWL9iK6bSymuqyTgm1lz2cG91oyyhJIeAGAsDwAwEGBgAsBgYAGAwMAFgeBgAsBgeBgTgeBgAsGKr5K9vU7S5X9TMYrqObZ43i+YDZzy1Iy7M6HU5k5c0FJdUpHQpy5oRl3QGQAAAAAACWUAENpdROWDV4lSq1FR8Lm0n5uXsc90eIWlSVSMpVoN8vJu0gOxTqwrcypyUnF4eOhWu2NTnWFrXo16slLlpyecNbsfEaV4vDnbTlJZxOKeNO4G/tuUlpsceVDiE4ypc0uRpLnb19TpWlOdK3jTqNSlHTK7AZsktkSc/tCSXk5c59TlVbC9lf1qkLmapTfNGPNt7AddvGr0REpHN8O+dOtCs+bKXI0FClXp1k5VJuM3mSxogN2ctDBKRo3NW7p3FVwXNBSxFY6GCN7dypqPgPxHom9EgOnkZp2c7hzlTuEsxinlI3FoAAAECENiADTvF5mbhrXi1T9ANyk+ajTfeKG0Y7R5tKb7LBlyFYpwUsehiqLQ2GzDU2A4XHo81hU9MM5nBasp8X5qiw3Tx/Q63GI89lXit1HJxOHV+bi1GeMZjy/sFn112uWdT+Wef3PUWP8AH94nnK0V4tb1WTu2kpqFOpFZbiiRaz0ViGOzZT2FDrpjLKlsVGrX2PPyyuIQfaon+536yc24p4ObX4deS81NUn2y9QOlx9JRo1ezcf1MtKXPZ0320NOpO/r29OlcW0HyvPNGWcmzSbjRcZRcddmB5n4u2gl3TI+2q5uODxTWfETaXR6I2Pi6H3UKn5cI5NLh1zZSsb2okqdSrDlw9UQj3Ekozknvk077a3kvw1DZqVE6ssySy+pgu1GdKPnTxJPRkVxL26ubTiFxTpK3UHJS+8lh6pGvLil31dl/rNjittTuOIuTjGTcVuav9n0ZLEKMWwO7wur41vCpJxba15XlHajqtuh5/g8fAt4UZJRazp9TvweYmoMXNcNKSjDl/calOVHxFFZ7GeGUlHoQouNOUZOKWesimq1YV68ml4UNX3MPHIuXDWlv4kf6m0uWPy1af+tGrxqfJwipUjJZi08p5B1rn5Tp1v8A7TMNCWeReqNK1uJzt6vNPMnpr2B39K1S53lraK3G0s079xUULec3jEVk8dG5qXMpTqy5sPTPQ2+I8bqXNrKjGl4UJbtvVnOtHmMtOoZbGRAACeoAxAD3AQAUgRKKQDGIYCZk4a8cSnLtAxlcP/8Ac1peiA7EZeY5M3mtUl3kzfhLqc/OvuAAANgAmAAAgDIBkAyIA3AMgAhAJgAAACPS/C0PD4TVq/8AdrP9keZk8Rb9D1/BqTo8EtId4ub+ryUb2wEjKGMlFZAY0SAFDW5KKAoqn869E2Qi4/LN9lgDetVijH1C8fLaz9dC6S5aUV2RhvnmNKH5pZION8WT8Phlnb/nqcz+iPMLGNjufGFXm4nb0elOjn9TiLOEWJRldiZvEJPsgHCLq1aVJLWpNRFHteE0fA4db08bQRvkUopRSWyWC3sYrTFUZybh89810hhHVqbo5Nt95cVJ/mkwOjDSBmj8qMaWcIy9AATAAAQxAAAAExzhcySljXBYkMBAAAcgYkMIa2GJDQAAB+wAMQwAAAAAAAa3AXUYAAAUGABAAAA0AsAMMAIYBggAAANS8jiUZL2ZgT0Ny6hzUZd1qc9PIG7w6WtWm/8AEjaOfbVOS7pvZPRnRksSaKEMQwAAGAgGACGAAAIBgAAMBDAAAAABicVKEovqmhjW6AxWz5rWGd4rlf0N+zlzW6XWOUc6guWdan2llfU3bF4lUj65A3QQhgMQwAAAAEJooQE4DBQmAsAAAJkFksCJGGZlkYZsDFLfcnUpiAkYAAAMQCYIASIGa158i9jZMN0s0gKsHm09pMz4NXhrzQqrtJG2BDMNXZmdmCtswrlX0XUo1kt+R4/Q81YRf263dNNtbpHq3Hmcv8LPMcHuJ2d7GpGaiqicG30//MAjtXl1Rt6zjVliTjtg063F1UhyKrXjFRxFQfKs+pknY2tWrKrXuXWlLduRrzpWdOonFY5XlJ6ojW3q+CVJVOD2s5tuTjq37m/LY1OGXCu7GFZRjFNtYisJG1LYqNWp848mtxGrWo0nOgoSksaT23NKPEeKKOXZ28l3U2hB1uZrqPOd2atC8nUpJ1aUYT6qLyV9sp51i165LpNuX8X/APtI4ejSf7nEuOKKtwyxtvEk6lGplprRY2Oz8TSVWy0/DHP7o4FSwox4NC8VV+Lz4cSaHprmUnN+fBqyrPDSm2bVTzyUotcrW2TmuXKm2c87p34sZkuWZyTlJ5RfO6M4t6LfPoa8JOba6hXk6sY1G848rOfa136Rluq1SjONSlU5ovpg6fCr2vVo32XmVKClD9zjpOdPlXmfbsdP4cy5Xqlv4UV/UuNrlcZFRd1Vo+JcXNRJyUUo6ZZnhYUZLM6tTKbXmFe1alC1h4SWJSw8rOAoVqM7al9p80pZ5m+mp2b1uel1LG0jTzFOUukefc07mKjwLiEYycoRqYjl56Gxi0jWnzTpOlyYg0/Mma0ouPwxcdeao9e42zlPTiU4tW8qkd1D9zSp0PN4lR80nqbblyWDnnVJI1lVTWUV58mC4+8rKEdjNRioRcfUx0ZKNdynsol0Jc0XJ9WVhmE8ZQZDoAt2GRdAQC1GAgig6CyNBVAJAAx8PfnrP2E3oPh/y1H3kBuOWIS9jU7GzU/hSNb2AM9wExhCDQNwCgADoAmHUAAW4h7bBuAbYJGxBCDICYVFTWLS3eiPfRh4VGlS/JTjH9jxNpS8e/taX5qiTPc1n97JvuWCBiWoFDAQwGMkaApDRI0wLRkprMUvzSIhCrN8tOjUm/SJu0LG6zBui0lrhyQo2dkka1ReJfUYflWTbdKqt6UjXhCULydSpGUVGOnMsEHi/iCt4/HruXSDUF9DR2WMlV5urd16r/HUlL9xdClQ9EbnBqfjcXtl+Rub/Q0nqdn4Wpc17cVX/dxUV7sVHq6axEcthx+Umexhpq3M+SlOXZGjw+OiZn4lLFDlX4ngdnFKAG1BZkZCIbssBAMTABDEAAAACABgAhiA5AyUxoIYyUPQKYxZAIeQEMAQxAADAAAYgAYCGUMAAAwAAAAMRAwAOoCyMAAmWqa7nKmuSpKPqdZnOvo8tZNbNFGFvCyt1qdlS56cKn5opnGWx0uHz8Sy5d3TeAM4AAAMQwAOoAgGAAAAAwAAAAGIYAAAAAMAMPy3q7VIfujYtpctyv5lg17h8s6NT8ssfqZflqwl2kB00MmO5QAAGBSuPt+MR+zeHv15gM4zWuq0qCg4rLlLAp3UKbqOW0En75A2QMELqnOm5ptY1ae5lUlKKktmsoChM04X8HSnUqp04xe72aMvjwaUuZYa09QMwjWncwnGqqUk5015l2MavqdSM/CeZxjzYa39gNxslvQ16lduhz02m+TmSJjeU504yhJPmWcJ6gZZyME3k11fSldTp+E404Ry5yfXsOjcRr55crHcDIAMCBAAygEMAJaAYgAiss02WKp/CkBr8NetaPombxz+HvF3OPeLN8gGa1wbDNW43CteK1eex4yTpqcqM01yyayl6ntYrVHlMqlf3EWkn4j3AwQs6U9VWkjNCwprPN4s/Z4M8ownusP0KtqFxOso0pppvVvogr03w4ow4TGEVKKjN4UnqdSS0OHbznbR8OOeXOcm39tqSWJS0aAq6SknF65NJ0VH5Zy9jPUk9DG6jhLlk9fQoxax/Ey6NNVJZfTYy0pU3Xgqkcrc3Kla2m8KPKkS56Z6W/HC+IIJ2EmuzR5Z3UnY/ZWvKp82cnsuNxpvh8uR50f9DzdClQfw9WqOCdaNTGeqJMt+11Z6r0is1UhSqRkuZwT39DmXVGpbSfiryt6PoZrS6bs6L5eZ+Gv6G1TULutStqtNNTeWs+gynZrjuWFcmCSlzKa/UypJ0ZRTWc5Mk7W3ouaUUoptJ/Ui2tYXvPGg8Vo68je6OfR6JyC05VOUakeZ8rxqb3w1yq6u0qbgnFeVs5Mbmnb16kKykppcri+g7PiFa1rzq26jPnjytSEmqxllt6lSjU8ODS8s3n6GlK3jHjrSgnSxnGMpaGjS4/GMs17acXneGGb1vxyyn5fGlBv/ALkcHSzcTHk6ttVKvNiVvDl11SRi4r/+y18LGsdEY7nj1jbJZc7iT6U1lfqcPiXxDXvaUqFK1VKk98vLZzx47LtLybcyo+anGGdF0NfHLJtbPoOVSWfkx9SZtvV4OrlWNtyeDaoeWkl6motzZovyL3KjNkMk5FkC8iySJsCshnQjmDmAyJ9x5MPMNTAzJjRhUx8+oGRvCfsZuHLNs5d5ms5Zizd4fH/ooesmwLr+Wi/Vo1TavNKMV3ZqAMA6oQQxAADASegwpAAAJiY2JgJsQxABLKySwOh8PRT4zSqS+WjGVR/RHrKXHuH1dKlNxffGh5Pgz8K34ncfkoqCfrJjpNckU+wHtqdbhldeWpFN9i1Y0Z60XUn/AIVk8jbNRnlbo7XDeI3lvGUKVdqLecNJ4Kjpy4ZNLKnj0ksGvUt6lH58Nd0bFtCtUtXKpWzKcnJN9DWm6tqnK9qU+Too5ywqMkyqwprMpJfU0pV61WTcF4cOmdzDJwWs5OTA2Z8Qbk40oZ9WOhXuqlXHkSSzhbs1YTUpKEcZk8I3oKNu01l1Map7Im1X9t4hbeanNwz+hlp8f4lFeapCXvFGtOq58Pk6j80ZGi68YrPTuibHoaXxNXi/vaUJL00Ojb8cs7lYqLkb6SWUeMjcU5vCms9mU00+w2PV33CuFcQi5Q8OM+9PQ8zxDgM6CcreoqiXR6MiFxVpPMZNM26fEJy/ia+praPNSzCpyzi4yXRnpvhWljh06nWrUf7GK7oW1/DzrlmtpLdHT4NShQsaVCElJw3A6KInsXjBiqbmWnM4g+arSp+7NqguWBpVX4nEJP8ALojoU1iCQRmgtENgtkACAAYAIYk01lAMTAAAYAAgGAHG9gEmPIQwyAYAYC2ACugCQwGAh+oAADAAAAAAGUCGIYAAAQAwAAAAAQwABM1b+HNQz1ibZFWHPCUe5RyFrg3eFT5bmdPpOP7mpBcrcWvQunPwrinUXRgddrDEXUXmyupICGAAA0IaAAAAGAAAIYhgAAAAAwwAAAAYrmPNbVEt1qhylz0lJdUmZMZTXdYMFt5rZJ7xbiB1qMuelCXdIyGtYyzbpdYvBsgAAMDFVpKo4OT0i39TXlYQlFxlOTTx+xuABpV+Hwqz5oznTeMeU2KVNU6UKabajFR17GUAObXsJ1beVu6n3T6Y13MUrNUXaUuaTgny5Z1iZU1Llz+F5QGrSsaNKvUrQj5qvz+vQVGxpUPly+2eiNzQlga8aEIOL1eIuOvYxfZ6FOHLTppa5+ptMxSA1atCnUnzTgmxRpQpyk4RUXJ646mWROAEIoWAEMAAAAABoQwAQpLySKDowNC0fLfxXfKOl1OXT8t/Sb/OjqyWJNEEM1a2rNqRrVFmQVha2PJ8QUFxC/c8ZxmPueuktjyV5bxueJXanLl8OEpr1wB1KNvTrxoJ6c9NPK9jpWtvG3zCKysfqc60qJW3D5fmio/7HXhlPDXmi8MqlCGIOU46/l7mt5oN5yn2OtSlDxISktEzBdWzmnNaPsyI0oTm3ibTXQjmhByqVpcqWXqZfs1WnOHPjCeW0zUvKlNyqL5nP8L6ICKPEoVZRb8kW9Op2Ps3PFShVTT2PKytKePu24P0JTuaLT+dLs9SXZuvQcUt5wsZa82+3szx1Glc1bWs6UZujDzVMLRHYlxa4nRdPD9FJHNsuJ1bO0ubaEYuNdYbfToIbrq8PfLZ0GtW4G5aOdC6jXVNy3ycq0+I69tZ0renbUfu1jma1fuZqfxTeRnmVChOP5Xp/QNyt6dvOtLLpvGWzasLXwLiVVxUZOPKjmy+L672sbZfWT/3MUvi26b0tLT9Jf8AJPZt1uI8Mhc3rrOlGTmll/Q49egre6q0oxUVHC0KXxffp+WhaR9oP/k169zUruVeq06lV8zwtMl0zaxTmud9kOjBVMvGhjnCOUoNvTXJ1LGEPA8Jpc25UayoRxpoY52zfqbbi4ycX0DBUc6paZWzXsYpWtKlQnN1V4ixy05J5kjrYyzm39epTufuZcrS3RBz5Jt55WvoZ6bxBA6t1WeJVpS95F1KFajTjOpHyy2knlFE8wNkZQP0AvInJGN5QnkgpyJbJYsgU2HMQAF8xSkYgyUZlPf2OvZLFlR9snDT39jv2y5baiv5UBivn/Cj6NmqjPxB/fwXaJgTAoQvYeQAAAADoAAAC2AAYgYgAQxALAdAFN4i/YDoUE6Xw3Vls7m5UV6pEwZdzHw+EcKofmU6z+rMcdWBuW+rydSzm4Sbwnp1OVQaWmdToWilXqeHSe2sn0QHZpX/AIVqoQjzVfwrovc51xWUJylUfi1n32RF1dRpRdOhhJfNN9TmTqzqSah+oXTNWunL55fRGv485aQh9WVGis5lqypzhTjroQYvDqynFyqOOu66HfpcNjCMJW9w67kvNKTOJTjXuHijQco/meiOvZVJ8Ns3G4XMk85j0AxX9rKk8zm8S6J6HKkpx03RsX3FZ3slCnFwpp9dzDOMuXmfYisbSlui4VqtLGHzw7Mz0OGX1elGrGjHkl8q5sSf0MFSnOjVlSqRcZx3i1hoI3aVWlXisPD7MuUHB+5zU+q0Zv2l0pR8KtjPRlA24NNPU2ba5cZqUW1JfuDiprzbmtKLjLRhHqra6jc087TW6FV/ocG0upQktcSX7nUq3CnazqLflCtK1fPWnPvJnUh0RzuHwxBHSp7gZcAAEUhMYig6BgACAQDAAAADAAYLq6pWdB1q8morRRS1k+yQHKWw08EpjTTCLTGiE/QafcCwwLPoPL7AGwJhn0DK64Ae4ZJcl3X6i50vxL9QMgzD4ses4/qHjQ/PH9QMwGH7RTW9WP6i+00v+7EDOM1/tVFb1EH2qi/739gNlDNb7TT/ADN+yD7TDtP/AEsDZA11cR/JU/0sardqdT/QwM4GDxpf9mp/pGqk3/c1P0AzAYuao/7iYZrf9iX6oDKBj++/7L/VDxW/7WP8wFikycVfyr9RSjW6KOPcDSrQUa0v1MTXMmuouI1KlGrTnPSMvKmllZMSqv8Am/0lHboVPEoRT+aOjLyjh2Va4VzOKbUXqnJHXUKzSaqQ/QDNlAYvBrf96K/yh4NX/wCYX+gDLoBi8Co//if/AOIfZ31upfoBlyGTD9nx/wDEzDwI/wDzM/2AzZHn0MHgw/8Aman6oPBpda9R/wCZAZ8+g8mDwaHWrU/1B4Nt+eb/AM4GcMmv4Vp1cv8AUx+Fadpf6mBnyu6Dnit2v1MHh2n5H+rGqdp0o/1AyOrD8y/UXjQ/PH9SPDtulD9mHh0P/ll/pAtXFJPWcf8AUY7acXOtGLTXNnQpQof/ACq/0kJRhdrlhyRnDGMY1A3+HvEqkfZm6c60li6S/NHB0EA0MQwE2luROooJPo3gqSUk4yWU1hnOnzUHToSeY88eRv3A6OQ5kYfEX2idPPmUeY1ra7jK2qST5nSb07gb+QyaruOa2jVprMpryp9yqFWdSn54qNSLxJdMgZZTjFpSkk3tl7hJ4ONWrOtdx5pw8kvw9DoXM6bgnUk1H0YGVswzkY7apGcJKMuZJ4XsVICGxMwX1SVGlGcWormSbfQUrqEKUJ1JKPOtNd2BnyBo23EIVaTlUxHGduxsqvCUoxi0+aPMgMoGKpXhTUXN6y0S7lxlGSzFpoCgMNCs6kG6iUHl416FOtSitakUvcDIBMZxksxkmvQecgMAE3oBzbh8lxF/lkv6nZn87Zx79Yqt/U6zeVF94ogiRrz3M8jDIKxS3R5K8o1q/Epwt3iclLOu6PXPdHk7mtOjfOpTWZc0o47gb3CaTurGyjH5ozePpJs7LrRqXFV05KWJYeOjOT8NT5LahJ6eHWeToK1VvVqOm9JzcpZ7lG3GoZp39NJKpKmsLqzi8RlUUFCjV5JZ82NzmK3pRblWk5Z3cpDQ9RKvCUFLxI8j6t6GD7JYXNeSq1oKONJRnjU8vecSSUKFul4UPXc1v7Rlt4cP1CPT3HCORZoXNOol0c1k51ROi34kdu2pyleTntTSXoN3dRJ+RMit6ValLZ6+xxZY55L1Opb3NCvbTp1YSjX/AANLR+5y5+WrOL6MCepkoqjKso15uFPq0ssyW1nGvT55XNKnrjEnqTc20aMoqFxTrZ35OhRtOjwhLS5rP/KR4fC1tVrP6GrSpU5Sfi1fDSW+M5MkqdtH5biUvaAGRxsebNJ1Hj8xdSfM0o7IitbRpWkK8ajkqjwk1sRSy3hdQjaoLmeWb1KXJKMuqNalHEUjOtgNyvHniqkfqYMFUK3I+WXyszeHCXmUtAMUI5eeiWWcKrVUqs5NKWW9ztXlZQtpKn1WDnK0o4XNFt+5BoyqL8qBXMlHkz5X0N12tD8n7lK2oL+7QHOc3noXQTq1Y01uzLeUo0/liknt6EWkXTvaalo8P+gGaVrNdmY3RmvwP9DoLcyLOAOROmkt8Mx8mh6GjQpVP4lOMvoYLrh9GMvu48uewHDcGThm99mk5yjs10ZE7apHeOfYDU1EZ5U2t1ghw1Ajoz0cVywguyRwFDGPVpHo1HVfQo5t827uS/LFIwl3cs3lX3wY0BSYxDANhiGgAXUOgIAEMQALOEMloA6oQ29BAL6kVc8jS3ehZdvT8a+taS/HUin+oHQ4uuS/o0fw0KEYftkwQOxfUaNe7qzlHLcsZNOdlh/dy17MlVhtXK5vHbU4NzX4ui9zsVZQtaH2eg9F88+smRQow4ZbShF/fVdZy7Gqs1ZehBHmryxjyozRjGlHXYt8tKPZk0LepfSysxpJ6y7+xVY06lefJQjn16I3rbh9KDU633k+z2RsxhChSjCnFJL9xopWSOixHRdkTcx57Sqn+XJSCp/Aqf4WEcWnTjnOEbXh86UcZzoYFt9DbpfLFkHcsouVWhBJYisaHhPiG9qVfiG+q05PHiuK+mn+x7vhs+SNStLRU4836LJ8wqzdSrUqN5c5uWfqIOjbX0anlmuWf7M3Vrqjz2ToWl1JJQm9OjA9BaVvE+7m8TX7m1Onndao46k9Jw0a1TO9bVFeWiqRXnhpJBGjOlJp4WqMlnc6yoVXiM9M9jfp0fEg5RWy1OdeW7jLmSCuxaw5Mpm5BYRo8MqOtbpvWUdzfjsBQhiCgWBi6BB0AAATGIYCH0EzXvbynZ04uac6k9KdNbyf/AGS4uKdtT56r30jFbyfZHMuasaElecRlF10vuaCelP/AJfqatW+nTr8yxcX89El8tL0X/Js2XCJSq/aL+Xi1Xryt6IqNfwav/fj/pH4VTrc4/ymRU4+v6j8Km91+5FYvBl1upfRFeBHrcVP1RkVGn+UpUqa/CgMP2el1r1X/mH4NBPWpN/5zMqdP8qHyR/Kv0Aw+DbdXL/Uw8K1/K37yZnUV2RWF2QGDwrT/tJ/qHhWv/Zj+hnwGAMHh26/uI/6Q5aK2t4/6TPgeAMHNTW1uv8ASUpx6UP2RlwGAMaqP/s/sV4kv+0VgAF4lT/th4lXpBfqVkYEc9b8kf1HzVu0f1KAInNb+UPvvzR/QoZRGKvWa/QMVP8AufsWAEctR/3j/QOSf/df6FgBjdOf/dl+hLoyf97MzBgDTr2iqU8SlKWGpLPc0+Vvqddo5VaLjWlFbJgOnBOrTjJvDlg6n2aEW1mWnqcmTeYtfh1O3zeJCFSPVEGFUKfZ/qP7PS7P9TJgZRi+z0vy/uPwKX5DJ9UG3UCFRpL8CDwqf5EWnHuhc0PzL9QBU4flX6DUI/lX6C54L8a/UPFp/nX6gPlX5V+g8Lsv0I8Wn/3EDr0k/nQGT6L9Br6foYvtNH86E7mivxZAzBkw/aqfqL7VT6JgZtRfUw/aY9Isl3aX92wNgw3ekac+sZfsT9qf5GY7iu6lKUeTcDPF8tSEvyyOt1ZxpPmpc3VxR16UlOlCS6pAWMAARjrUIVuXnjnkkpJ9jKIDHOjGVRVPxJYfsalLhsaUGozazv6m+J6gaisaUYKKysbPOxlpUo0otRbbby292ZRMDF4cYSlJRWZavQxV6Ua0UpZ0edDYkc7i0LqdjJ2c3GtTakkvxLsBUqEVh024NfuVnJyLL4hhVSheQ8Oa3lj/AGOrCpTrR5qVSM4+jAi4owr0ZU6izFmGpYW9SHLODlHs3sbWBMg1aVhb0qLpRp+VvOrErKkowjh+R5jrqjaADFKhTnUhUa1gmkCt6cc8uUnul1MowMP2ak4pcui9RfZaP5MmcRRqfYoqvGUG1Ta8yzv2NpJJJLRIeAABPYYPYDQv1537HQoS5rWjLvBGlxCPyv0NmyebCl6ZX7kGSRikjKzHIKwy3R5GpXVDiSrP5adVtnrKj1PI1lFznOSzGNZc3tkQrf4JV8WjczWzr8yXbJscQr1IcXgozfJNp4zoYeDul9rvoUUlTUouKWwcReOK0Pp/U1ERxe8XM1SWOjZq8JpKtxOk668SGdYy1T+hfEIJVail0lk37HhN5RnRuJ0XCm5Z1ev6FsTbpzsbJZ/6Shj/AAI0+I8PtI2FepTtqcJxjlOKL4pmpbVcuXlT0ORZ0ufhzqOtUTbkmubT9DG1YbarCFm+ZpPcuNGVekpxptxkspo0d6TXZM7PCpZ4fberx+5TbSp2Fw1OcaMmoLLa6HP8F1LypDGu57movCtrmENOaDTPE1I1v7RlGhGTqtbRWWcsc5ldNWaY6NKU4Scablh4eFky/Z5Y/gzX+U6/w3Qc7a4UnyyjUw9PQ7asml/H09YnRHiZUJfkl+hDpTX4Jfoe7Vm8Z8aL/wAoRseeWPEj/oA8RUm5W9Ki004NvBltoY1ZnvoqXEbhaYjPlQ4R5VgC0WmShoIyLUpMx5Hkox3L5pU6frlhJZJXmuG2nhLQy+DVk/LTkQYZIaNn7BWmsvEfdmzacKVeapzuY0pPZtaNlHGvo5t89pIw0pKfEKbXb/Y6/GuC3tjTxVp81PKfPDVHJoQ5L6PbuTe103I7maK0JhHUyNYjoVGe13Zd2s04yXRmO0zh5M9SPNSkvTIGhXoupFVKelSP7muq8VpU8sl0N+g+Z8pFaGHsv0KNKFN3VVSksUobepndjSlvTX6mWGjNiKIOdLhsHOM1KSSeeU34azXuZoxMnLFRcmsYTYHmqkue4qS7yf8AUEY6b8ue5kRAxiQ8FDAACBBsAfQKBMGACBgJgDEwyACN7gUPE41Rb2pRlN/oaL3Op8OR++va35KXIvq//AHR1bk+7yZ7eKpxdeXTSOe5ihBzlGC+rHeVU2qcPkWiIrXqSlWq4bzrqZsRpQ2CjBQjzPcxzUq9RU49SKVKjK9rYb5aUX5pYOvOdvRhGlSajGK0SM9rRjbUI06ay3u+7MNWpzSacUmnqWDVrS5pLD21CEmhVXms/YI7mmWxGWTJLWlNfyswwM8VlY7og4y2NqhrTRqvr7m1b/IRXRuaytvhu/rPfw3FfXT/AHPnOywe0+Irjwvhh0k9atZL6LU8YtSwJLLNrHJRk+yyYKUczRtODm4047zko/qKPQf2ZVt+EWt4stTgnUXbOzNjg1xC3vqXiP7iq+ST6LOzPS0qUIW0aLipU1BQcX1R5XiFg+H3M6GrpT1py/2Ir1Nlbq04rKjU1hVi0u2TX4vYeFNqK8r2YcOuZcR4RGWf+qtMKXd9mdepjiPDlUivNjbswjzHB66tOIKNT+HU8kju1qLo1XB7bpnAvqDpzUtjv0KyvuGQqrWrS8siiBDERQIGAQCAGAAGiWW0kt2zj33G0qv2bh8HWrvqtkBu8S4lS4dR5p+eq/kp+vr6HCtLe94lcTrym05fNVa2XaKN2z4JKVVXXFKnjVntDojsaJJRSjFbJFRq2dhb2kcUY5m95vdm2k8aL3JbUIucpKMVu2cO74nX4jVdrwxOMFpOt/wUZ4lHPjC9l+JF+FdLeql9TI3kVg5yhXW9dfqZYUqkt7mK+oG7oBhjbZ3vIItWqW95+kQLyh5Qo2kcZ+1SftBlK0h/3qr/AMgCyg5l3Mv2Km0vPW/0j+w0sb1pP2SAw88e4c8TI7Gn0jU+rRX2Oilqpf6kBgdSIOpHuZvs9st6cn//ALBOjap/wY4/mqgYfFj3QeLHujLJWSWI0aUX3dVsmDtY/PGg/wDOBj8aPcTuIozOdp0VuvqY5VLZfiofoBH2qHZh9qX5SvGtlvKl9IEu6oR2mn//AKwD7WvyC+2P8gO7p9Jf/wASXdro3/pQFO8l/wBsn7ZP/tMl3M31f6In7RNv8YGT7XVf90/0D7VWzpTZi8ep/P8AqS6k85XP+oGbxrp7Q/YPGu/yfsYHKt0c/wDUS3WfWX+oDNKpedIs1Lijf1eZxglJ9WzLio98/qRyTzrsBNrQvFRSuVDnXVPc24faIRUVVikunMavhZe7ZSo81SMe4Gzmr1rx/wBQZm97mH+ow/ZHnp+g/sjz/wCAMra63MfpIXNBPWv+5H2THV/oUrV+pQ+al/3f2Ys0fzt/Qr7I33GrR+v6gRzUu7/QpSpfzFfZM9H+ofY/T9wJ56P5ZFKVH8rHGzX5UUrNdkBPi0V+D9wVemvwL/UX9jT3RStIrogMauaa/BH9Rfaqf5UZfsq9B/ZorsBh+1Q//Ig7qHaX+kzeAhqhEDB9qj+Wf6A7rm0VOZseBEFQjkCbeXNbRzuspnS4dLNsov8AC2jm01yVKkOmjRvcNliVWHtJAdABIYAIBMAYGtO6g7d1qLVSMZYeHnrqZ1OMoKSejWUA2LIubKyJgEjC3h5RhV4vEnCVOS5Hjm6MqVWOG1JYW/oB5b4otFbXULqnHEK2kkukjk07yrReYSlB90z2PE6Eb/htahFpzxzQfZo8RLLjqsNaNEHXofEVxBYlOM1/Mjdp/EtJ48Siv8sjyklgjAHt48fs5bxnH9zIuM8Pf9617xPCYx1aBPfzMD3q4vw9/wDxK/Qr+1LD/wCbgvc8FyrDxL2G4JKT5s8u3qB7v+1eHre9pmSjf2dxJQo3NOc3ss6ng3bx5qiU4tRhzJ9/Qwx0accxmno08YA+lPQRo8Ev/wC0eGxnJ5rU/JU7v1N4AAAKNa/X3KfbIWFXk4e9M8knoXdrND2f+xp2UsOUOkiDZhfTVTFa3cIvaWTJOSzjOfUwXV3bUZ06FeeJ1FlLGhVSLpzcZLDQUpbnkpxzY3kn+df1PWS2Zxbqy+z8MuHJ5c45EKjgtCnbcWr0KcueLoqeX/8AnqLiWnFYZ6YI4FRqW/F14suZ1bZtPOdNP+DJxdY4pTfdI3Gani0M1q2OyPX1aquLG3mnpyJ/seZvIc9xW0/Cv6Hc4ZH7R8O0dfNKk4Z9djWXxJ9FLh0bmNWpKfkcZLC74PJQ5oWVHD0qJyf64PYfDtCtacLnQuJc04ylr3TRyOE8Id3wKjOp5WqdSUF33aOTTzbWsl6G9w6r4fCqUsN8snt7mhF82H3ib/CJxVnT8T5VVkn+g/Er09wsqp6p/wBDytjdQtviOFWo0oNYk30yj1L1WfzRyeOubN3HFqdvGSh4iXmZ5eH/AGrrl8dn4cqKrU4i1qnW5l9cnfilKDT6nmuBQVheX1vOako8vmXXc7tO6o/maxvoepzbtOmoxjFdDzN5xa6vFcu0qxtqFF4x+KZ1avHbWi8RjOo12Rw69ja3ledagpU1JtuOdAObQi35st51bb3NlJ9jBOVSyqxVSCdN6Zwb3PHKcdmFY405y+WLMkbWb+ZxiX4mOpMriK3aCMkbamvmqZ9i1ChH8HN7s1HdxzhZfsOM7ip/Coyfq0BuqcU/LBItVX1lg1Y2d/PdxgTPh1TDdWrKXswNuVektZVY/qSuLWtB55HUf7HMnbQg9m/chwh+FfQD2/w/x6nxJSsq8Yxn+BS2kux574r4SuHcThVt44pVlzcq/CzSoTjCtTlF8k4vKa3R7BeH8ScJdGbUbuksxfc5XeN239jxtF8yz1M0tImCpTq21WanFxnTfLOD7mZyVSlmPU6y7ZZrZ6GxlbdzVtdIM2CowUYtV8e5Nb5vqbdvGLqvPY0r2ao803smUOKyzZijVpvVG3FAXFFVoTlaVo0153B4X0CBmhoB5HEqeI1ISg1+ZYLWH1PWypU6y5atOMl6o1K3A7OqvJmk/Qg88kPB063w/cR1oVY1PR6GjWsry3/i0JJd1qgMQEqazjqPIDAqdKdPHPFx90SACBgQIQxMoWwB1EwDqdrgMVHhVxUe9Ssor2SOJJ4i36HouH03T4PZQxrPmqP9SLG1D7qlzPeRgpx56nMyq0nJqKZkWKdPVEVjrP8ACjNw+mlUfoYF5nzM3OHrzOXTIg33uk2asl55PuzbaeM4NOTw2aRrN5qSfqUiImSJUZImzb/xYmqjatvnb7IK4z+ep/iZsW3yGCosV6se02Z7f5DI0finL4da9lUZ5lI9V8RxzwinLtWX9Dy6WjKM9BJR9To8Ho+Pxi0huufmf01OdTglFPqz0PwhSU+LTqY/hU3+rFI9qjS4vaq8sppfxIeaD9TdRjm8IivOcBvXZcTpyqaU6v3dRdj1ll/0l/O3b+7q+aHueP4rb+DeylHSNTzL0Z6OhcSu+D290v41u8S+gKfHLTzOUVo1k1Phyv4d5O3m/JVjj6nerqF5YKpHXMco8vSbtb5Tf4ZZKjsTi6dSUHvFks2uIxXiU6q2qRNQgAyIitVhRg51ZxhFdWwbZDTvuJW1il4005PaC1bObW4rdcRq+Bwmk8bSrNaIwUrSFtcujRxf8SfzTm8wo+rKjHe3l/fThRhBwdX5KS3x+aXZHa4bw2lw2hyrE60tZzx1KsLKNlGUnN1bip/ErS3fouyNrfYAbbZgu7yhY03UuZqKxourNPiXGKdnJUaMfGuZaKMdcGpacJqVqyvOKz8So9Y086RAh/bOONym3b2PbaUzp29CFOEaFvBQpx7GbDniMdEjPTioafqK1HjKdKtHebfuzapyrQ25H7oyqGuxkjFdiMpV1X6wpL/KPxq8tnBe0S1FdUjIkl0Awc9f/uf/AMS1WuV/fP8AQzpIaigMSr3fS4mPxbl73FT9TMooOVAYPvnvWqv/ADC8GctXOo/8zNnA0Bq/Z/WT/wAwK2XZ/qbiQ8Aan2Zdv3BW0fym3gMAan2VflQ/sy/KjbwGANX7Ovyoat12Rs4DAGBUEuw1QRmwPAGD7OmPwEZwwBg8FD8KJmwGAMXhR7D8KPYyYHgDH4Uew/Cj2MmAwBj8KPYUqMXFrG5mwGAOYljKe60Ki+SpCfaSKrR5a0uz1Ja5k16AdGcEptYFyrsFOfiUKc+uMP3KAnA+UoCieUeBjAWAwMAFgMDGAsCGAE4DAwAWAwMAFgBgBhqeW4g/zRaM1lLF3Ffmi0YbnSMJ/lkv0Gn4danLtJAdlDB7gAhNaDADBb2tK2o+DSglDLbXfJgpU7qi3TioOkno29TeEwNKvRrVKKgnpKXmaeMIm1hOhB0ZqTUW3Gbec6m7Ixy2A0bmFdVHKhCEudYlzPGDUjZ3CjKE+XlnjOHtqdV6GNkGr9nUa/iQk1hLynk+MWTseIOL/h1k5xf9UezymsppnM+IbP7ZwtyivvaD54+q6oDxtSH6mJrXdM2W+enGSXQ15aenoAkvf/yLOHp+6H6JemgLTq//AABeyyseXReqMkcRTkuWTpvTTciDw1qu23QuL5cPTy+XHp3ApaPkTj9y/Ei2vm9DBXScozjjFRczS6GeL5VlYboyyv5kDppqdJcqUvvFLs8bAbPw/f8A2DiUed/c1vJP07M9tJYlj9D5s+22D23AL77fw2Kk/vqHkl3a6MDpAAAY66zQn6YOdbPE2+scHTqLNGovTJzKKxXlHbOUBrfEFHNalXa8jjyt9tcoVrxSSly3mamdqnU6l54LxSnKDiopSTaPO8QoRsqyjRqxqUpLmSTy4+gV6DxKdSDlTkpLGdGaF3NVuH1E+lNnGp3ah8k3DubELpOlODknzJrVga/BqtaPFbSVVNRlTcIt9UbvGtOKUf8ACaUOeFS0lFpq3k869GbvEqtO5u6dWm8qMdcmozW5VX3k2t/DT/Y3vh65zw6Ftj5Zz1+uf9znqtBxcuZfw8b9TY+HMeLUXMlyybw33X/g1b6SPQ0lq16M0vhefi8GtOb+7cqT+ja/ob1NJVNWkvVnH+F6kaVC9ozqRio13OOXjRmGnkq9J0LutRe8Jyj+5di0uH1k/wANXP7G78SeH/btd0pRkmk24vKzg0LRpW9xCT5eaaaIj1tB89tQl3pxf7HkeJVZWvFaVaKy6byl3wz0VtxG0p2tGEq6ThBLGGcK8lRrcUo1cc9JTzJd+pwwx1lt1t9HwivO74nc1GsOquZpdNTuuCUOWC8z3fY5/CLeDvbm4hHlg9I+hTqVeKXv2S2mqdFP7yq3hep3YY4xsvtUKdao5yk8N55Yx9WOPFLO0uJ0qdt4sYvCnTeeY6Uq3BbKSoW1rG7cFiVWp1ZhjcUYLyUacF6IDQv7lcToeHb8MqwbfzyeiMdPhl8qT0glFbZ1OhK96bL0Mf2vDymUa9tY069KM6lWS7xW6Ztws7Gml93zPvJnPrVeSs6tN45vmXcbuk1owjrRlbU15KUV9Bu6S2SXscSVw31ZPjy7kHad37EOvGSaOP477i8eXcDcuEnsactGHjtrUlyywMkEs5a1Olw68qWVzCvSesd13Ry4S1Nyk00Szax6TjthT4nYx4rYxzUS+8guq/5PI8/g4lFN0Zfqmeh4JxOXDa+KjcreppOPb1F8R8JhZ1Ptlsk7Ov8AMltFv/YxL1umnMtsSi2tTMceXPQm40qzp+j2Lpu8qPCuYfRHWMO7a4i5N9jj8Xr055oweXJ4bXQzUuHyqLNavWmu2cI1760hRoPwoapp/uUZ4bo3UaFJ80k8m+noBkgZo7GCDyTfVnb2U6sfmWEl6gbsJJvRoyo8/R4mtFVg4vvFnQo3sJ45KsX6NgdOOC1qtcNepqwuMY5o/UzwqwltJIDHcWNpcL72hDPdLDOJxPg9OhUtlbzcVWqcmZa4Z6Jao5/HFixjWW9GrGp9M/8Akg5d1wriU4qDUayhquV6nMqU6tF4q0pwfqj3NGX3s5LZxWCasYTb54xlnugPC8yfUD1dfg9nXy/D5JPrE59b4dksuhVz6SA4gmbdbhl3Qy5UuZd4mpLmi8Si4v1ATEyvoLAGKq8Qa6s9hKn4MaNP/t0oxR5SnDxLu3p/mqJfuepuKmZya74RKsRRhzzc3sVVlzPC+pcI8lL3MeHzN9zLSW8IVXiSsLd8izUekUOo+XOuyOHdVPGuM9I6IsSnLiXEHq7uos9MnS4XfVqtPw7iTnJ5xI4ri5SS6Hb4bQ5KXP1eiKjdRkiY1F5LSaNIyI27NZ5fWRpxa7r9TesY58P3yFca5XLe3Me1Rl0Owr1Y4ld//cY7fczVY+Ox5uB1O8JxZ5WOm57WtGlK0qRr05VKe7hHVs5Dq8Fpv7yxqxeNFKLQiVyIs9d8GU/+mua/56nKvZI8dUmnOco6LVpdj3vwvR8DgdqmtZpzf1ZaR2ehhqSMrehr1XgixxuLLxasUt4LJufC1dePVtJvy1o6L1NZ4qXs86rYwWzdjxSL/JJP6Ar1vCZ8jrWc3rTeifY4vFqDp3U01jK0OvWao8YoXEfkrQw2Rx+lpCqlq9GEXzK54PSq7uCRqbmT4fqKpaVrWW6eUvRnFv697cV52dnF01F4nUfT2KVl4jxejZ+Sn99cPRU466mlQ4XdcSqqvxaeILWNFPTHqbvD+F2/D4SqyxOrvKrN7GtOvV43UdG1lKnYReKtbZ1X+WPoE0buJXknYcGSo0IaVrlLb0j6nQs7SjY0fCoR5c/NJ7yfdsqlSpW9GNKhBU6a0SRFzc0rSi6txUUILv1Cs2d9cJbt9Di3nE615WdlwpZltOt0iYpTveOyapuVtY51ltKZ1KFChY0FSt4KMf3YGHh/DaPDoN/xbiXzVJb5Npc02KKc3kzxSgstpd2LVkVCPKsae5yuJcRzJ21s25PSTX9CL/icpzdvaZlnRyRscM4crdKrV81R9+hiu2OPX3WjgaQL1GiuAS1KQsDRUUi0Yy0BkBEJ4KTAeBgCABhgAGMldR5AoBDAAHgAAAAAABgJDAOpQDBAQAwAoAAANW8jrGS9mYY7m5Xhz0ZLrjJpQ2RBuWbzSqU/yvKM5qW0uW6iuk04s2l1XYBgAygAAQAMQAAxB0AAAQAAAACAAGAhgRVjz0Zx9GYG+elzd0mbS3Rq0lywcezaA7dCfiUKc+8UZDT4bPNmo9YSaNsAAAABNgJlEyZrXXjeBP7Py+Ljy82xsMxTeEQad9VnTtFUl80Gm+VZz3Mcr6PiUVGLxPq0bjSlFprR7mJ0YOnGnKKko7ehBpq4dJTWmYvGGJ3lRrMYxcXpg21b0Yv+HEbpxw0opZ9APEXdtKzvKlvOPKn5oeqZpVE03j9j1nxRZ+JYU7uCzO3eJesWeXqLm5X0YGu0CWH1G89Qx7/QCo9m8JrD0MsXzNOTSc44lpsYFLHV6arK6lc711WMqW3UDOmlCFTTKbpyjjp3E4vlqUlhujLni/zIxyqSk5ryfeav0Mqq4jQucLMMwku67gYbrzSjWWMVfNiP4X2Nvgd//Z/EYTk/up+Sft3IVJZrWvNHl/iwk/6I0YvOUwPpUlh75T2Yjl/Dl873h3h1JZrUEovu10Z1OgAlnK7po87xZP7BcNNppc2nueihpNHD4nDNtcQ7wYV45yb1cpPPdmS2qYrRTejMSxjUqPKpJ9gNySxJ6GNpN7P6GVSU6akupGFkIxvKT5ZNaD5qsfxN/Uec9mLHeL07dwDxKi/EylXqJ/PJezJyls9vTqC66+oF/aa7etWePcyRu6ijySw4mLXGy11IbA3fK1lIhYyY6E5rTHMjNGUJ9vZgVGaXRMhvq+h2qXw7d17VXFu6NZNZ5YT8y+jOVUoTjV8KUGpOXK49jKujby8Lgqg58kqrfm7ZNOcY2sPCU851eC+KSUYRpQ05Glg5kqrzq8mhteLh6ddMLqb0rHiMYtuzq4juavBZU3eyqVFzeFHmjH1PSS4muaMZVH4tX5V3A8vKs1pqn1T3RhlXlk3uO0lHkuIrEpS5ZY6nKe4RldRvdkxm4t9iAA23SkqSqOSeeiMfMwhVxT5X9BIBtsWQ9wAClqIaAuDNmjPGhqJmSMsAdKLzF823U73w9xChe29Thty1UpyWI8x5mLdahKmnq0FnVnRrqryuEqS09TOc3GpWbjHDHaXM7SerjrSk/wAUTkW1lUrRdSnVVJxljU9rx6kuJcEo8QorNWklLTqup5eNtC7fNGo4ZWdNjOGe/S3FKv8AiNouVyhNL0D+05VliVF+J26Gtc2tShV5FPnb7Mm2hNVeWtDEX1Ou2dNyCu5apQgvcyupfQjiM4N+qRj+z0ukpJ91ImVrUeXTuteiYCrXXFKcHKcFGK/EompX4jc3FJUqk1JZztg6ULniNCOJU6VeC6GpxCo72cJxtnR5Vh4W7A1KEm+Zt5MkJJ6vT2FCnyRa6hy4iBs0ryvS/h1ZY7N5NqlxhPStDXvE5eeWk+5gT1zkI9Tb39KePDr49JaGte8bhJVrV0nOMlyuSehxKWqbfQT/AHA9lwi9hWs05y86Si8+httpvRnkeH306UJQjFSktUm8ZOtRvfHpxqJShno+hR2Bmrb1pS+Z5NpPKATWTBXtKFxBwq044axlLVGwS0B5Wvw+NleqhdSfhVP4dVf0ZnuOA1KcU6U+Z+p3bm2pXlvKhXWYy2fWL7o51hdVLG4XDuIS/wDs1XtJdiK5djw65o8SpTrU8Qhl5OzGPiVUvU2bp4nGPoRRjjMiVRU7GN8uUpThBN45pPCMrWWTSt1cykpU+aOM4ZlfrZXw3eXUHKlc2zi+sZcxij8CXcn95fU17QNN8MuLe58S0rTt47rlk9zap/E3F+H1PDrundRXWaw/1Q7RetbVH4FhCSdS/bx2hg61L4XtoQUXcVXjtg1rX40saiSu6FSg++OaP6o7VpxGyvVm2uadT0T1/QvZnTTj8NWaes6sveRlj8PcOW9Jv3kzp6gNjRhwXh8NrWH11Mq4baxX3dJQx+XQ2iZyjCDlJ6RWWXaPCcapqlxe5prXEk9u6Ne3+bB2ruwlfW91xFp+JOXNCP8AKtF/Q4lrrWi+mzJvbem/RXNUSWmTa+xwqRanBTT35lkwW6X2mipLKlUSa9Dt3Pw/Z1k+WVWjLO8ZP+gRwq/w/wAOqxcp0Ixz1i8HStIxpUoU4aRppRXsatX4VrxrRnSuVVhFp8stGbqt69HPiU5L21CMkpGpVlpJvosmWc0tMmje1OS3m11WCjWsk5Tcu7bDisMXFKsl8y5X9DLZR5Yp9kTxGoqlBQWsozT0GzW3ctpfa+C0p7zpPBvXMftXDM7vlz9Tk/DVRThVtpfjjzI7FhrbVKT3i2gjjcDl4fEuX88WjLe8lvWrynJQpxfNKT0SMFp91xiD7Ta/UycfsYXV5Dxm3SisunnST9SjjNVOOP8AFR4ZF+0q/wDwjqQjCnTjSpRUIQWIxjskCecRikktkuiOTxHjPhVfslhDx7t742iBtcR4pR4dD7zz1ZfJTjq2zQt+HXHEK0bzi7feFBbR9y+H8K8Cp9qvZ+Pdy1y9VH2OlKbfUIptRSUVhLZIIwc2KEebXotzUvuL0LROFJ+JU7Ibbxx23qtalbU+apJRS/c4txeV+JVfBoJxpvqupjo2t1xSp4ty3GHRM7lrbU7aCjCK9zDt6xYbDh0LWKlNJzOgiU9SkVyuVrgIZKGVzWMkaYDRSEhkDyNMkEijImUmYslJgZBkKQ0wKAAQDAYYAMjEADAQwAYhlAMQAMBDRAwAAAYgAbOa1yVpR7HSNK8hy1YzX4lhgS20lNbxaaOjLDnlbSWTmx1i0blvLmtoPrF8rKMoAAAMRSAAAQAwyAmAAAAIBiAAAAAAAAMEly16mdnhozmKvpVpy/MmgNnhksVKtP2kjonIsZcl7Bv8UWmdZAMGAmAEtlMhgKRin1RbZEgMUpKLSbSb0XqYbitKlOlGMeZzb/Yy1aFOq4SqQUnTlzRfZmC9pzlCM6azODyvqBlVRShz9ATTSa6mpKdSnQVONOXPs9NPUxSualtTn4kPLTWkvQDeqw8WhVp6NTi44lseBqUpW9Spb1HFypPlbi8pm5xPi97dcipt06c9IRjvL1NCVrdW3JK5ozhGrlRlLqwMckTjK2Lkmmyev/IC/VBlYSzt3Q8dMP6PcpR5ms5w9H7gQlnVJPGunU2KUVGU6TceSrDmz2e4oPz025Y5lySwvlDLVBZfmoy0WOgDcpfZ6VXTnt5JYxut9SLyKVaNWLTjWXNp0fVGdSSutZLkrx8zxom9zHTTqW1a1k8Ok3OGmrfX9gMnCL58O4jTq5+7l5ai9D3Wj1Tynqn6HzZeaJ7L4bvvtdh4E397b6e8egHXWkl7nKv4/fVF3yjp7M0OIL/qH64/oSrHlPCpqOsI59jIqdPCfhx/QJrEpx7NoqGsEuyOdrpix1IpYwsLsa7Xc3XHmgzTmtdi41MoW60SZLeNdV79x7/zf1BaJatdsnRzHtJPH7hhrTCaW7TDVtaRfRB5fyvH9WQCWVjleXr9CXh6pYQ1olltPOvsGjTWdFsBnsJwp3tGVX+G5Yl7M7l9wJJylQeV0PNY5k0z2fBLv7Xwqnl5qUvJIzbpvGbeckrmzljNSP8AhbRl4bUlWryrSXlprmy+56irb062I1IKSbOf8SWlPhtOhStqfJGuvM11Zick3pvLDTgNTrurUeWm3I0pLXU9bwu1pfZ6cZYVT5o52bznDOHxyNs+J1JW6nFtZqxksYn1x6HVz01+G14Wl4p1fkkuV+h66jCEoqcZU5Ra0eVojxWE9y0sbTkl2TIjqfENzSqVIW1CSlyS5ptbexyGtSkkthALAYHlLdocfO8QjKT9FkbXRYGng2qPDb6u/u7Wp7yWDfofDd3Ua8WrTpLtuybXq5IZR3rn4ZnTtZTt67q1IrPI1v7HnJtp6pro0+hZUsZgMMZmZPKKypDySAGanVcXlFOq5y1NcqMtSVY9t8LyjW4L4UtVCbg0+zOHdcMfD7+rSetBeaL64N/4Mq5heUuzjNHoq9nb3bpzr0+aVN5izwXO4Z16JNx566+HLdWVG6oQlGpGOasc756mjLhinTbpNt40eT27znL17o8zxW3uOE3cbiycfs9R5SksqL7HXj5d3TOWLgK0nBcko1XL2FU4XJrMo1ItneofEF7zpVaVq49WoYZvK5d2vngl2SPT2c9PFy4bVh/CuJx9GOhTvaVVc04zj6nrqljbSXnk89+U5texqQm3RlFr1Q2ac+UaM/4sEvVGKfD4zWaFVP8Ale5tVLWs/m5F7I0qtrOEuaNdJrsy7TTVurStCOJQfujTdOUfmR2Fd3FPy1GpL1Jda3qvFWmot9UVlz4rlpN9zCzfvqUKMIOlNSjN/oaXI5bICXmOJLKae524znQ5I1dsLU51tYVasoSbioKSb1OvPlqzlGSzFlg37XVJrVG+tji2VV2dzG3q/wAOp/Dl69jsooYAAAa99Z0b+3dKuv8ADJbxZnGu/bUiuVb06tOmqVap4k6eY83ddDcS5YYMFFc3m7ts2XukQY56U2+r0N+xppOenypRNLHNUpw6Zyzp2a+6m+8zGTeKnCLeqIna0aixOnF/Qz4DBz06OVccDt6izDMH6HLr8CuKT5qbzjZxeGeqwJoL6eZocX4xw1qP2io4rRRrLmX6nXtPjaSaje2T9Z0ZZX6M3XShUWJxUl6o0bng9tVy1DlfoalZ6yu7ZfEPC7zCp3UYzf4anlf7m1d1KcrWTdSKpYzKSemDxP8A6bncV4UqU1iT1bWyK+KL+nZWtPgNhLEKcfvnn9jc9sWaeuVehC0hX8SKoSS5ZZ0aPLcTs5cO4o1j7mq+aD7eh5644ndXPC6HD5VMUaOXHG77ZPY2s4fEPw3SllO6pLDXVSX/ACa0xvbShPlrUZZ2qJ/uez31PERy1hrDT1XZnoeH8RxinWej2kc8sut9ukx3PTrrRBkUXzLQDcvpliq21GsvvKUX6nLvuB29Sm5KtKklrrsdW5r07ak6tWSjFHluJcSq383FZjST0iuvuYz5JjPbpx8dzuo15y8PNKnPmUdOZdRU4Zyn1RMYYLc1Si5vRJZZ8/LyLll6fSx4MccfbPwOt4V9btvCcnFnqaMfCvKkdlNcyPF201mE4PTmUkz2VWWa9tVjtJY+j/8A8n0sbuPkZzWTkXkfB4rDHWWf3NzjjhCMatSSjBLVsw8ciqd7Qqd2v6mb4go061k4VVmElhm0eQuLy74tUlb8PTp0FpOs+vsbtjY0OH0uWlHNR/NUe7YTu7W2pqMJRjFL5YmhW44k8UaTk+7G2pja63Nu+hrXHEbe3T5pKUuyZzY/2nfvCXhwfV6G7acFoU5c9durP1ehG+sn1rTur/ib5LeDp0ur2N2x4PRtnz1X4tTuzfilBKMEorskUQ7f8UtFhDRKY8lZtZEZIbZMMWZ6S5pJBl5xMeSEyk/QMqT0KyQUiC0x5yQmUnoUU2GQ6CAaKRIwKQ08CQdQLUikzGhpgZBkJjyBQyRgMQ8gAhoAKGmAgAYxBkBgAAMAAAMN5HmoPG8dTMDScWn1QHNpy0TNuyl5qtN9VzI0orlm49mZ6FTw7mlPpnlfswN9aoBVXKm/JDm1BVE4+aPKwKGSm30Lc4rCcHn2AQthsQAJg2IABgIBgIAGIAABiAB5MVwvulL8jTMgprmpzj3QGFS5KsJ/lkmdzqcCT5qP0O1bT8S3pz7xQGUBDYCZEimyJASyWNksBMllEvfHXsBLOR8UzdPgc+XepNRft/8AiOq6kdcPVPGPU5XxBKNfhCcWmlU/2YHM+EaMbi4q3NWKl9mhGEE+jeTpfFUPF4Mqj1dKtFr0zoaPwbNR/tCm+8H/AFOl8QShLglzDmWXytL2aA8dLKZjf1SLnnQjroEL6LvoWtFLGU44kvRErGej9y4LWKx8ya33CqcU/Egs9JxXcyKWaybeI1Y4k/UVPWVJvPmTi/UWvg+tOQBrO1lBvWjLKWOnX/YqrVcatvexfmek9NE9v6GSnn7dy8z+/hhvG+f/ACYYR8S1uaD/ALt86X7MDDc0lRuJxg8wesXjdGxwq9fD+I0q/wCBvlmu8THUfi2dCo85g3Tf+xgxnR9QPorw0nF5TWU11RpcTWJxfojB8N3buuExhN+e3lyP1XQ2uJJOFN+jFWPK3C5bmsv5smOBnvly3tTPVJmCm4t/PH9TlY6Y3TKpYRivqLoVIprScVKJmxHleZR+rMF7cwrKEfEUnBYSXYYzRndtZZ93+489E/o+xP7/ANR59U/RnRyGv5dX1XQNE9Mrsgwuqa74Ent58P16APPTmWHvkMvCl5c7JB2ejS0x3DDy/Km326AJxw+n0Or8O3P2fiPhSeKdZY/zHL3jhLbqXBuLUo6Sjqvcl+NY32+iWdLnuV2hqbPFOHw4nYyoSwprzU5dmYPh+pOvwyncVFiVT+h0z5HNyWZ+nqnuPDqpONOdOacK1J8so9mYru2XGbV1qGFe0F5of9yJ6H4k4U7im760j/1FNeeK/HH/AJPGxu5211C5t5NTi/1XY+jw8szxcMsWhh/8rsGWd3iVrSv7T+17COn/AMRSX4X3ORiMkmup2c2FNs6PCOHLiF34dRtU4x5pNGpjB6b4coeHZzrtYdV4XsiWt4xlpcDsKWH4PO1+Z5N2lSjQj9xSpxS6KJl6Ep66M5bdNMsavMsNv2E4JvK3MbXXqVGbW5NquLcWu/Q8V8QVrWtxarK2g0ksVHjRz9D2q11PO/EPCkpO+oQ0lpViuj7m8axlHmM4Zlpyx7ESjiWOncFpudHKthPKGY4S/QsIBrcQFHovg+ry8Sq0/wDuUn+x7KD0PBfDdXwuOWz6SzH9Ue7g8No+Z5PrPb1cfxnSyc7jsUuD3KeNccue50YHm/iO9jcTp0Kcm1zaJdUt2y8WPa7hldNGNFJJ40ZkprleiHw6vCVR21bTOsJP+hn4hOhYUfFrNqLlyrC3Z7dOe9stKtpiTMjjCpsefnxuTk/CtVjvKQT4pdqC5J04OX5dWi6S1173h/2qg6XNKOesd0cer8PxprMrrGNuZpGpWu7+qsTuqj9FoaFWEpP7yc5P1lk1pi1uV7RUH/7qk16yyY4WsKr0uoP0SNTw4roPHbT2NMt6rw+eFiXMjHG0a8rWDFSuK1JYjPTszYV7J/xKWfVMDNRpzpLbKKTfMXSr0pLy1Ip9mZuVN5aQBUpq5tXDOJLWL7M3uH3P2i0jKXzx8s12aNWnDDzHoYac5WnEpQ/BXXMvco7OcjyasLiOz0MiqZ21KMwqkuWjUl2iyVIi5l/001nfQisVtHFOPsZcZYU1iA47ZJVjTu6dzVpuVpU5KtJ8y9fQ7llz/YqHiLE3BOXuc2im4TxvJ4OzFJQiuyMZNYjAABhsIAACkLGQRnoqnTpTuKz5aVNczbLIlrT4vxOHAuFuqkndVvLSj/ufPJOU6kqlSTlUm25SfVm5xjic+L8QndTyqa8tKP5YhwfhlTi9/G3hlU4+arPtE6Rzt21ZU6lOEKk6c4wqLMJNaSXoe3+C7CVnw13c9J3TUlHOiijY+IOEU7rg6pW8cStY5pJdl0PNcO+Ia1nwO4sXGXiLKoz/ACp7lR6PiNr4F45xX3dV831OZO6qW1zUhKnzRT0Weh0eEXdXi3wvCdanLx6awm182OpqTtqV8lWdw6U1HGMbmcsZl9axys+OjZ8VuVbOVKNNxitm8sa47Xj5p8nskcT7DOhJunWeu5XhtJZeWZuH/G5lP2Ni6u63EK/iVpaLSMFsjGocqMa8jT7GxJZSa6nj8vG6293iZT4w1asKMHOpJRiu553ifFJ3madLyUv6+51eOUnV4fJx3g+b6Hmk1gni8WNnZryuWz1Hp+Fyzw+1f8qPZxq83Dreot4PB4bg8s8JtX2bX7nseGy8XhlWD/C00fR0+V+j4kX3VCp2kbnElGcKMJx5oyeGn1NLjrzwq3l10/obN9PP2b2Uv3QGjcfDXDK7bdKVKXeMtDWj8NQoPmotTxtzHqXFPdZIlRjnKbT9A12rzMretS0lSkkuq2Jyu+p6ZwljZM16lrRqaVKK/QLtwR/U6U+FUXJ8spL0yQ+HQh3ZEaGfUHKMYuUnhRTbZvq1px/u0aXHpUrPgF7WUEpOHJH3egRzF8QWMv4dRyfrobFrxmhzptSx3Wp4HCillDhUnB5hOS9mVHrEUQiiCug0RnQpMqKTwPIkLqBaZWTGPJBkTGiEyslF5AhMpMCh5JHkCh5JGA08FKRAAZMjyY8jUgLHkhMeShjEADyAgAeRiQwGMkYDAAA590uS5b25tSHlwf6mfiUcwhNbxNONTUg7lGanCFR68y/cyYXVI0uHzzbuMn8stDb53ndYKL0AxOo8/Mg8SKWs0A6mjIZU6tNrRmPnj3AYhc69Q5s9H+gDAWX2D3lFe7QDAh1KS+avSj7zRLurSHzXlD/WQZQMUOI8LTxVvqS9mD4vwCDxK/i/ZMDKGV3RrVOP8BivLcOXtFkr4p4FBYkqkn6QA28ruC3NGfxhwaPyUKz/AMpifxlYL5LKswrZScXKHSMmdLhcs2nL+WTRxrTidPisqtenSlSSaTjL2OnwqWKlWn3Skio6QMSYADIkUSwIYmUxMCGYZ0ITuKddtqcE1o90Z2iWBqXFvUlV5qTSy8vJzr+xdvwySU3KMWmzuGrxKPNw64X8uf0IPLfDNPxOMXVLmazT59PRr/k7nFLOEuGXksZkqbab9Di/Dj5Pifl/7lGS/b/wenu483D7uPelP+hR4Cey9kYy2804P0MbAaev/JkpxTlH/H0Ma3wZYbr/ABIDJT/unrlVWhtYo3Oj+Zf7hT3petVhL/2tTlXz1MIDJFS+22XKpuSUdt/oTb6VbyWJNeE8/V9TLj/r5vkeKNPZS1ylj+phjFws6tRp/eTUU0+2r0AxQjjh731rafoY8dTPVTjTo0msNR52098mPGmegHd+EGoy4gpSUYKMJZey3MvFOP2kYqnQTrST3S0PPPxKdGeZOFGrjmS05sG3b8MueKUvHwqFstI6b+xFYVxShK48S6tvGX5ObCOfdVYVbmdSjSVGEnmME9InQveGUrVU2nKTec5NeNOCeOVEVpeZ6as7Vr8Pyi6M+JXELGnVi5Qc9W/oatO4p2tzCr4cZqm+blezYrmtdcVuZXN3UcpS/ReiRUQ0k2lJTS69wS6aP0Y3DkfKtkJ9tAhbd1/ux75y011Btabp+vQEttFLGiAOvy79OwYSjs8LdgklnRrD1Y8LbXHQAWOucdC6cHUqQpRXmnJRRHT5stdOx2fha1+18coN6xop1JP16GM8tY2t4T295a0Y21rSoRWFTiomYWcsbPhZ3eVr1Qubl10XfJ4b4m4bRp1J31hOMqLf3sI/gff2PbVIqcJQltJNM8xxqzhwvgly3U55XLVKCxss5b/Y7+Ln/lpnOenm+FcRqcMueeK56M9KkHtJHfseE8Nleyua0l/Z9aLdNt4UJdUzyqR1eCcVXD63h3EFVtKj88Japep9d5v1p3FOn9pq07duUOdxg+6zoeztqUaFtSo40hFI83ZqF98QxnFJU3Uc0l2W3+x6p4beTGVdMS5Gl5XlEtJl6rYrKlhvRmGmPGBbmRoxyi1qFEW47FxlGSw0mno0+pKFy9ixHmON8GqW9bntqbnQqy0S3gznXthXsaypXEUpOKaxsz3cZyW5r8SsKfErbw5aVFrCfZm5XOx4NPlZkT0CtSlTnKEvmhJxl7mNPBpjTMBKeS0UbNjW8C9t63SFRN+x9Hj55c0PNGWqa6nzJYxg6FvxfiFKg7ejcONNL6o8nPwXku464Z6ek45xyFunaUJc1T8bi+vY4VBSadSq+arPd9vRHPpvEuZvMu7NulPQ7cPF0jGWW62HHOuzWqfY6MalPiHD5Ubml4so7x657o0E8oxeNO2uVWpfNHdd0dakrm3FKpa1JRlCfJnRyWpjVWL9D2tN2/ELaNTkU4SXXdM5138O21bLovkl2JtrThwrtLGjXqNxpVFlpxYXXB7y2ekeaK6o1PGnTlipFo1tmxmnbLeJglTafczRrQl15fYyxcGsT80M/h3CaaK3x+w02tM/qbkqVvNy5JuEcaKe7Zhdq+Tm1XsEYdM7GSFarS/hzfsyVDlfnf6EScE/mQHQocTnTyq0eb/CjPVvKFz4MuZxnTnlZOQqqWyb9w1lry4A9L5Z6xec9g80flbR56lOrS1pVGvY3qPFJwSjWjn1A6irzj8y5ipVVVjGKTT5tTDQuratFtT5cbtrQuhUo1py8GXNyvV4Ct2K+7bB6UhtYpDqfwSVWvaV6suIUbeNtJ085lVb02zov0O49zj8P5nxGKzpGDZ1zGTWJ5DIgRlsxiDOALhFzkorqee+M+LPMeEW0sQjrXa79j1NrBQcebSb1R8949azs+MXFOq25S+8bfVM6SMWuclKUo06ceacmlFLqz6RwHhkeD8OjSaTrz81Wfr2OH8G8Hz/APqt1DTahF/1N340r3lDhtH7O3GnKpmpNb5WyNsPQxliSzt1PA/FfC3w3iDnTi3Qr+aOO/VHseE30OJ8Lo3cWsuOKiX4ZLfJj43Yx4twecKclKcV4lKUerXQDPwqdvLh1rUtMKi4LC7PqcXjVu7G6qcixRq+eD7PqjS+CeIulXq8LrPCm3Okn0fWJ6jilkr+wnS/vIeaHv2IR56E+elGXdDZgtpONJQnpKOjRm5itJmtDJSlmj6pmB87rTbn924rEezLoPzSi+q0PP5OO8Ho8bLWZVYKrRqQ6Sg0eUtrKtcy5IRaSesj1y0ZNOlGnHEIpex8/h5uksfQ5eKZ/WnSt1ZWdKhF5UXnJ6fgEuaFWn+ank4F2tEdn4dni6hHvBo+nxZXLHdfK5cZjlqMvFnzcBpPtNr+psXn8aiu1OK/c072XNwSvH8ly4pf/nubF/Lmuaig/wAEUmu50cndb03IdWnH5qkF7yR5J8IvKusq1d56Nsy0vhuVVfeOaf8AM2FeinxCzp/PdUl/mRrVOPcMp73cH7anG/sDwm/EjR5V3lqWuGcLUM1a9KEuqTyBuz+JOF95zfpAwv4itX/Ct68vpg1lHgVCWXdqTXRIzU+K8Ctk+RSlLvykD/tqrN4hYPHds5/H4XXE7CNCpS8Omp8+Ipts3X8TWEZZp2tRpE1fi+mv4dpp/MwPB17GVKTi6c8r+U15UHBI9pd/F03CS+z0FldVk8fe3irVJTjFRTecIqPQlJmCFxRm8RqJsyr3IixrKJ6j5l3KKyMjmWAUkBbHkFFtaIFFsgaZSY6dKUtjLG1l1kijENGZ2+F5pJDjQovevFf5gMKbGmZXC1h81zTXvNGOpcWEI63dL/UA0UaUuKcPpvW6i/bUqPHeExXmr5+gVtgakviThMPxzl7QNer8UcO/BCo/pgDplHBl8U2yb5bab92Q/iymvls/1kB6HIcyPNz+Lqj+S0gvdmCfxTdv5aNKP0A9ZzoXiR9Txs/iPiE9pRj7RMb45xOW1V/SIR7dTj6/oPnXZnhZcU4nL+/qL2I+18Sn/fVn9QPe8/p+5LqpdY/qeDf26pvUqfWQK2u5fil/qCvdO5prepTXvIxS4hbx3uKS/wAx4pcPuJby/cr+y6nWSA9fLi1pFa3VP9TDLjtlF63Ufojy/wDZj/OylwxY1kwPQ1PiCwaw6rkvSJrv4gsI7QqP6HKjwyn6mRcLpdgOg/ie1j8lGp+pL+K6f4baX1kai4bSj+BFqxpL8CAyS+KqjfktVj1bMcvie7b8tvTX0ZcbSC/Av0LVul+BfoNjWfxFxKXy04r/ACkPjfGJbSwvSKN9W7x8geA/yk2Oc+I8Zmv400T4nFp73NT/AFHUVCXYvwRscd0eIz+a4n/qF9gupfNWl+rO14LGqY2OIuF1H81SX6lLhCzrJna8MfhobVyI8Ip9Wy1wqit8nVVNFeGibNOZHhdBbRLVhQX92jo8iXQOWK6DZpoqzox2pr9DIqNNLSEf0NnlWfQpRTGw+HeSvypYUkdSzl4d9T7STic2kvDqRl2ZvSfJOM1+GSZqUdvOrAXVgyshsljZLAREpxi0nJJvYw1VcfbqDhJKgoy8RY3emDBc0pqvFJNwqN7fheCDcclzNdexjr14UIc81Jrq10NCXjxr1KkYyzKCWcbY/wDxm1Tp1alrONbHNN6J9EBnhONSEZw+WSyiLlc9pWiusJL9h0aTpUVTznCwjUjZVuSUPFaUo8uMgeY4XLwviiyl+bMf1TR7CS5oVId4yX7HiajdDi1hNbxqpP8AVHroxu5XPI1GMHLfqUeCl/Dh7EGWvHkly/lbj+5iQFJasyx3X+JGJGWOj9tQMlL5oZxpzSLpRWKCeNW5tEbR9VDH6mSTcedr8MVFALKVGrLCzUlhd0OcE6lKi3FKC5pP/ka/iQT+WlHmfuY3J8spt+ep/QCZy56kpYxl7LoJ4jjO3YrCNe4njQDZ4fQlxfi9KhLPhLWS7RR7atGKtZwhFRjCOIpdEeZ+Fa1raUbi4r1VCpNqMU+x158Z4e6c4faN1jYlHI4x/BhLtNo5XX1OlxGvRr20lSqKT5k0jnpZqR9WiNNWvTlGtCD/ABam7HCSSMd+sX9FfyItEoxVcc7RG72+jKq/xCddTSUdN39erBrKbwvVoSeNM49H0GktPL7YCDTOzXoVrhYll9X2FB4ksye+uS1HmUlhJIlCivNhNa7ns/gm28Ph9a5a1qzxH2R43ZJpdlofS+F2v2Phtvb41jBc3v1PJ5efXDTvx4+24DYEtnx7dPQT3PI/Gdx4lzTt0/LRjl/4metTUXlvCSyz5zxW8d1c1anSpUcvp0PV4eO8tscl1GkkEtikkJrOh9h5HY+GYZ4i5flpM9Pk8lwviEeHVpSnHKmsN9j09C4pXVJVKM1KL/VGMnXGsyHglMeTDZoqOEIEnkBSp9Y/oRqumDKm0PRrUoxaY1J1i/QudNpZiY1J4wwjh/EPDedSv7aOq/iwXX1R52SzrHVM98njpldU+p5rivBqlCc7i1hzW780o9YP/g3KxlHFg8PBlTRhbW62YJtm3Nn5tS4vBhjhItMIzKRnpzwaqZcZalHSpT0MNzcU6U4qbxzPQx06yjuzWukrqnruvlfYDpW1/Us5RdB+abammvLjudCl8Q8ulzbpvvBnm7Os5R8Ofzx/cu5hJwc4N5W6Jprb2Vjf0eIUpOj5ZLenLcm74da3CfiUkn3R4ijc1KNRVKc3GS6pnqeC8dheRnSu/LUgs8+N0StStG5+G6iblbz5l2OTWtru2lidOS+h7F8Ts18k6kn2hTbJldSuItR4dVqrvUxEm108bC4WcT37MzxlSmtZTT7Z0Oxd8InceaNlCD7eJ/4OXdcGvbdOXgSUfR5Lti4o8KlJ+en9URO2pRXNBx06N6mGM61J6xkvoZ6d7GUcShFvulqa2mmDw5dYNL2BRaN9XFSceVTjNdmjFJU3u3GX7BGuloloPtrnBUoKPVN+hjckuoGSLipfLlHY4VONSEnFJJPGhwvFitMnZ+Hmp29SS/7mArtVlikvUVbSnFepkulimvcmsvlT7kqxPCcfariT/DFROn1OR8PKThf1JdbmSXsjrGMm8Q2CYmBlpQ10JWRplSuc7m9fxrTUIuVBU8cvRR3ycO2oz+IviuUb2XJzyblH+WO0Ue3t3RpQnc1MLw4+ef8AKtT51V4klxqpxO0i4qNbxIx9DpGK+mqEKcI06cFGEFiMVskcD4x4pRtuGPh+FO4uEnj8izv+x3aVxG4so3dulNTpucF3eNj5rUo8Q4rO94lUpuXhP7yT6dML2NMiw4rdcPsru1t5JRucZfWL649z1HwJxCVW0q2NSWZ2z5oZ6xZ42FKq7f7SoS8Hn5OfGmT0nwTw2vO+fE8unQhGUI//AFGwMPxVYz4VxmnfWvljUl4lNrpJdDZ4n8XylWsJ2kWowcZ1l+ZveP7m38dX1vDh9OwliVzKSqL+RLqaPwjwP7RNcSuofcw/gwkvmfcEdLjtCFC4p3FNNU7hqWMbM0eY9Jxagrmxkpbw86fbB5VTyskVlUtRwly1Yv1MClmRaJlNzTeF1lttyj5mTKbisR37mN1XKKT6LojWnczXlo0asn3UT5k4dZPp3k3GW4xyLXVs6PDKvgVo1F+BHJi6jpwVWLjNvVPobkZ4Usdj6OE1HzOS7ydN+bhc1Led1l/oY5VZRo16mfNCOc+xN/UVO6o0YPMHFTfvgxSXjW9enzcqqJxz2N7Y05P/AKg4jcxXNdSintgxu9u5P/3dX/UbVH4et6UVzV6smvoZ48Js47qcn6sxa6TFzKtab+avOXvIw+Ik+svqd5WFpHagn6scrO35cKlGPsjPZerhcqkvlDyQ+aUV7s3Lrg1GrtOcfRSNanwWxjlXKrvtKMiyp1a9S6o0/wC+j9GaVzd0ZLyScn3N+p8N0ajf2O+h6RqrD/U0LngXEbVOUrd1IfmpvmRqWJY0JVG+pD1HJOLxKLi+zQvqac3UvLuxjV5rVtLskYY8TjF7zZhjYR6yZX2Gn3ZBs/21Bf3cn9QfHEvlov6s11Z0l0b+pX2Ol+UDJ/b1RbUYfVilx+4e1OCErWn+Uf2aHSKAP/UN8liLivoY5cb4hL+9x7RMit4/lRXgLHyoDVfFOIS/+IqL2E77iEt69X9TdjRX5SlR9AObKrezWJVajXrInw7l9ZfqddUfQFR9Cjju3ryeuX9SvsVV9jsKi87FKkQcdWFTq0UuHz7nW8L1KVNAclcO7yKXD492dXw0gVJAc1WFPrkasaX5TpqEVuhcq6IK0I2NNbxL+yU1+BG7hdhqJEaUbWP5EZFbpLSJuKI0gNRUH1RSoPsbWg8BWvGg+yMipGXCGl3AxKku4/CRk0KWAMPgruwVGHqZhr2AiFKn2ZlVKP5QWC00BDprHykKK7GdtGNsBcuQ5WCkLnwQVhrqS/qHiC5wowPAsthqEUkLHoGAANOw8gLqUPKHzE4GRTciXljQAEc41KyTqAFbpm6/PQT6uBpJm3byzb/4ZYLEdq2m6lvTn3ijJk0+GT/6Zw/JLBuGkJi6DEVEsTRTRjrtxoVGt1B4AITjOKlF6MGalx93YUcPEPLzY7dRU61K2tqfiVMKUuWOX+hBuDjrOPuaceI27jmcsNNp6FWd5GvdygotKOHGWNGgPEcQn/8AqVHD1hXf/wDZH0CWlz9UfNFUdXiFOe/NXz//ACPf3F64V6fJDmc9SjxHEYct9cx/LWn/AFNVG7xPnfELp1IOEpT5mn0zqaWGA1uZYrOnoYluZY6AZY7rtnP0Rae2e/MzCno/bA+ZvPZ6AXzJrHWby/QmT5pbEvcYDeEs9jQrScpY6s2q0sQwYLaHi3Kb2jqwNuFJQpxj2HyLsZAwQY+RdioR88fdFYCPzx90FjDf68UpL+SP9BrQL3/92pf4I/0LwQ21qvzEF1fmIKhr9ddmNLrqtdxdO4/21AeXh+ZabGdY8aonr5Ja+phWzzhmaLcq8pPrFhY3eAWn2zidvSksxhU55eyPo27PJ/BVqsXV211UIv8AqerR8nzM95aerCahshsqRDPn5Osc3j107Tg9aaeJT+7j9TwFRps9N8Y3Oa1vaJ6QjzyXqzyz1Z9fw+Prht5+W+1LQqGsm+iJ6ClLw7dy76HucETrRnNrJmtrmtbVFOhNxa/RnM2Zlp1WtGNG3suH8dpV8QuUqdTv0Z1nJPDTTT6o+fxlk6Nhxe4s3hy56f5WYsbmT2SY1LG5o2HEbe8j5J8svyvc2nLleO5h02zLD6iwQtVlDU2tyCtUKUYy337lJ5BpAYZU5R21RKbWVunun1M6ymDhGTzsyyleM45w9Wd1z0lijV1S/K+xy3oe+u7KF3RlRrLyvZ9meLvrOrZXEqFVarZ90dJXKxrxkZE8mHGC0zbDKgnUVOLlJ6EZ0JnHng4y6gZ48lei5czUlrEVKrzwzs+qNazuKlndRxjR9VkuvdVJX0qtZR+835VhAZalKUn4tH547pdTbtqsa0FOP1XZmvCq6NSNWD239UbFanCnUp3dt/CrPE4dmUJ8Kr3Vd/ZOXXVqTPQcD4dU4fQnGty+JN5bSzoculOVOcalN4lE9Ha1o3VBVY9tV2ZjJvFljzLZp+w+ZvRv9ScND30ZzdD5e4kn0YcrS8rFzNfMgMFezt62fEp6v8SOTefD8Zpyp4b7rRnfTz1Hyl2WPCVrG5t5PC5ku25NG78GqnWoxqxX4J7M9rd2sK8dsVFrFmo+F2V7T5508TWkku5qZMdXjri78WrKUYQpRb0jHZGtKqsntf8A05ZJ5UBS4LQgvJSi/dF7Q6vFKbe0Wen+GItWUk01mq3/AEM7so03hUl+hsWS5KqiljOXgb2lmm/erFGPuOtHzRb7Iq9j/wBNFlVllQfTlTKI4ZT8Kza6yqTk/wBTZzqTSwqUUh5MVqGwFkaI0YNmOrXp0vmevZHPr3U6ssLyx7dy6S10I3dLxHQqa0qqdOX1NOfwzQtPhq6pycXcRzVVR+myNVrmW5sfEdxcXXwtTnQk1FTUbhLfBuOdY/gTiTlSq8OqPWP3lHL3T3R3b2tZ8L4TdTqwUaM+bNNbzlI+c2d1Lh97b3lLejJN+q6n0Dj1iuNcESt5LM3GrSedDSCNhZcS+F6NrbpU7erCMotbpmS+vLb4f4RGSilGC5KNNfikZLG1t+CcGjSnVfg26cpzfVvc+fcd4rV4zeSr6xowTVGD/Cu/uBir/a+IO5vq0ZzzLE6mNIt7I998N3323gNvJQ5XS+6kl3RNjY2d38KUrS2eKNamm5dVLqzDxG8ocC4ZRsbKOKkliC6+smQiOM8SeXa0Zav55Lp6HF2ikuhKb5HJttvVv1IjPz77hrTNCMpJzw+RPDl6m1b0ZV5YivKupUZxhQhSx5Vrj1Nm1qZmlCOEebmzsuo9PDhLN1sULeFGOOXMu7MiWGsA2EdzUjNycmu/E4o892Y6VTmjUf8ANgdN8/EKkuykzUpy5Y651ep2nxwt9t+c+a7TbziBs2+sfqcyM8zlP6HTtf4a/UlWM7JwVgRzdEvYlltEtEVDMc1psZmiGtCDX+zwn80UzJC3cP4VWcPZmSMdTNBFg5d1wudZ80uWfujmXHBIP5qLi+8T1OB8q7ZLMqmpXieT1HyFYKwdHFHIkylAeCkgJUV2K5UugJajSAMLsL6FYKSQEKOehSWBpDSAWAwVjUeCKlJjSKSSGBOPQeOpWBoInHoIsS1yNieUFFlCUW+oByjSSGohgAQDxpgOVhSwNLAcoNNMIFIMsEh4CgM6jSBIBgmPAJBDyNMSwgTQBJk6l5QpbBUNhEeQWnQASXYeECQYedAGg6hh9R4x0AWo0hrYeAJwAAAAG4ANCH1FotwGGhOQ3AvBntPxx+pr9DNbvFZepR0uHPlrVYd8SR0Dk20uS9pS75izrdTUZoAGBUBMkmmns1goTQGrClmjK2qrMcYT7oidhbzjGLj8jzFm5gANT7Bba81POdfqZOWFKlUnFYVOnJ/sZsGrxOfh8Ivp9qMv6AeE+H6SrcbsabWU6mf01PdVKEZVYy2cJNo8Fwm5qWPEre7pxjJ0vwyejysf7nfq/El3LLX2Wl9cgT8VWNX7RTvaUHKnKCjU5ejXU857HYr8fu6sJQlfxxJYcadM47xHVc2OjaAyJJl8pijLG5akBWA6YFzIlzwBQ8mLnDmAx1576mexhyUeZ7yZqVU3VjDq2dVU+RKK2WhAsBgtRHygYsMcV95H3Rk5RJJTj/iX9QNe7/8A3ikv5I//ANTNy5T9DBdtR4zTb6Qj/wD1Mkq8Umk9WBqTeZEpD6gALX1KXTXqJew1tjOy6gNapaLcyQfK5y/lwY0tfZdDd4daO5v7e3WvizWfbdmcrqNYx7rgNr9j4Nb0msSkueXuzo9BYS0Wy0Qz4PLl2yteyT0TZK3y3otWDNDjVz9j4RcVE8SkuSPuznjj2ykW+o8Nxa7d7xG4r50lLT26GokHUZ+gwx646eTK7o30MN69Y010RswxnL2RoVp89aUumTbDG0PAwKgUmjPCqpaPRmBLMkl1eDpUI0o/d1KUeZdWBihOUJKUJOLXVM7XD+PTptU7tc8fzdTmzop/LoYZRcdJIzcWpk9zb1adxBToTUk+nYyP1PD211WtainRm4tHoLLj1G4ap3C8Op+bozFxdJk7CZaZiUtE90+qLw8ZRnTS9AwY846lqQDNPifDafEbfkl5asfkn2ZuZGWI+f3VrUta0qVaLjOP7+qMG2uHj0PccX4bHiVq1pGtBeSeP2Z5OhcOxdWnUo5q5xiS0R0lc8o1IyUlpsWjHBbt6NvJkNMKoKMLiE5rPKzXupQuatTwo8uHlIzPOPUmdHnmqsHiXVAKxqc33U91sb9JJQcemco1qVOMZc/LiRsQZRtQZt2V3K0r86+SWk0aEWZYslm1l09ZCcZwU44cWspg/c4NpxR2NCUZ0pVYrWKTxgifxXFfJZv/ADSOfV0mT0Kkl6jaUtjzD+K6/wCG0pL3Zil8UXz+WnRj7IaXtHqZR7ojEo7cx5SfxJxOX97Be0TXnxzics5upL2RNU7Papz/ACtmGzz9tu6fTMZr0yjxFTid/P5ruq/qSq9ZqTdWo5PGXzbl6p2fQnyx+acF7yRjlWt4/Nc0V/nR8+c2/mnJ/UhqPb9x1Ts99UveHRXnvKP0ZpwubW44hSVrWU8RfNg8b5fynS+HJKPF4paKUSyaLdvZ3SzZv0wDfNQpP+XBkrR5rOS9DFQxKxpyfRtGkXT/AIcfYomDXh5bSSNateqOY0lzPuzOmttqco0o5nLlRo1r2VSTjS8sO73ZrTnKpLmnJtiWg0m1PL1byyQb0y2a9a9p0tM5ZRscyjuzb4TXpXFxX4ZWadO7ptLPdI5NKleX7+7puMPzSWEdWw4XTtJwrTlz1oPKfYbNPH3NvOzuqtrWWJU5Na9Uey+B77x+H1eH1J4nbPmi3+Q1fjezhUp0OK01v5KuP2PNSVzYKNWcatBV6bw9ueLNMV2Pijjc+LXcLCxcpW0ZcqUd6sv+DjVLK6o3/wDZ7pP7U5KKgtT2HwhwL7FQjxG7gvtNRfdQa/hx7+51a1C0tL6vxWosVZU0pTf4Uu3qwSNSj4Xwx8PwhcVed01lr80n0R522dTiF5K7vH56nyx6RXRIi9u6vGb91amY0KbxTpvp6szQfI1joT61rTb+zLLjnRo4cvEjKSlpOLZ6RS5oxkupzuLWzpXKqKPlqx39SfGpNrs1KdGm6jy31O1CMYRiopLQ51rFKFLthHRyeTG9s69mU64TSgb5YTl2WScmK7qeHY1pd1g9EeWubw7zXNWctlBtmlq1HG71Nuz8trdT7x5Ua9GGXzPaKOjlVUtKUs7uR2LdYpr2OTRg6lWK6LU7NNYpolaxUIYYObZCayUAVDRLRbQsATFGWKEkWkQIY8AFeMx0HtgeQwdXAMaRSRWNCCcIMFKJWMgRyjwVjXcMbYAWBjwMCVkayNFKOgCQJMpIpLqFQDTKcdR4AjAYwVgOUCcDwPA0gJSyVj0GsIrDAhxedxpaFYDRAJYBvuHUMAGwdAwPAE9dBpMecdBgLAYxuDYboBYK0QlsAQ9ED1ENZwFLADaBIBDTDANAMaJSZWAABZDIDbFkBAGQ0wGcahnUB4EwyNgRllIAApDUsSi10ZOmgdNAN6o+WUZ/lkmdnc4v8Shr1jg6trN1LWlLduOpuM1mGJjRUAhgAiWUSwA53xDLk+Hb6XeMY/rJHROP8Wy5Ph2ovz1YR/3/ANgPOfDFhQ4hxSpSuoOVKFByxnGuUv8Ac9NDgPCoPMbRP/E8nI+CI5u7+f5aUY/v/wCD1GANeFlZ0l93aUY4/lC4tbe5oSo1qMHTfRLGDOxAeQ4h8NXFBuVnLxqfSL+ZHFqQq0JctanKD7NH0bYxVaVOssVacJrtJZA+eeJ6kuep7atwXh1VtytUn3i8Gs/h7huc+HUX+cDyPMJz0eHqevXAeHR/upP3kY7jhVjTs7h07eKlGlJp+uCDzldJXts+mIt/qdFtZNFU1ccQs6TbSnyptdNTavYrh9x4Naqpp6px3S9QL54ol1ktkY41rWS/jJe4OtbRX8WL9gG6sn0CLfj0c9ZouincUnVow5oJ8rk9NTWu6lSnVjGWEo+ZYAwcRn/+oTa/Ckv2MMXOUs4eAjLxbmUn1NhLCAgeBbDRAL9fYyJZIMsFpjqUJR021Z6f4NtvEvat3JeWlDkj7s86sLMnslg918MWjteCUnJYnWfiP/Y83lZ9cHbjnt1kDBbCZ8SvUTZ5b4zusSt7NPRLxJf7HqYrmkkfO+OXf23ilxWT8vNyx9loerw8O2e2OS6jQyAkVjJ9l5E1ZeHRb6vQ0HLBtXkvMoLoajKh8w1IgQRmg/PD/EjrV6arLEtJLZo40W9PRm/Sv3oqqz6oDbhzRik5Zx1HJc612FCpCoswkmXhga86LjqtUYsrOpuox1KMZ67Mis1hxW4svLzeJS6xkd6n8Q8OVNSnKak94qOcHk5wcDG2Tq12eun8ScOXywrSftgwv4pt18lpN+7PL5QZHU7PSS+K3+Czj/mkQ/iq6fy21FHnshqOp2duXxPxB5wqUfaJpVa8uKTm6uPtO6a05vQ0kpPaMv0HGFZyUqdOpzJ5TSLpN7J6Np6NboaZuXNCpXtldeE4VFpUj39TRT6lZZEWlh6ERZaYFxMiZiW5aZRng8GSLNeLMsZBGeL7nN4ha+DLxafySfmXY34y1KaU4uMlmL3RFcHnQc67jvraVtWa3g9Ys19wrN4i7i8VdzFgGgm2R1I53M0VmD0e/Y1MZaXdnYwlUUV0QGtStp1FmT5F0zuZfscetV/RGwAGD7FTx888mSwou1vqdVSykzIgbajldNQse5gue2fqjjOrKEXT1xk6vDKvi2VOXeByrqPLcTT6MjTHKrOaw5Pl7BkWNDBO5hB4WZS7Ig2DBWu6dFfMmy6Vje3WJSxQpv8ANudG14Xa2+JOHiVPzT1FrWnKpUL++/h01Tp/mlodO04Pb23mqrxqnVy2R0M6YEZ2uglhJJJJbJDEBNqzQhSuaFS0rxUqdTDw/QxcWXDK3EOF2t5jxlPNOK2SxomOLcZKS3Rz+LcGfEOPWd7Tm4RwnUaeqxtg1KxY9HVqcuW8LH6JHG8X7fWVWTzbwl5Iv8b/ADMzX9R3U/Ci2qafna/F6ExSjhJYS6IWrjHmlmVWvP8A+rL+pWcit387fWb/AKijJeJOOflZzwz3dO3Jx6x237KaacH9Dau6X2ixnTS80VlHMpT5Jpo69CouaL6S0Z2vuOGN1WvbR+Rdoo22yHT8O5wtuhTPFx42ZV7OTLeMGTS4tU5baEPzSyzcZxuM1XKuqcd4rH1Z6Y8tX8nC6a61JNipxxQk+rKvMeJSox2pxS+pc1y0lE2zpVlDzZx0OktFg1bSPLSTe7NjJmrIoZKY8mWgAAFIRWAwA0WkSikA2LAPcGFeOwNIBxRtwNItIcY6ZK9Aqcdh4wUlqPAEqIJYKwCASWdgcSllbaDSIJUTJyiQwBLADDRgLqGNB40GgJwGG2V1DIE4GgbE0UGNSl2ZL2BMCtBNrTuGoiB79ABJg0+xQ8oMiw/UMADANgwAAAiB5DIY0DBQxOWOoOOdmT4afUClLL3BS1EoJDx2AeoxIaAMhzLAgwAm0NMfKgSwyBAU0GMAQ0CRTi+hPKyhh1GkPKAkEUNICUi1p0EAG1QeaWOzOhwuWbeUPySZzLV6zj3WUb3DXy3NaD/FFSRqJXSGJDNMkxDABEsbABHB+NJY4Nbw/PcJ/omd5nmvjaX/AE/D4d5zl+yAXwTH/p+IVPzThH9MnozhfBkOXgtaf57h/skdwKGQy8SeyE4tb6e7IMbJew51KUPmq019TBO8tY71eb2QFMh7GGfEaCXkp1JfTBrz4k8+S3/1MDaZhul/0dx/9qf/APVmrPiNw9FGEfpk1q9zcVKNVTqaOEspL0IPP1akqVe2qReJRimmTClV4hdvleZSeXKT0Q60PFrW8F+JJI6aVGygqb8ueq6lGzQ4Zwy2S8WSqz652NXiltZxs51LemoyTX6E1L6nTWVBsz14qtY1MfihlBGDgdb/AKOtRfSfN+q/8GHiqxXg+8GTwSX/AFNSH5of0K4vL/qox7QA1LSnzSm+2DZcFh6EWcXG3UvzSNhLO4VqYEXgeEBKMsNkSo9iknkDYt6Lua1OhFa1JpH0mEFThGnH5YJRR4z4StvG4t4rWY0IN/VntEfM83P8eninraiWNks+bXaNLi919i4Rc108S5eWPu9D5w9keu+NbnlpW1nF/M3Ukv2X+55Hdn1/Dw1ht5+XL2exUe72WpONCa8uSg+8tD2uDUqT8Sbk+pAAyolgMQANMQAZITlB5i2mbdG/nHSa5kaSGB2KdxSqY5ZJPszI08HET1M0LipBYU212YV0ZLTVGFwp83maTZFO9i9Jr6o1ZyUqnNrnOgGe6g1OlGnvLJrQm29zNXqyi6M2tUma8dwjap6m7b4WHhGjS2N63XlXuBuQk1sZozedzCti47gZ4Tw+/ddzk8Rs/s8/Epr7qb0/lfY6aKajUhKnUWYS0YV59MyRY7q2la13Tl8r1hLujEnhhGdMaZEWVkDJFmWDMCZcZAbEWZEzXjIypgFzQjc0XTlv0ZwZ05UZuE1ho9Ama/ELb7RFTivvIr9QOMhPcrq11RL3AqjHmr01/MjqrWvU9EkaHDqbqX1NL1Z0KcW5VJY05sAMaDAYAaH0a9BDQV6P4eruVjGL3g8Gbi1PluYyS+ZHK+H6vLXq0m9JLKO9xCPiWsanWJFcSrGc5RhDTmeMnUtbGhaJOEFKp1m92VGlBqMktdzOZrUGW+oyRoy0YABFA0IAGWqjjScVu9n2IAqFFKKwhN4jJ9otlZMdZ8tCq+0GKs+vPW6+6z3eTU8Tw+L1qcnpNJo3rdfcR9jm8RtrifEI1aFNywlqeXiy1yV7uXHfG6L0N6xqqceR7rY5sZSwlJYljVGW3qeFWjLp1PbLt82yyu789NS/FHQkKNRNrtIJLDZiz9b3bEylyxcntFZPPwl9p4nGT2TcmdXilbwrVxT1noc7hlLFKpXe8niPsWI2YR5qrk98mRxc6y7IKWFky0lrnuEZ1okhiyMjcNPAJiGZFpjyQNFVQ0SikBQ1uJDyAdQwNCA8govJlhDqzIoIrGEacixgGikJgJJD0E/QaQCYIpRGogS0+g0ihqOQEkGAw0GHkAwPGEGB8qAnqPOGPAYAQDQNASPQGgwwHhBhAvUeNQFoLKKwshgBJoB4EUGRZ1HgOhAm0D7g9BZKHuAbAmAwAMgGEGAQALDFv7jAADKAWAKQyQyQMa0JyMCsgTkoAAQyhE9disDwAkiifYYDBbkplKTjLKAy0k41U3tsbdB+He0pd04s11UjOLxuuhlefLJbppmkrsrZAaavWksU9e7Zjne1/wAKhFfqVl0A5X2OPK+ry/vseyMU7ib+erJ+8gO28LecV7sxyr0I/NXgvbU4cqtPOsk/rkh3NNbfsgrtSv7ZbSlL2R5f4yuoV69nGCaVOnJ6+r/8G5K6XSLPP8eq+JeL+Wml/UDv/Dd5K34DShGMW5VJPzG9K/uGvmjH/DE4XC5OHDKEV2b/AHZnc5dybG/Uuq0vmuJL2eDBOafzzcveRrN53DKaenQm1ZXOkugvGj0RhDA2rI6jZL1JQ8jYNOhMl91V/wAEv6FYFL5Ki7wl/QRHBh/7uz94/wBTd4vtTl6tGjD/AN1aP+aP9Tq8QgqlPHVSyjSOXWy4L0N2lcctvTX8iX7GvKnzR5WZIQSil2A1+HS8PiVJd24lcSfNf1U3hJqOTBNujexkvwzTQXk/ErVJ9ZSbCNhVaMKaputLlhnHKg+022MYrSfudWVireEFUpQ2WrNepOl8sKUf0Cue5xesU0uiZSZnqUozjphPuazUoPDIMqMkVrl7GBSM0MzcYR+abUUvclvpZN17P4QtfB4XK4l81eeV7I7q2MNpQVrZ0aEdqcEjMfD58+2dezGahMSWWl6gzW4hcq04dcXD3hB493ojjjO2UjV9R4fj939r4vcVM5jF8kfZHNG228t6vUMH3+PHrjp48rujHQ17uWZqPSJsxeMt9EaM3mTfc6RhjAbEVCEMQAAgArIZJAB5BZbBIy0JRpz86+vYDLb2k5vmqeWBtqFCDz5dCHGdSOj06PJCtG35ppAFzWh9opPSUYp5RqRNitbxhWpwcsqSbyayA2qXym/b/Kjn0X5ToW/yoDciVHciBaKMiGmSiopsBV6MLuh4NTR/hl2ZwqlOdKpKnUWJxeH6naq3FKhrUqRXp1NKvXt+JtQpPlrwXlb/ABLsQacWWmYdU8NYa0afQuLAy5GmQmUmBki9TLGRgTLiwjYUjesoWdWjcO6rKnKEcx9X6HNizJF90n7lVzr23aUa8VpJeZLozRZ6iNNSoShJaSWqPOXNF0LiVN9NgNng+FeSm9oU2zrWcUrWLa1m3J/VnI4WsyrRW8kkd1JRSS2SwIMc7dSWY6M15wlB4kjeDCejRRzhm1Utk3mGnoa84Sg9URV2dV0LynU/DnU9nRSrUZ0+kloeGnLEM9mes4TcOVCm3pKHlZFK2bUXTl80HhmwmY7qPg3/ADJYjUWSovXDM1qLclGLbWcBCalusPsGE1gia5d3p3ObcZGCEpZSXUYBkAGAhiAqGYbyXLZV3/I0ZcinCNSDpz+WSwyLPVcOil4UV6Fm5LhVNL7qtKL9TFLh11BZjOE/Q8mXDlvcfQx58daadeO0+25gb7G9OhdKLUqGU10Zz09XFpqUXhpno4pZNV4+ezK7jp2VVzo4z5onQ5vEhGS67nEsK3hXOXs1g3bi+jb28o0/NN7eh2cHO4tWlcXXhU9cPkjjubipqhRhRjtFGlwynz3EqstVT1b9Wb0nzSbIHskurM9JGCKzLPY26ccIlUxiaB6EagKTwiBkVWRokaApDTENFFIpEIrIFZDdk5GnqB5xA8oEnsGMmnIBqNRK5QEl3GkNIagAsFYyPAsagLA0PAYAWBYK0DqAsDwGBsAwGAGmAuUMLqPUTYByoeAyg0AWwYG9VoIKTxkMDYwicdwZQm0BOBMeSeumwCF1KwBVIMoeAS7BAmDE1qPqABnQWBpMAyGvcBpdwEHQrCAgQhvcAJwykhpDxgqlsNBgMYIgAMjKEDQw6ECwGBg9yhNbYQ8Bt0DcDn3M6lG8VSm2npp0aO1Z143FFYWJR+ZdjicX8ihNdVgijeytakKy+V/Mu6NRK9KGE00+ooyjOEZReYyWU/QZWXLuYSt6nK2+WXyswP3Ovc0FdUHT2ktYvszhedTlCSxKLw0SrGVaBkhZK3IpM4nFpc19V9El+x3MZwee4jLmvLh/zYEHetFy2dBdqaMoorEILtFFEqxOAwZMBoRWPlYcrL0AohR9BqOBhqETgT+Wf+B/0KaZPL5Zf4X/AEER5+H/ALi094/1OzcLPN7nGj/HtfeP9TuVY5lL3KNFr0Fymy6SJ5MPYDmXsP8AqIvujC4udaEfzSSN3iENaUvdGrQWb2l6Sz+hUdGqqnM6VSpJ9NzHjkkk3oZ75qFzGp0ayaU5zllt9SjZaIklJYaKUswT9BPUzVYJUWvleTrfDNq7njNFSWY0V4jNCKzk9V8HWvJa1rtrWpLlj7I482XXCunHPb0aeWDBAz4Vu/b1JZ534yueS1oWkXh1Hzy9lseiS5mkup4L4ivPtfGa8k8wp/dx+h6PEw7Z7/4xyXUcrOpRKKPtx5Kx3EuSk/5jScsme8nzVeVbJGqaZNsWSo05TeIxbfoHI+blaw84AgDNOl4c5QlunhiUUBjwbdKwqSSlJqKZrtbr0OrGWYx9kBhhZUkvMm37maFCmlpCC+gnNp9MFcykngByoUZLzQWPRGldW0Kb5qbzHt1RuJvGHqDjHVycUmBp2dbkl4ctYvb0NvKOZPySyujN9V6eFo3oBiuszr00t+VmnE2LitmtGUVjEcGCKAz0tjoW+kEc+nsdG3+VAbUC0Y4lOap051H+FZKFXuaVtHM3l9Io5VzxS4qrlhinH03MNSo6spVJvLkYsAS3KbzJtvu2CzBqUW1JapoeBEHSbV9Q8eP8eC+8j+ZdzXizXo1p29WNWm8SX7m/XjCrBXNusU5fNH8rAmLKTMMWZMgZMjT1McZZ2Mi3AyxZt0ILRyMFGCynLbsbcNSjKc/i1r4tHxYrzw7djoIW+U9U90ByeBU8yrT7YR1jVtqCs6laOcRnJOLNrDAEMQyhofKpLDQAhRrVbZSurSnH+8rR09E8m5wq+p1r+5VPKpym1FMxWi8bj1CP4benKb93oU+DRsY17qnWlKXNzKGNl1MVqO/cr7RaKS+amYoVFOmn+Jbk2FzGrTjLOedapdzLG0qxqS80IUn+KXT6GbY1pcMtDeGsMcPssW1KvUnhZfLHQ50fiHgkpYdW4g/WJyuW/jcbilhpY1RlWqNene8LuH91f003sprBt06EpRzTqU6i7xlkTJUiLlTqReJU5L6EZ76GtxALI9BAAsgADyS2AgDLORxmg4VoXUfll5Z+51zDd01XtKtOX5W16FiOHGOuTDcz0Uepli8Uk5b4MVBePdRf4UysujaQ8C0UfxT1kZNkJvLBLmkFZqMctG1gx0oYjkyEUYE0UIjScYBIrAmiBFLYWNRoopDQgAoYgAeQTFkaA4CQ0ihpGnNOPQaYxpLD0ASKQJBgAEVjIBEpZWo8DwGoUsBjAxMBiQnqIIrICaDGAqsoXqLDHj1CDKHzIWA5Qo5kGgcoOIBkA2E2whsloE2DAnl1KxhDwPHqVUgUohgCdB+w3EMATgfKPlHggnlHyj1GgJSwLBTFqAkhYLwxqIGPlDDMvLkajgoxpDwZeUXKBjwGC2g5QMXLqPBk5RcoE4Ey+UlxZAgHysWGAZFkHHqPQIwXdKNeg6cnjs+xzlYKMcOq5LsdWeqZryjuXYzcIm7en9mnJuK1g2dU4Mqvh14RcXqs5NmXGo0lyyt5yx1TNbTTqGlxKnS54VIySqvRx7ruc+440+VONKUYPd52M1KFN4qxfNzL5m8g0OXIuT0NjCEzIxRh5kvU8xXj4l9NfnqtfuetitU+x5S2+8vqPrWT/csHo2sSx2DqZnHV+4uTsRYiKY+VmSMNS+UisHKHKZnH0DlAxcqDlRk5QwBj5ROPlkv5X/Qy4E1pL/CyxK8pT/j2v+KP9T0k4eeXuebp/wDuLb/FH+p6ma88vcqNWVMhxfY2WhcpFcviSxQi/wCY0+HU+e7k/wAsWzd4y+WNKPdtnPsbhW9SpKWzRpG7fqb5WouWFjQ0/v5PHhSwdOhc0rlNU5aroy8MUaEKVTGqa9zOqUkbKQJEVrqm1n9j3/DLZWfDLegt4wTfuzx9pSVW9t6b2nViv3PdPf2Pn+Zl609HHP0+hDKySz5ddo1724+yWNxcdYQePfofNpyzq93qz2Pxhc+HY0rVPzVZcz9keNe59XwsNYbeflprRA5KMJSfRAyZ4eIvZn0HnVxC0o21nbzjObrTipVM7JvO37Gvcxo/aYK3XkcYvV51wVdznOjGEnlR2MCjCm6c4z5m/mWNio6dlNxio41b3waN/HkvqyXSSZsU76NNLH9DUuqvj15VO+AHVfNVm+7MYZABG8qnkjiD27miQ2+7/UDflVl15Evch18f3i+hpBgDZlcJ9ZMh149ImLCDCAty5kxeLJLCBbE6ANzbepdPXUx6DjLCA2oLLwdOlHEUmcilUbkdiElJIDKlgw8Qly8PqfzNIzweXoa3F3izprq6mSjkvsIqW5ICYYH0AgnBmtLh21TLXNTlpOL6ox4FgDer0fCalB81KesJehn4Xc0ra8hOvT8Skvmjg1bK4jBeBcfwJbP8j7mapbSpVuV4w9U+jQGW6nSr3tWrb0vDpyekS6VPGrFSjGGq1Znj5mA4RyzZjHCIhDBkk1TpynJaRWQCpUhSg5VGkkYKF7RqS5ZeV50b6nNnXd3N1anyL5YmKTcnsB6J04yjyyWUzRrRuLNudPNWj1XVGTh9149Hkk/PBfqbLbWxRr0LyjXjo8S6pmdGtXoU5ZnToQ8TvnCMVDiUqcvDqUUmgN8G0sNtEwvreT89Now1bijzeXMoPfO6KL4ZdULe6u7mtJrmxGKS1aN7+2Iy+S354v8AM8ZOBWmoTai8royYXMorGTNi707lPilW1pcttQt7ddMas1pcZr1HipcNLryo5k67kincXFxbwtpTgqcNUlFJv6mesa7OhG8q1ZSp05Vqil0S1aNZ2trPKlScWt1nUw0as6NRShUlCS0zF4eDZptN8z1b6sTGJbWhcWbptyovK/KzHRualCaXNOk/RtHZi4t8sVzS7JZZvL4bu7+H3kY0IY0nPf8AQmXWfWpto23GeIwScLyTx0lqb1P4nuorlrUaFbvhYZv2Pwpwy1SdxUqXM1vrhfodmhb2lCOKFrSgv8J58uXCOsxrgQ+I7CWFXtatJ946m1S4jwuul4d8oPtUWDtOFJ70KT/yIw1LGyqv7yzov/KY/rF61qRpxqL7m4oVPSM1kUqc4fNHBdTgXC6jy7RRfeEmiqPCLWi8wnXS7Oo2kWcsTrWBktm/9gpPapP6nNqN0a0qVTdPc6Y5zJLNHlGvfVfCtpYfmloZpyhTg5zeIo4fELt1JZ+kUjpGbWtUcq1VUKe73Ny3pRpvy9FhE21v9mp81Rff1P2RsxSjEqG3gz0abbRipR5nl7I3ILlRFX7CBDIoBAAD0DA0HUAwGAAKBhgAAAAAKWxJaA4uELDGBpzLA0ha51HkBjSyyU8syZilvqA1FYFJLoDlpoS8lADWA1DUBYExj5SCeXUEtS0PCXQIjlGlqUAUmhJFAELlQPHYeB4yFL2DlyUthPcCeQOVFYDBRDihKJkYiInAsFCz2AeMISWoPJUYthS6g0i+QOX1KISHgrlGoEEYDGFqZOVByp7oDEkpLKHyIuSx8q0JUsPYBqIcpaaeuBYKEkPlKQ8EE4DBeAwBjaGol4Aox8uAKwLAENYJ16YMrjkXKBjwPBTigSAjBLpp6mTYGBrzjgwSWGbkllGtNYewE0VF3OZLPLDKTMlelSuISi4pSxphGvJyhJTistbruh/a6C150nvgqOVKPhudOWzN3g9Rxt50ZaqEtPqc66uIzrNw3b2N+xpShTbe8nlgdJSTHoYoRk+5mjCXYgJvlpTl2hJ/seY4THn4lbL1b/Y9PVg3bVl/JL+h5zgazxe3X8r/AKMsHpcZHgaiPBCJwPAYwLOEFMTZLkJtsCm0LJIMClgSeXj0IbCO/wBBEeVpfx7b/HH+p6uXzy9zylL+Nbf44/1PVT/iS9y1BgmS0Bjxkyri8clm5pw6Rp/1Zyn8pvcXl/19b+XCX6GxR4Uq9lRk5crksmojn2Dkr2m47J6+x2nOJhocOjbZw+ZvqzZVBdxRCeWWlqWqUUUoozVjNw2LfFbL/wC7/seyzq/c8XCt9lqU68Vl05c2D09jxayvqalTrxhN7wm8NHz/AC8cr7j0cdmm7kW7S7jaaXM9UuqObT41RnTuZckoujTc8v0PDjx5ZXTr2jy3xNdfauMVcPMaK8OP+5x0OdR1Jym95Nthg+5x49cZHjzu6E9cGGtXUJtKOWjM3hZNSVGtObapy1OrCalaU0lhJGNsyTt6sFzSjhGLdr3KFkpbGb7PjdkygorQImLGSg1AbIbK1FygSGpXKx8noBGoF8j7DVNvoAo7MnBk5cImKy2BBWBtLI2Bmt4RjlvEs9Ox0IRbp89N80evdHPt3HEk3r0M9GpUoy5ofp3A6lmuZts1uO+WNvHvlm1ZV6dR6rkm+nc0/iB/9XRh+Wnn9WBywYAygAQyBoBDTAOU3bW6i4RoXD2/hzfT0Zpobw1sB0nzQeJL29S4z9TTtrnliqVfzU+j6xM0pRT0kmns8gdCjU0w2btPllHDw0+hxadTDWHk37av0k9QNS/4XOlKVW1XNB7w7exhsFZSrxV+6safVw3R3oT0MVaxoXMuaUcS7oDkW1LF45W7k6am1FvdxOzyqU+XOCXRpWVPMNZy0WSYN05NyeZvV+gG47K2jDMq8nLsjQuaFtPy9e63MdasnLfJiVecXmOEUYnQ8N4jJteqMcuqOhdcSr3NChSlSpR8J5corWRhlbVq1GVaFvJwgsyktkBzppmP9DNNd+pj67IgEtA5nFrG/QMkTl54+iAyym1vudb4e4TX4vVc3N0rWD80+svRHDk+aL7vQ+mWVGFhwyjbw0jTp5k11eMs4c3J1np1wx2q2tbXh8OW0oJd5y1b+pknOc355M8HxDjFzf3UpqrOnRzinGLxhHpvhu6q3XCIzryc5Qm4qT6o8fLhnMe1rvjrenU9i4ywyBnldWxGWR5MEZYZkTyblZsXlCMUrm3jLllXpp9uZESu7eK5nXhhdmb1ajZTOTxpRhVp1HJZksOJNzxp4cLSHNL88tkcevXak515upUfc9HFhZ7Yzqby4biufZbRNezilXVxVhzY2TCMJVZ+JV26I2Irmax8qPVHFes5upN5chpczwthZzojatqGnNLSPT1AulDCWmhlGLBFLI0xDCnkaJHkCkMlMoAGxIAGAhhTBoEACMkNZIgmvU8K2q1Oqjp7gjkbjFyspRZpzJg8Fcr7C0XQBIFvkNcjwyhZaGgQmBWRc2OgtROOdiCudB4mehKj+ZjUdQG5PsN1JSwnsgGkAk2HUaGggyh6CxkaQU9Ow8oEsg4lCAGicsCgeOoh4yQJoORsrBQGNRwPkLxqBRDj2HEfKPlyAbhgpAQLGAGIAABgLoLlS6DYFCx2KwEUUogSkVgMYHlYIDABkCoWAe2ADGQpCZWBPBBIDYgJaDA8gyiXsQ2W0ToQSyJQyZkgwUarh6GKVpTm/NBNm84JoORAaEbGjB5VKKNmnTjH8KMvKgS1AqMF0RQLYYAoqScX+JNHjuFy8Hi1s3uqnK/6HsOblab6HjbqMqV9KpTWcVXOP65LEewlpJrsyWzgrj9SL+8oxfqjrW1xC6oRrU3mL3z0ZBmciXqPQCKQAGAF1JKwGhROMhHdDCHzCJXk6f8AFtv8a/qerkvPL3PKQ/i0P/uL+p6ufzz9y1EsI7rsAnLlhKXZNmVeYvp+JXrS/NNnpKb5KNKn+SCR5mlHxK9GP5pr+p6aSbnLHQ0gxkFE161/RoNxX3kl0RqVOJ3E9IQjTj+rIOqoPohOD7HHlXuJ71p/RkedvzTk/eRdG2/xGp4VtJ51ehyYVFhavJdzPmjCGdm8mLI1DbpWvG7+za8K5lyr8LeUZL3j11e20qDhSpRm/O6ccOXucgaeGZ/nj9kXtWRDzoQpFRaeNeqNpts29HP3k+nymWWWzM+WKUc6ehjeCDUuoN28sLVHN5vu4xS1TydtyiljGTBLlzpCK9kVGpqzHOLS1RuSWTBW0gwNelTc846GbwV1Fa7zXsZ8FGJU4roPkXYy4DBBhUV2DlM3L6C5fQDDysfIZuUTQ2ME4+Uw01mrjubc4+R+xrU/48Ci3QzsyXbz6NG1GJaS6gYaFuoat5bNjwlgEhVOZ0mo7sBU5Rm/K9UYL6rOrc5m8uMVEmMmn2aIqvmqSk92EQAAACAGgGgAaANhpiWwwHubvDLSneVZ0pZ0g5LBoo6/w0k+JOL/ABU5IlI5nnp5jnVM2ba6y8T36Mi6Wbmr6TaMMdxFd63unonsb1OqmjzlOq6cuWT9jp29bmWMlCu67qXaw/lWhdSTp0uVayerZpxl/wBU3LubM5KWWBgeXqLYoaeOmQiMpmWnd3FGhUoQrSjRq/NFdTFJLmyhwUPEj4rahnVrogNW5klhdmYs52NvjMLOneqFjVnUpcqzKW+TSyuwFMxvWQNiim3tl9gB5Ufqj6Za1Y3FnCWcxnDDx6o+bzpyhLlnHlfZm7Y8XvuHR5bequX8sllHn5uO5z068dmP1038J3arcka1NUM5U86pex6eytqVjaU7aj8kFu+r6s8vT+ML2OlW0o1PVaG1T+LqL/j2c4/4GcOTHlymq7Y5Y/XpQbwst4R5uv8AGFpGH/TW9Scv59EaNT4hp3UX9pdWOfwR2OWPj5361eSPRXvHuH2WYup4tX8kNTmLitzxKT5v+nodIxer+p5unKk6jeqWTpW99SpJJKTR6ceDHGOd5HVha2tPDjbxlLrKWrCSgllpRSNSPEalaSjRpfVsJwk1m5qYz+FG9M7XVuF8tNZfcwqHm5p6yYcySxBaDS6yNRlaXNvsXnOkQp051Ximn79joW1pGkuaWrKsRa2v46iwuiNtrI+dMCKhk4MhONQE0IYYAQAADQ0JDQDTGJDABiGFAxAAzU4lLFGlS6zll+yNtavBoXD+0cTcY6xpJQXvuwRr57DywE2bc1Nkya6CzlBuyB6seGJZHnsUGNBYG2+oICkkGEgRXKQSkDKwGMgRgeMF4HnHQDGkxpFatj5IvGVkASHgei9hdQDCQABQsaglgeoALCDQmcmnosii5PdYIKyCbY+UaiwACsAAIATDoAxAUBO4mtSnpsAEjH0ABD0ENIAKWwhgGAGhgQN7DJYEsAbFkBt4FkBAAsjEAn7jyITAGyVuUGAEGcC9gAeR5JDJRQuonsJNkF5FliAIU8yhNLdxePc85CuovllFKaWGmtT0hzeI2dK5qczjiS/Et2Uean80vc7vAZunZS5tpTyYKnCI1KnNz4XbB07agoRUIrEUUbPOnsGcjVMrkRFSMfKgwBLJMmCXBARguC8yDlwVBedCDx8f41L0qL+p6ya88vc8m9K0PSp/ueul/El7lrLHjBgvZcljXn/I0bLNHi8uXhk1+aaj/wDn6EhXG4fFS4jQT2i8v9DfurudXmhRzGGdZdWc+1TVWUorXGDq3P2G24PTnFVPtsZ4mpPRr0NxHPjT6yfJHv1ZtUfsEYpuzr3EurdTlRzuaU26tV6L5US72olyxxj2A3q11awk/wD9NS9HVZijf2jkovh8YpvDam9DBK6nWjFTox0/EluYuTEspP8AQIubXO8bZJ5glJLuY3JAZ5cqhCSqRk5LLS3j7iTMCaKjMDOTPKwluxwaZs0qcHOPPuyVWxGopJP0CUs7GaNKC2Q+SK2RFaufQnU2ZRiuhHKBhwYq8Pu5PsbfL6GCtUpulUgpLmYGrZRzVqL+X/c3OTTYwcOh97Vl05cG5ylGLkFyGbANAYeUXKZsaiwQYuVC5cmXlDlAwOGj06Gj8tSL7M6qisrJy6yxKS7SwUdBrVhoPfD7rItghor6iTBtLqkBNSgqiyliXc50nqdF14Rz5k3g5z3KhAAAA0IAGMWAW4DAAAaOnwCqqPGbZt4Tlyv6nMKjJwkpRbjKLymujJRv8Sp+FxW8pyWGqrwjTaN284lHiCVStbxjc4XNVi/m+hqqCbSlOMc9WVUy+VGxbVnGSy9iLqjK3qypScZNYeYvRmGMuWeegHQpzjGtzzhzp7xNy7q2lWrB2VvKjFQxNN5yzlqaeMHStLO5u45t6fiYWqTCMK3FLQvGY5ax39CJALOgMnOCZz5Ytga1xJOtjojC5Dm8tvuYpPUCufMsGWGYTUo7p5RggvMmzv2Pw7xG8oQrQjTpU5bOo8ZRnLKT61JtzKtSpWqOc8Z9Ohj5X2PSx+D7v8d7QivRNmaPwhSS+84jLm/lhoc/7YRucdeTw11JqPlpvuzscT4DecP8/wDHo/nhuvdHHq6pI3MpfjNxsa6k0y4yzuPwG+hlp223MaZVTUm0opts6NCzSfNcyaivwx3ZioSlbVFUpxTkujMjv5ubcrSD/wA7RmtyNxVUko0KEaaWz6hq3mcss04X9apVhRpW9Lnm1FLOT1tK0o0UsQjzY1eOplXFpW9Wq14dJ+7N+jw3ladeWf5UdDONsfQW+pNrpHIow5YJJBU0p6GQTSxh9Q1GJZ8oc3LJlcvKsrX0JivOnJbsgpySScmlkS116EVJKU5eTOOoU54pc3roBkDAoSctGsMoqIwBQsAIaAQFIBIYD6AmLoGQGMSAKtYinN7RWTR4NSdW4VR/ik5sy8QqcllKK+ao1BG3wejyUHPvogOK2NLO4+XQG8I05pwPBS2yDwBBS0HgeEBPKGwxYApMpakL0KQFJagsInI8gMNBbl4XTQBLDKa7BhBoBPLjd5GsD3E8IAwAJ5BgJtt7BjO48DwBOA5Sn5Vl7C5k1lAP6BnQMiy+xQNiTAaTIEUgSRSSAkY8JMXUABBgAEMOowBDwC2AAwGAAAGIAGSyiWBD1FsXgloAyIeBMAeogyIAYga1DABkTY8A0UJCGgwQIB4DBQmAwwAkPADIJ6GGpHLM7RMlkDX5PQyQWB49CkkgGMBhU4DGowCEIeAwAhx+ePuJoa0kn6lHjqr5a3+Go/6nrqi+8kzynEoeHeXMO1Rv9z1KnzQhP80U/wBioXuczj0sWdCPebf6L/ydNnJ4/wDwbf0lL/YkStGM1bRT/FujHRoTvK+a1aNKLespvY37y0dClSrVo+eaXJB9F3ZqqOXmWvubZdB0+D0UklXvZpbryQ/Vkq6t6dROlw2gl2nVzn9jVi4rTGTJGKeyS+gG2+LQSxHhlmv80mRLisn/APBWC94yf+5ryzCLaxp6GK2tat7UajPHV6bAbL4m/wD5Ph3/APyl/wAmOd3SkvPYWrT38NuL/wBxVLChSnyzu3zelM16lvGOXCqpe6wBUqFhXfklO2m/+5rH9UYbvh9xZpSqQ5qUvlqReYv6k4nE6HDOKVbJSpuEK1tL56E9Yv27MDnW+G2+xk8RvXtqjsX/AAihUs5cS4O3O3/vqD+ej/yjiLV6bMlV2KMuehCfdDZj4d5uHw9JNGZrXYisbWRYLwJogw1Xim1nHNoaFWjhcyZ0a1LxIYTxLdM0fDrczhODTSevRlitWFWVOpGUXjD19TsSay8M4tOEqk1FL3OklIIzcw0zHGLwUoNEFBgpR0KUEUYugYMvIHKBj5dUzmXsOWvUX1Ou4nN4ksXfvDIGejrb05fykTqxTxFOT9CLSE69vGOcQi2jZVKMPlRUYEqsu0ENUI580nJmbAYAx1IwjRm1FaI5zOjcaW1R+39TnMpQAAEIAGAAAANAIYAMQAUngbksLOpKFIC1OPcXMm9GYWCA26MlNtLoblvdVbd81GrKLxjMWaNm8QqPsLLjTk0+gHWteS5nGnKr4XM/mkO+oqzvaluq8Kyhjzw2Zw1VqYxzsfjVMY52B0alWEF5pLJ3vhu2oXHDZ1rmlGfiVGlzdEjxy1y28s97wGl4fArSL3knN/Vmcq1jHl+L8OnYXcopN0JPMJf7HOcD6JcW9O4puFSKlF9GcWv8N0JSbpV50fRxyjHfX1u4PM048koyayk02e04jO64lStqnD8yt5U0vL+GXqc6Hw0868Qjj0hqdjhVjR4XGUaV1Uq8+sk1hHHlzlm43hjp06UXClCM3zSjFJvu+pTMTrLpFsTrN7RPn6yt29EsjQ43xSpw6nTjSjmdVPl8uV7Y+pr3Xw9bcTtqVfl+y3UoJy5V5W/Y6sm545oReNsrOCueb3Z6sLlJ6jnlqvGVuCX9rPw5286mNpU1lMzUOA8Sqvy2corvN4PYKtUitAdapLeR3mWbn1jgUvhSu45urynS9Ka5mP8A9L2Sfnuq812SSO23nd5JLOx6aFpwawsaqq29ObqpYUpyzg3WULBtE7ik8Rb7IeME1dEvUDHCU0k38rMpDUsqBWcPBFAYWSaknGGVu2UBinCScnF6PcFHFOMGZOopRUtGBNPWbzutC2KEFBeUYKAAeConADDACAeAwABjUMYHgKSGA46tejA0b6XPe0aKXyR5n9TuW0PCtoQ7I4livtd/Vq9JTwvZHoNAleW3GNYQjTAHjQWw1JALDFnA2yWBWWGpKeo9QKTDItydQq1goiLwWtQhxL6EadGGQKbDqTzY6i587AZOZIWcvUncaT6gNPXQpIFFbjbUVltJerKDAM1a3ErOj89eLfaOrNKrx+nH+BQlP1logbdfDDlZ5yrxq+qaQ5Ka9Fk1J3F1Wf3tzUa9HgaTb1U6lKn89WEfdmrV4xYUdHWUn/LqeadOG8tfdh4dPOcIuk29B/b9m/ljWftAl8eofhoVWcOKlJ4hBv0SDL2eUxo27T4/DGlrUf1RL+IYxWXaTx/iRx8k6DRt2F8SRn8lrN+7Nihx22m0q0ZUX66o4GnRY9hZk35ksDRt66ld0K6+6rQn7MzYeMniZKEPMsxa6rQ3bLjN1Q0b8an2k9UTRt6keDU4fxCjfwfInCpD54S6G4TTRAPcEgpMMorl+ocq6sIQisCQCBorQAIwSy2SBLBjEwJ6hgMZHsAmhFNCxqAhFCwULADwACGGAwQAsDwPBRPQRWAwBImmZOUTiQYkUiuQMATgeCkh8oEYBlYDAEAZOUTiBjBovlBRA8txuOeI15LZtf0NqhxeNO1pRq0ZNxgllMxzhTum5VG88zZp8QUYVoRhouXU0y9Bb3FO5oqrSej77oyxt6VW4p3Nyk7e0zUkn+J9F+pxeD3HgWdXMc5nlfob3FLia4HY0XiM7purNL8q2A0ry7qcRup3FTZvyrsjA9/QcVhY6Ck9TTIjoZUzFBTqS5adOc32jHJbhWhpK2rr3gwCq8xcc7mJZisKbS7JsuSrS2tqv+kUaFzN+W2qP6ATmK/E3+pMk9Xkyu3uIaztqkfdGGpJdnn1Ax5a0ZnlauVHxqTzjdE0afiVIxxnJnnCdrLCegBwjitbhl5GvT80NqlN7Tj1TOlxLhNlTr/bIXDo2NzTdSjhZ835TgTf3me52+DNcQ4Td8JqvMoLx6D6prdfoSqnhsGuH01jGrZscmhVJKNOMY7JFaGa0wOKT1E0uhmcSHAKxYE46mVxw8ITXoBg8KKeVFJhyehlcX2Eo9wI5chymTl7C5WBKQIvlewcqQEg9E23oU0uVvZLqasua7nyw8tJbvuVBK4lOXJbxy+sn0NO+pOHJKUuZyym2daFGEI8sEaXFYctCk/58fsETwvW1qLtP/Y2uQ1eD6xuV2cX/U3uUowSj6EtGw4mKcWmBq3mls13kjn5N69f3cV6miwlAhiKgGIAHsAAAwAAAAAB9iZF9DHPcCWVTpzqPlgm5PLwvRZJDmcWnFtNAZaHMqcn0ejKqLlpP1wZqCVWhyU8cz6DqWddU/NFY30YNNApG1HhtzNZUUl6yD7JClLFeql/h1CyNbo8H0m3p+Da0KX5KcV+x4a1lb/aqNKjTy5zjHml6s97L52uiMZOkmgNrIkV0MaaJRjnVIrC7EZKyTrF2roAsgi6iGAIAAABgIYAAhMoWAJYmsrUtoQESi3UUvQlfK87mTBMophWOWsYr6hCbaaa2HUTWvTBDyoMgyASly49RZbqLXCQFgJc3PLPy9CgENCGkVAxgCAeBYGgAWASKwIKWDFdVfAtK1brGLS9+hmaNLicuZW9uvxy5peyCNrgVv4dvFvdRwdUw2VPw7WPd6mYo8uxZFrgEisBt5EPA+gCyC31HjI+UBPHQrDaBLA9QJSwNND6hgKltdio6hyjSa6kC5cbA8orDEogTht6lJJFJNGK5vLa0Wa80m9ktypWWOpNa5oW0HKtUjFdjhXXH3Uk4W0XBPaTWpzaknOblUlKcn1kyyM2u1ccfTzG1pZX5paHKuK9e5bderKWeiehhcmTnua0lpwpwg8rOfctzXcxibLpNr8RZNiglOcVPPLnXBppZZ07ClHMXN8qb1ZR6Ks+B21rSq07B1nPGk1hvucmcaVxeSlSoRpU5yyoLXlRs3EqdxcYT+4pRwvUUaP2SKqyksyjlLsBjq14UK9WcYx8kOWOEcJycpOUnq9Tcu5vkwnu9TSIqgJzoDYRWRrUgeQBvuCMb8SU0orPolqZcRoufjtwajpHGW2RXW+HVz3VzU/LFR9z0CxhHF+GHSlZVOSWarlma7HZMNwIYg1CnlgGQCGPABuAEsrAsAQxFNCwQLAuUoChYFgpiwBOAHhhgBBgeASAnHYMFNAkAkgaK3GkBGBYZkwPBRjSHgvAcoE4DBWNR8uCDG4k8pmwJxKMaRfKGw0wIlESizIxEEAEnqLm1AMoUpxhjXUbQcq7IDgcQ4bVVaVS1npJ5cWaNxY3NSEXyNzWjR6uUYvdGCpBJ6bF2mnm19xQnSno4xZ0PiHP9pWlP8NO0p8v1Rd/YxrwlKPlm1uupHHVKV3w2q9p2dOOfWOjLErRlo+VLL7GR27jrU07kKr4N1KemY7Z7mCtczqyblLc0jfoX9ayebWpySfVFvjfFHq7rP8AiWTlKTK5gjp0OL3Urul9srSnQ5vPGCw8GOtxC5jWqO3uKsKbk+RSSzg0OYfNoBsviN7P57mUvdIw1Krm8zSb9jC5EOQG9Y1Y07mMlhPZZ2KuYTjVlCqsM5/MbMbmVZJTeZJYTYGCpDCOh8O1vB47a52qN039UadXYz8Fjz8askt/FT/TUVXZceSrUg/wya/cWCqsua5rSWzm/wCotjDcDWm5OPQrLGQY3HqLC9S33EkBDiLlRkFgCcIXLgyYQmiiOXqCisl4YYA0qqdxcultThv6mzGKUeWKwl0JnTcKviRW+5ki1JaBCwaXF/8A2tL/AO5/sb+G36mhxGpQqUXTVaLqQmnylRi4Pq7lf4f9zodTR4QoQhVcqkVUnJJRb10N6WjKFglopZZiqV6cHyp8z9AVpcShhU301yc86detKcnCpFKPQ0JwSb5f0KlYgG1gCoBBgZA0AkUlkoQYKccCwQLqMAAeDHLcyMxMBEvUr8LCKTUm+wGSEXGCabWQqzmklzy19TJUaVOHojFV1Sa6AVKpJqOZSw1tkl7iWXTWj0ZmjaVpQVaacabeMhdtvgVLxeOWccZXPzfos/7Hu9W2zyvwtQiuLc61VOjJ599D1aWiMZOmJoYisGGka5GPAgGABkB5GSMBgLIAMAAAAGACEMAEIoMAQ1lEzjmODI0S0FY4pymnLZBHVtmTBHI1nHUgUdF7saYNYaDCzkCsAjEnL5k84eqM3TJQC6gAQ0NCQ0AAD0TbaSW7ZgpXVCvJxo14Ta3UXkK2Fq0aEV9p4zUxrGklBe+7N7njThKpJ6QTbNfgFFuLrS+abc37sDtYUYpLZIQxFZeVWSsaFqAYSXUrLGkPToVhMFACNUNbl8pSSAlIrGhWES2AcuAawLmBvIUZ7AJYSGnzbEDi3jVg5JAyVHLKNa+vY2lFzlq3pGPc83WnKtVdWrrN/sbHFajq8QqJvMaeIpdjSdTMlHDyajNqoSi28Zyt9CZvLHJ8sXgwNyZphk5gciEm+gcj3ArmXcObIuTQaiUZqMeaSXc7VO0mrJ11yqEXj1ZxqM/CmpYzg3J8Ur1LeFDlhGEG2sLcD21lwyytbOjOtSp1ak4qUpTq8qRs/wBocFopyuXacy/DHznzuV1VnjmlnBjc2+oGxxK7V5fV60IKEJzbjGKwkjTYyWyAzljMcubK5Wi4NNpTlyx6sAzr6DSzq3yruyFNSm40YSnroyvAxKLup8sXJeVPXAGajVqSl4XDqTnVlo6mNfoaE4yjVlGrnxE/NnfJ7u3t6FrRjG1gowazlbv6nC+JLHDjeU476TA5vCryVjewqr5G8SXoe10aUovMZLKZ8/6Hp/hu/dxbu0qP7ylrH1iZsajsgNoMGWyQ0GCljGwQhgMBAMGBOGLBQATyi5X0KwPAEY7g0UwAkAwMCR4DDAAa00BR0KSAonHYY2hrDAkeGXgS12AnlAvAYAhoNSsABIMeAYGNoEU0IgOuoPANC6FEyRHUyMxtEDzlA2T7A3gBSZjceuSxAYZLuYb+h9q4XHk/iWc+dLryPc2ZI17ivO0pu5glJU2ueL/FF7opXnLt5rz9zAsm7xGFFXbnay5rep5oenoajRuMU4vQeckpFIIeQEmABgeEIYC5UEVh6DBNLcC6mXE6Pw5T/wCsqXkliFvB4/xPRGlUpTVGHKm6lWXLCK3Z05RhaWkLGk05Rlz15LrPsSrGzFaa7jwKEuaCfcZhuFrnA9gXqACeQxoPQWMhSWQwVyvAECwwDXqBUIB4FqAiHBZytC8BgqITcWn0OT9jTblnV7nXqRbpTxvyvBw/GnTfLJ4a6FBKn9nuKM295I6lW4hGX5nLZI5NWUqrg5ReN0b1rQSjzzWr2KjK6dSr/Elyr8sTJClTgsRiifCa+VyQ4qquql7ga/E6f/TxqR/DLDOaqie7OxNc0JQqRfLI49xbzt54kswe0iopYe4/BUl5TCn+hkjNp7lRMqco7onBu0qsZvEkbsOFUb1fdVFSqevys3jhcvi6242MJs6PDeF1LtwlNunSlJLmxl4zq8GahwWrTrKV7TcIR/D1mdeFTkpOFOblN7NdP5Uejj4N/wCzpji5nEuDU6FVuxuFcU08PKw0zmVrS4t9a1CcE+rWh6mtRha0nUqOFZVGklCXyvrklTrXTqU6lRKEFzLxHiPsby4MbPTVweSwnswweoq21tePw42keeKXmgt13NDinCbW0pyqW926ij0UdvQ45cFxYuFjivRGJmWT0ZhZ53MdGVRjFp80sE9GVSUWtZYfYgzwr0qdRc0OeOMNMxVJU5VZxppqD+XISlH8uX6mJRedmB0q9ahVoUacfLJQw9BXd+6ttToQg4qD1k+uhpR3RVR+Ve4HpvgyDcL6tLXPJBP9X/welSOF8I4pcHnzLlVSs2pPZ4SO/jQ55Os+E0EcuWOmCkCZlomJoG9QAAAQDABAMYgAoQAADASAAYB1AAGIBCe5QsAIRTQsAS1kXLhPG5Y0Fa6f3q5Vq9zOx8voLZgIYAAAA0gOR8USqR4NLw20pTipY7HlrGp9nu7epRyqvOlps0e+q0oVqUqdSKlCaxJM51pwKxs7jxqcJymvl5nlI1EZuKzxZeHH5q0lD/k6VjGNG1T2T0ORcp1+KU6e/gw5n/iex17q2nVslSpvEk098EVuJOMOaflk5YUXuI0bSwdOu7q4nKpWawnJ55Ub2Ay822JhuGPQIS9i0ALIDwLGRjwBLzgMaakzbSfK0vdmKVanFYlXpp+4GVjW2prxqqUsQ83qjLzaAUksmVJJExj1wVqAYBRKHgDylzbxVV05UHRrcz5pSlmMvU16ttXpLMqTlH80NUewqUKdePLVgpRZzanBq1BufD7uUJb8k9UajFjzWUyZNR3N64r06ym7qMfFjpmCxr7Gg6sM41x7G2Vx1WcD0I8Wmvz/AKC8ann5n+gGRLI8GLxoLq39ClXjj+FKQF7aohVMy2aHCr5s/Z5yXY2q3jXvIrbhvhY6rLyUYVGUvlWSZNw+bQ3qHAOIVcOc40V76m0vhqnB/fXUpPtFAcV1Y4CnGrWly0qM5v0Rl4nYqwuIKDcoS1TZ6y3vrSFjSrOpTpRlFaJAeeo8B4jVSc4wop/meps0/h1QebqvzJdFsb1xx+jHS3pyqP8ANLY89xPi15czlCpUcYfljoiDdvbu0sYeFbxi5r8vQ4VWrOrNzm8tkAB7jgVx9p4VDXzU3ys3KtCFxb1KNT5ZrB5r4Uu/CuZ28n5ai0z3PTVa1Kis1asKa7tmarwdejO2rzoVFiUHgyWN1KyvKdxB/K9V3R0PiWtZ3FxSrWtXxJ4xUwtDjNrBR9Ei1UhGpD5ZLmTJ8SOcKpTz/iR420v5+HClcTqzoQWFCMsDrytakEqNs6TTy5uevsSxdvaDRzPh26d1w6Sk25UpcuX1R1DOmgIYACEMRQAA0QJDSyPGBqLxogJaFguTUV5pRivV4Napf2NL+Jd0k+3MBmwGDQqcf4ZB4VWU3/LBkf2/bNZjbV2u+iKOnyixqYrK+t76L8FtSjvCW6M7WpBOB40ACgHjAIeQAAQ0gDHoDRFe5t7VZuK9On6N6mnPj3C08favqosDdYjThxjh1R+W6i37M0brjladVUOHW7lN6KUlgDtNP2MU61Gn/ErU4v1kjkf2NxO7819fKmms8kHnH6GSHw5w6OtSVxUl1zJJMDofarZ6K5o/60ZU4yWYSjL2eTmPgHCnFpU60fVVP/BgnwDwvvOG3dSE1tGb0f1A7RL9zmcL4jVq1pWd5Hlrw29TpOWWQDwRJjbJZFQ2JvKG0JgJJjx3DJL1KE9TBex5rC4jt5GZjT4vN0+G1e8mogcGn5qEYdtV7kNpblYaSwZlTTlTq8ilyvMoN45jcrFjXQGzfSoVLqUra2lb0saQcs6msVkAGxLaApA2Y3MlyAzrLbUYuT7JZKjHxJRWOuw7HidewnUlRcfvI8slKOTXlUlUzJvVvLwB0J3StHmlJTun5efpSXp6l0KsIR5Xlt6tvqcykuZNPOUzchq9n7gdS1qxlNwT0eqNr0OQnKKzDRo6tCtY1YJ1atzTl+LlpqS/qYsbigaOhacNsb1f9PxSbl+VwxL9DY/9PQz/AO/qr3gjllnJ9dNOK03toOPMtzsf+n10v39af/kHwCp+G+g/8VMz/XFetchsM/Q6Nfgl7Ti5QlRrJa4hozn4TTymmnhp7pmsc5l8ZspaCaHyr1DXPobRL9BpBjAIoGvQSReAxgqIwYp29Gb81GDb9DPkhgaVSjTlcqnCPLGCTkZYpN7BOKjcSl+dJFU9ioyUopzw9i3CEXjsYmiopdwMkpQxojDVp06kcSgsGTyh5Syo4l5YSpPmo6xfQ03lPDTTO9xGelKkvncs49DHXtKdeGJrEukkXaacVPBvWV86M4qT0zozWuLSrbvVc0e6MO50wzuNWenppX1avKDqz5+VYi8dDLSqONPnpycaks+bOyzsecpXFSklyvTszbp3iqYU9GezHlmnSZO3SnTjUqznTjW5o6RbxrncxU3F1MVcqnNbLp7GrCa5W4vPbB1oRV3Rg1yzXJh4Xmp9/wCn7muzrjZWN1Ywi5WMqlHkainOXnn/AODT4zTla8LnCXhydaUXmMs4/wDzBmlbOdxN0q1OnCM/Iq8sSf6I53GoqnDlWNauXj6mc7/imfxx6hhZmraJGBngrzD8LKg4JebOfQj8LMkJQil5OaREN1svywLULiazjC9RRlWn/Dhj2RTo1n/EqY9MgYuVxeG1nJU8DlSUFnmyRJ6fQLHvOAUlT4DaRkvnUpNe7N9c9FZWZ0+seqMdlT8GwtKb/BRiv2M5yrrFRlGa5oSyhN4IdNqXNSfLLqujFGopS5ZLln1TIq9x4BrAIAaAYmAgGIAGIAAMgICsh1JHkCg6kjAeRiGAgAYCwGBgAsBgYATqLr7FiCkGwxMBDQDxoAFQim9ScGG/rO34fWqR+bHLH3egRr8Iiri8q3G/iTePZaI7uDncEoqlRUcfLFROkCkMAKjzKQ8PI0h6IIWoD3YPAA3glyeMlGJ5yApxVSLjLZ76mquG2immqLb9zaXqZoRW4GOFKNNKMI8q7GaMEtcBjUevQAyPcSWupSwAsFJBoNAAZwwF1RYjwvE6Xh8RrR/mbNZNx1W6Or8R01T4nJ/mWTldzcrL3lmqNayozlRpPngm/IjjX0o2N3OMbejOD8yTgjd+H63i8IprrTbiw4zb+LSVRLMojaacV8TtozzOzUf8KWDcp8YsEk/ND0VM49xTya1Jrm5WaiPTLjlgv7yp9IDfxDZxWka0/TGDy01iZlg9C6Tb0dP4jhN4hay/zMV3xa5VOEqUKcFLfqefpy5aiZ04PxKEoP3RZGbWlfV69xJOtPmxsK1lo4v6FVo80DWpy5KqZdJtus1byGYKXY2n3MdSPNCUX1RbCVzWBkUcxfdGPBzdIuEuWSabTWzRvcrmlKeZPH4nk1LahO4qqEV7vsdO5iqUoxT0UcE0balaKcGsJGlrsbk5cxrVY4kFOi8Tw9mZqr8upr7YZsVYuVOLis5A9T8MKkuE89Nedzamdg8v8N3Ls5VoV4T8OaTWFnU7qvXN4o2txN+kTLTbAy29rd11l27pr+ZlcRtpWHDq11UnTXJHRJ6tk0u2BYbwms9gaxrJpLuzysaz55VpSkpvqnqY6teU9J1JyXZyGk29NUv7Kj89xDPZPJp1ePWsf4dKpUfthHnpVEuhjdQuk269X4iuXpRoU6frJ5NK44pf1157qcV2h5TTcycl0bJ+eXnlKbf5pNlKEekUJNORkwNJtdCnzz9FubL2026GOg8U36szJlNscK0rW7oXEPwSxL1R7DKklKLymsnklFOcE9nLU73BqrqcNpqTzKm3B/QzWo3xZENGVACKa5VmTUV6vBQJnK4zxOrb8tpZrNzUeMrdeiOi7q2p6zuaKxrjmTPKzvKlXic7mzk/GVR+Hhbp6LRgrpUfh6hSiq/GbmUp7yipYS+pq3FxwtT+z8L4Yq9R6KTyzYp8AvbucavFrqSX/bi8v/wdu2s6FlS5bWjGnFbye792VHn7P4cc5eLxDFJbqlT/AOTZqfD1i8+FXuKb98pG3d8VsrbPPV8SS6Q1OPcfEs3lW1GEV+aWrIM/9iX9L/2nE89lLKB0viSjr5KqXrFnInxjiFw2ncOP+HRIhQjUebi8lJvfEiq6s+M8Qtni7s4++MGaj8Q0KjxOhOL/AJWjjqjY4eJ15P8AxrBijaxnWip1FGm3rJeZpER1adxSq/ECu5PwaWHrLrpg7kGpLMJxmu8Xk8rWtLelTlKhd1ZtJtKVPBtvhXE7Oyhec1PknFSjyT1YV32mLB5+lxK+gkpVJr/HDP7ly4jdTWPEpt+hlXbZEpRX4kaPD7O84o5Ro3EOaO8W8M6dP4UuX/Hu4xfZNsmWUx+rJtrSr0orzSRhnfW8dpZOvT+E7OP8W4lP2ibtLgPDKK/gym/WWP6HK+RhGutefsKsb6tWh49KhGEOZOa+bvgxwqTlfKMqNK7own1i8Nd8Hr4WVjT+Szor3jn+pmU+VYgoxXZLByz8rH8WYV5T4goUridtK1tXbwUGseFyLOf3PO8jpuSxqnho9vx25i61vby+ZpzTfXoeV43bulKF3S0zpJep04eXt9Zyw9ONUdRSbi24vdGKVdZ/hm86tKpH72m894mCdOlN4hUT9JLB7HGtaVXO0X+pDbZtO0n0jlejyT9ln1yn7BGvh9gwzLKk46NhGEU9dQMSjKT8qb9jYo28uq5TPT0WFovQygY40orfUyIAAuPU2LSWKyh0kaqZkozUa9F95pEXbotOE1Om3CpF5jJdD1HD71X1spNYqR0mv9zzzgpNmWzrzsLhVFrB6SXocubjmUdcMnqFgf0JhKNSKqQeYyWUy8Hy8pY9E9ksrVaHI43w91E7y3j94v4sV+JdzsYBZTLx53G7LNvHLElzLVAb/GOH/YqruKC/6eo/NH8j/wCDn5ztsfRwzmU24WaDAaG9DoyT0QtMasMtiwEIlySHJ4W4UUnLVaFESi6ixswhF0scy+psNJvRCeumCoiKjJPDQmsaaA6cX8y/QPAptaykvZgJuMVmUoperNeV55uW2j4kns+iMztaCllwc/8AEzIlCKxCEYrskBq29s4OVWtLnqy3fYz8ifXPoZOWX5QSw9tQMcqaaw0nHszm3XDt50P9J191sROLe3Qo81JOEuWSwwZ2Lu0jcRePLUWz7nHkmpOMlhrc1tKyUqsqbzGX0N6hfL8TcJd08HNQZN452Ljlp3vtkpqHiqM4rdrd+5h47UoSo2ngVvEfm5ly4cdsZOXTrSp/LLTswr1fFlF4xhGrybjd5NxgqyzhGJl1NyDi4k9EbUKnLFRjFLC3xqarRXM1swNlzk95Mxyn6mJyk95MSx7gX4jcWs6MqnDxKkILeUlFGLKN/g9Px+LWcO9VP9NQsfQprlly9I6CFJ5k36jycq6w8hOEKkcTXs10AZFYlUlQ0r+an0munuZlhrKaa9Aj1T1XYwSoVKMnO01W8qT6+wGcRNGtTrryZUl80Xo0zJsBIDYgEIYAIQMAAYgAoEyRgWhkooABAADBCGFH0DAAwhMA6hgBAMAEMACg0OJPnuLW2zo26sl6Lb9zf3Zz7VK84vXqLWMWqUfZb/uB2rakqdKPd6mUHuBUAAAR5zA0hJi2W+oRQmCyS5YYFORDwxOQovIDhFSeudDMRHQogeRi1AoZSEgiBWUPQlDAGwEPIHn/AIpt8xpV+2Ys84ey49RdbhdTG8PMjxhuMV6P4TrZjcUG9sSSO/OPNCUcaNYPH/D9x9n4rTbeIz8rOtxi+5Lim7a6lCrSzzRx5WWJXMvKLp1Zw/LLBzKi5K2Tfr3NStT8aaUsvzSitjTr4nDmj0NssdTXUqmyc5gkEMliVla6m/a1Plf6mj0M9vlGmKy1Ycs5R6Z09jRnHEmux0qseaEZ/RmlXWpCM1GXPSTfQVSajJJ9THYqdWt4NOLnKWyR06fA6lSebmaprstWCRxnHlrSjupbG1bcGubl8zj4dP8ANI9Ha2VlbNOnTU5r8c9zYqSc9WzNdHFqUqXD7fFKOvWXc1lTlXoTqyjjqjr16UakXCSzFrU0LutCnT8CHRYeOhlXK5WmDjTlOCqfK3qZX5voTKkpLEgN7iVnwunZwla1E6uVlOWck8PhT0SSkumTRp20FLGMr1Onw+lmtGEFgDu2FLnaxFRXsdqlFwjhNr2MNpQjSpLO5tLA00zx0jq2cH4zuHT4ZQt0/wCNV/ZLJ3HLyo8l8b1HK6sqS/DCUhpHn51eXQwSqtk1HqYmwM3OS5GNNjCKyNMhFICl8ywZkYUsMtSSSy0Bs0J4zF9djYi9dTR8RY8uc+hnpVXLClCS9WsAZ5vllH/Ejq8CqffXNBvV4qJHC4hJ0VT1Ty09DaV/DhfHadWalKl4eJKO7TRLGtvVJDSfTc89V+LI6q2s2+0py/2RrS4/xG5TxKFGOzUYk0u3Y4pxenZNUKEfGupbRWqRz6vDrqvSdzxm9lRhuqMXmX6dDi+C51eZ18Sz03Lq4T8JOU59XnLIClCznccjq+BQT81SSzLHp6me+q8JjQjTsFcSqRnnxJdV2Zh+yuEFKVs4p/inlG5w7ht5xFuFjQTjH5qktIx+o3FFHjnEI0I06dWCUVhScMy/cSXEuJUnUrXUo0Fu3ov0RrXtsrW58CnWjcVlv4Oqz/uTOdV0lQqSlDlb8jeNQjIqPCqTXPVr3El0guVFfaLCn/D4bH3qzbL4Vwa54lUlGnKMIQ+bXX9D09n8L2VBJ1YOtNbuWxy5ObHj+t44WvJTupV3y0ran7U6SMlPgvE7l/d2M4p9WsH0ClbRoRUaVOEEtuVJGTkm95Hky82fkdZxPC0/hHisknN0qa7Of/Bt0vg6stal6l6Ri2ev8OXcPDn0aZyvm5fkWcUeU/8ATcaaa+2VH/ip6GnXs7qwxKnONWnDZYbiv8rPbOE+qTIlRpz0qU0/oTHzMt+1/lHA4b8R0o8tK8t6Nu3p4kIJx+vY6F9wa3vYeJ4UITksqrSWE/8Ak0eNcDhC3ndW2OSOtSHp3NPgPF6nD60berJytZvCy/kZ6d952xY1q6rSvuGXPD6qm5NflqxOtw/4hu7SMP7Rg7i3loqsd4noq0adem6daClCSPNeHHgnE/BuV4nD7jRqWqx3+gx5JyTWR109VQr0rmiq1CpGpTfVPYvJ5i4tLj4erfa+HzdaynrKnusf/nU7treUr62jcUHmEt11i+x5OXj6+58dMbttNkN4JTwJnn23pz+P2zr2Hj0197bS516x6o481C6sKiesZwyj1UWtU9U1hnl42zsb+vZS+XWdL1iz28Ge5pzyjzHJCSzlw9MZMcqcPzfsbdwo05Sj1Umakpdov9D6mN3HlymqlQjF6Z/UqNSdN5i3n1YsVHtTf1JcKi3UV9TTAlJybcnqyWZ/BoOyVZ3cfHc3HwFHp3yYGBmhLRGaL0NWLM0JaAZgcktzG5mNuUtgMkqyxoirSNS5u6cYaqLUpPsiY0HN74OpaqNCh4VODTbzKXcK2nUxJ+4c6aJUKj2iVGjUb+Qo6fBuIKhUVtcP7qb8kn+F9j0CTTw9zyMrdyjia07noeDXE7mw+9fNOlN0+b82D5/k4Se49HHk38CwUB4HZE4QqU5U6kVKElhpnlOIWM+HXPhy1oz1pT/2Z64wXlpSvraVCt8r2a3i+524uW41jKbeQWhawnnGR1KVW2ryt7hfeQ69JLuQ850Po45dvbjZo3LDIk87FKPceOxtGKNGUnmTM0UlhLItRoqHgnGrHuMCWsi2Gwx1YENZec6Ao4xJtY7F4eNkJLL1QQOTcs9A0fRhs9B5KpdugbSzuNNdSlhIqMU4fiS0ZzuIWPirxKOlRbr8x1k8aYyupLilrH//AAB5XVNprEluhZO9eWNO5i3pCp0kcStSnb1OSrHHZ9GVlACGBjnuQtyp/MxY8uQiUsywupSg5z5YkweJplwk4N43YGSnaqUuVzw8ZwkY/C1M1vXqU4zjGSTmsN9cDzgDXccPGDsfC1Pn43Qf5FKT/Q5ktWd/4Qp/9fcVfyUsfqyVY9T1Y0IfU5uxjEhkFIa3JQ+oEVraFdqeXTrLapH/AH7mNXM6M1SvYqEn8tSPyzNlBOEaseSrFTg900AmtM9xM1XCvY+ampXFsnrHeUP+UbFKrTuKfPSkpRfbp7gMGMTKJYmNgQIAYFANCAgoZKY0BSDIkwAY8iGA0AAAhgCQAJjABAAwMdxVVvbVa8toQcjFwC3dO2i5LzYy/d6swcYlzUqFqt69RZX8q1Z1rOChbr1YK2AACoBiADza0FkGshsEDlhEOWQll9BYAFqXGIoxy/QyL2AEsDQupSQCWpSBDzh6APAAADwAaiAQ0hpYQ0BFakqtCpSe04tHgKsHTqzptYcW0fQjyXxLa/Z+IeJFeWqs/U3Ga46eHlNprqjbrzqpRnOPNzrKa1yamMnU4faSuLCtWVWmlQ3jN4f0NMjgNXPEY0KkVyVdHGS3OtdcCspTlyudCXVJ5Rw6VajOsqspuFWL0kdt8UjX5XJxlJLDa6liNF/Dk280ryk1/MmgXw1eJ6Vrd/5mdKF1S6yM8bqj+ZF2mnLj8N3TfmuaEV31Zs0fhqUX575Y/lgdCN1RX94v1MivaMfxpl2mmOnwOzhDlqTrVfd4K+wWVFeS3h/mWWOXE6SWiyaVbiCm2tEvcmzThXGeG8Z8WmsRUuZL0O7VrqT5o7SWTh8YqQruEoyTktHgijxKrGnGkqTnKKwsBXdjNtmaVWEIc05pL1OFK+uKaTq21SCez5SHd05vM6VaTIrdur91MxoZivzGiorrv3FK5j+G3nj1ZgqXHMv4GPZgdOwsrW45vGvI0WujNW8t1bXMqdOt40FqpJbmmqzUk/Bem2TYjdp/xKb9wMlr55PPRHc4HRzcc76ehx7adJtuG73O9whqFTPp6CDv08MzLT3MNLml8sJP2TZsKnUe9Nr/ABYRRMpdzx/xjLm4xbwz8tHb6s9lKnJLzSgv8zf9Dx3xPT5/iWlDKf3Cen1JVebq/MzGi6v8SfZSZGVnciAEOPmliKcn2RuUOGVqnmn93H13A00/TJsUrWrVw+Xlj3OlSs6VHZKT7sysDVpcOoKpS5nKXOnnXqjbhYWy2or6ik+WFvU25K3K/aS/8I2tmyjGqNOPywivoKtDmozXoZWTvld0QcC8WaMX2Zs3Vu7upYtSSlVioNvujHcw+6muzMNOvJVKOv8ADllErUdmn8LRWtW7UfZGC5tLbh1/TpKqq1GaTlyvVeho8S4rWv62JScacdFFMxQly27hosyzotTPtXf4i7B1KVvwmnz1JvWWXv2PQ8Pt7bgXCncXKhlayk4rM5dkeDhWjPEZvE1szr2ru+L1bSwr1nOjSy89o9fd9DnnjbGsdOjRt7r4ouvtd5N0eHweIxWmfRf8mHinFZXL/sng/LbWdPSpUWix1yzocfu/sXBvCtvIpyVKCXRY1PJ2lGpVSow153qYwu/d+N3/AI2ITUErThFKTnPSVdrzz9uyO7w74ao2yVS9iq1R6uL1SOpwThVLh9tGTinVktW+h1HFS3PLy+Td6jeOH/XAr/DdHxVX4fcztai1xul7Ex43ecMrK34vbOcfw1oLdf7ncqQw8IiTUqbp1aUakHvGSyc/6zKazb66+C0v7K9inb3EHJ/hbxL9DZcZLocG54Dw+vLmpSqWs8501j+hihw/jFt/7PicKsVtGU3/AEZj+WGX+tN2PRBk4K4jx62/9xYQrRW7hH/gF8VU6cuW74dWpP0f/OCfwy/Ds74NHMt/iLhdw0vHlRb6VY4/cviHGrKyoc8akK85LyRg8p+7M/xy38OzX+JbmFpw6VBP7yvpjsjh1+GqnwP7RLSScf3Lsra749xD7RXz4ect9EuyN74muaao0+GW7TkpJyx09D2YTpOrH10uCVXdcHtqk/mUeVmv8S2/icFm93RkpJ9kbvCqH2bh1Kl2QuMY/sS9b28M4b/+X03fjV4DUV/wSiprOM05o5PAav2Tj11ZU3zUJNpa6aGjYcWubbh87Czpvxa0s+In8q9jrfDvC5UKrr1HmXf1O+cmMu/1nH67wxxWrKwj5zqg5vHaDlQpXsFmpbvEsdYM6uBSjGUJQmswksNd0awy63aWeng60KXPVbWZSeYt7GnOE8/NGPsdziHAr63k/ApO6ofhcPmiuzRxq1vWhLE6FSm/544Ps8WcseXPH215Rgvmqt+yMcnTX4W/czO2lN5dSK9NyHQpx3qSk/RHeVyrDKaSajCMc9epiNlqjD5o5ZjdZZxCkl6sqJim9kZYxklqsEKvNflXsRKvKW8gM+YRxzalxq0Y/Pl+kUaTqLrlicmvwtddQOtHidGmkoWk5Y7tIp8cqxX3dnSj6ylkx8P4WrylGpK6jHm/DBZa9zlTjJVHDm1UuUK7H/qC7ylKVKnF/khl/uduwnaXsVz/ABBUhN7x8JRPGV6E6EkpNPPVF80Y01pqYylvxcf/AG+k0Ph20qRU6l7c3UezqYT/AEOtToU6NKNKjGMIR2ij5Zwvjd5wyspUKjcE9YN6M+i8L4pR4rZxuKLw9px6xZ4PIxzxm78ejDV+OjyruJpdzHzBzHhubpqrwu4EZGmTsunL+IKUZ21OpheJTe/XlOI2eg4liUaqf/aPOrWEfY+j4uW445zRMeBiaPY5G4r6kvsPPcWhQCk9kNhy5/5AUV7lbe4YwgAMC39hvPQWj0WQFLD2DHqNJJ67A1rnoUThZLzkl6BHcoGJl411JkuyAjGc5RgrUadem6dSKkv3RsapYZLQR5+6tJ20srMqffsa/qeklFNNNadUebWz+pWaxS1Yn0G9w7BE4fQvl5kGcC5mA9U1jctyljYxOTFl9wLUnqeq+FvubC8rqPNKVWMEs4//ADc8nDWR7X4eoQl8PRjUjmNec5SXfp/sS/Gsfrtzi4S5ZYyt8PIiKUIUqcYQWIpaLJZydD6AABTQ0IEBkjuNkxGwGm1qng1a1nmo7izkqNd/Mvwz90bIijBQuo1ZulWg6Ndb05dfVdzM1gVehRuafJXjnHyyWko+zNV1a9lhXf3tDaNdLb/EgNlhgacZxUoyUovZoCInAigaCpAGAAPIgApMZIIChkjAYAMBh1BB1AaEPqD3AkvoLGRzkqVOU5PEYrLfYDlyzc8cnj5LeCgv8T1f+x3Yx5IqK2SOL8PxdWP2ia81WTqP/Y7m+QAYugwgAAyUeazgTbyOWiJSedQgFu8Dyy4rqA1FJFJCwMBY1KwxFIAUcBgYIBFYBYAAFqHsP3AMDQLOBJMCjkfEtKFXhqk5JTpyzFPqdbBrX1rC6tpwmtUsxfZliV4TDlJKOremDrVOBX1rYyuKkoKm1mUE3k1Z0fCbeMSi9cdzYuOOXVe18DRRaw29cnSMNCFKMllIfgrcVOooLbL9yvtH8iCKjzw6Sa9GZVVWPmrRfsmYFcNbQQncSf4YoDYdbH95U/0oiVeX4Z1X9EjD48uy/Qfjz7R/QCnKrP8AFVfvI2eGcOfELtUalZwjjOW9zT+0Vc6SS9kZaNzWhPmpySkuuAN/i3CbaxlTjbVJzk1rzYOZb16lvWVSlPkqRfYyVrq4rP72eWtmjDhZz1A7PEuMRv7WFOWVKOuI9zSjHMVlM1OZpaNr2E5Sf4pfqBvqCxsJ8q/C/oaGX+aX6hnPf9QNydVraODdt6XDp2jqXddc35Yt8y9l1ORFvuxuT6t/qBkh4Ua+Yyly83lzvj1PQ2letaVE392/VbruebpUlVrRTlyrOr9D1t5Soys6bjcuq6UeVJ7tFHpadvW5IyqXdJKSTTXVGwrTljFyq83NqmjhfD1KN9ZVbaVSSdN48r15X6np428nSpwjVio048uW8sDXVCkvw59zx3xJFQ+LaCSwvsy/3PbuFCm/vLlZ9zxvxtVs6V5SnFSlWqUfLNPbD2JR4+XJG4q+IspTej6iuLinUx4drTppdstsOIVYVZxnTi1p5s9zC/NAD0VtStpW1K4tqKhGaxJZy1IzavQ4nD+KVrS3dCnCE4uXMufozNLi969pUof4YAdTw5PoyZUamNIs5EuIXs97qaXokjFKtXn81xWf+dgda4ThY1ebRpxkv1NuUjzU4uUXrJv1eTuwnzUKcu8UBmcyebBoXV9KjVUIRi+ryZra5jcU+eKw+q7AYbmOs13RyU2pp9js1lmafc49Xy1JLswrEn5jahKOik9zUXzHW4dTxzpqMlUhytOKeF6Z2A11DEJp412M9n9qpV4/ZHJ1F8vK9TDUpztajhJc0Pw5Nrh15StbqNacW0umTGXxY2+IcRr3tsre6puNxSnzZax+qMfC72FhcJ1qfNB6NrdHZlccI4tPmvKnLNrST0a+po3nA6sIOpZ1IXtBdab86XscZZZp19vWW3F+G3UU6N5TX8s3yv8ARm9FqSzGUZLumfO7CFjKo6d3SnyP8cJ8sov1T0PS23CuGyp01bT+8TUoKosqeHlptbnnviy3cbmb0Dp8y0TyYpc9N602/oalzw6jWjKta3M7Fx35ZPkz6rOgULa8pUMXl2pxb0qwqS+X/kl8ZZyNxNy/upfoDop70v8AY5tThV/L5OJ80Zax+8eWjm1eASnJ/auNT03jh6fVs5Xxtfavfbu1ZWdvrVuY0X61MHOu/iDhltFqNxO5f5VHKf6miuCcDpa1r51Wt1OtFL9ivE+G7T5ZQbX/AG4OT/VnTDjxx/8AZa5V5Vr8Zqx+z8OpUEn80Icrl79zK/h6/hQdRqnHC1UtP3N2fxRQovk4bY5l0nPV/ojXqR47xtpVlUhRfdcq/Q623/8AkQ7b4muKFhK2pUKaqx0VRPGPobfw9wipczV9dtuLeY515mZqHwrZ0rSX2mvyyaz4jeOU5Frxe54PTr21vcQr0s4hLpH1QmsperNunr7++tuHUue5ml+WC3Z4vi/xBX4k/Ch5KGdIR6+5zbmvVuqjnXqOpJ92bXCVaUayrXVOtUcX5YRSS/VjHgmPu/Tvt3+DcPcbdRUOVz1nPq/Q79KnGnBQgvKjgT+J4Qjy0LKnFLZ1Kmf2RrVPiW+qfw3CH/26f/Jwz4c863M5HrVBvZCnims1JRgu8ng8TU4jxGv81au0981OVfojX8OtOWZOOe7zIk8O/qf0e0qcTsKP8S8pe0Xzf0NOr8R8OgnyKtVfZRx/U8zG3n1lJ/4dDbtadOD+9caa/Ny5aOs8XH9S8ldCXxXJJ+DYSx3lU/8AB6CnVnWt6cqsEnOKbhLXD7HlKFKd1fUaNGo6sOdN+XGi3PXyWvocfI1x6mK43f1pVuE8Pu21Vs6XM9Mwjyv9jwvxJSsbLiP2fh1SbjFYqczylLsj6HcVfAtLiqt6dOUl+h8jqzlUnKcnmUm22d/DuWW7axy6hOpIlyl3YsjSb6H0HnJ+pOTL4MpdR+A4x5nHKAw6scpyl8zz7nRhwi7nRjVdnVVOSypLqYKlhKLwk0+01hjar4L4n9pUvD7+b2MV6uS/rpParL+p3vhnh0pz5ITgritos68kVuzu/wDorhj81a6up1W8uUcJN+2Dlny44X21MbXkLyl4llCqt1hmhUWiPe1vhKi6Lp217NJrRVYp/ujz3EvhnidnBy8GNenH8VF5x7rcmPNhl8rVwrz6PUfAtaUb+4p58rpc2PZo8y4tSaaw10Z6L4J8vFavrQl/VDmkuFOP1k9t4ryLxGQgPgV7mTxGNVGYwbUYtvoiDV4nW5LevPry8qOJnCSXY6PGdZU6PN5nFVJLt2Rzllbs+v4uGsXl5LKer9wX0Jcsa4LjNNZaPW5JznOovNsln3MmE3poxrKeiCoxLHQpN9RPVgVAw9Aw2PEca7kCfbAmtU8YJko56sM7LDwUAuZ8rjnRjeegtN8MAWdkNZzr+hjk5czXTpgtZUcywkureCwZMZEzVq8Ss6O9ZTfaGpp1ONt6W9ul6zf+xo26bT6LJhq1aVHLrVYQx0b1OLWvrqrpOtJJ9IaI1mo5y8t+rCV1q3FaCjJUozqSa0eMI47i4RT3XUfMlsJyk4tZ0YZYmPogaxubtnZKc4q5jKMZJuONMhGiI70bK0isxop+sm2U4wprFOnCK9EFefVOctot/Qv7PVx8jXudueJLU16nlWE99EgaaMLZ4bc1se64bT8HhVpSXSmn+up4+pHlouMd3hfqe55FBRitopL9jNaxi0NCGjm2Y0LcAp5EtAQwKiytyIvDKyAAAFQ1uVpjDSae6fUlbgFaU7arazlUsNab1lQlt/l7GW2uKd3Fum2px+anLSUX6o2DDc2lOu1UhJ0a8dqkd/r3IMmMCwa9K5nTqKjewVOb+Wa+WfsbOAJZL3LwJoCRdShAA0IYDBAABkpMkpAPICGAwW4hoCkc/j1V0+GOnB4qXE1Tj9d/2yb+TlX7+08etrdfLbQdSX+J7AdbhtFUaCitkkkbZNKPJTiiggGLIANCYAUeabEyMMtIIcVncyR9RLRDjl7gUACeFuAIpaEruikgGAisBCWgx4AKMeoaBgADONBk4Q8lDyCECIOXxHgiuZSq29RRnLeD2Z5e7tqtpWdKtDkkuh73J5/4ppRl4FXTnXl+huVix5lvAuZsuUdSEjTJpseRxhKUlGMW5PZI36VkqHLKtrUfy01qyWrI0MPsPD7Hqbb4Zr3sFWvKkbaL+WCj5sG2vhvhtH5nWqP1eEcrzYx0mFeK5TLb0qlaqqdKLlJ9D2FzT4Zwq3db7JTcseVS1bZr/CNRcV4/Od3KEZRpPkiopG8M+3xm46cKXDbpJuVFo1nb1k8eGz6xUtOGJONaqpezNT+z+CKXMreVV+r0Nsvm1Lh9ao1mcIL+Y24cCvaq+4pyrv8Akgz6NSnZ0Evs9hRhjZtIp8QrLSLhBdkgPnX/AKZ4zhv+zK30wc24ta1pWdK4o1KNT8tSOGfVfHuaj8sqjz2RgvuGLitF0r2i3HpN/NF+jA+XJCaOvxngd1wWvisvEoT+SstvZ+pzJwwwMcG4yTyex+Gr2LpzpSp05vGE5xyePOvwO48G7pvPUDs8Nq1LTjEqKbjGq3TcV+x13RdKfLOE4+7aycji0vB49Rrw0zOnP98Hqb2n4yl3zlMDHTsZOClmjFPu8s4Xxxw9f2TQu1PnlRq8rwtMP/8Awd+yq+Xwpt6bC4za/beC3tv1lSco+61/2A+TSWU12MdN5ymZtfK313ML8tT0CCnpPBnMD0mmZk8gUAhgTGXLcRy9DtwmnRS6nCqrZnVtZc1NagaXE04XSk9pRK4TLNapDo45Nu+ofaKGnzx1j6mKwtZW+K05LMljl6oK2ayflaZy7qn/ANTL1OrPMlhGjdLFVSfVAc9rEtUbtrWnFpU4uT6JLJ0OExsuIVFbVsQrP5JdJPsep4faU7eDpwjyyi8PQ48nJ0m3TDDs8ldUb2VtGtXtqsKKkvO4YWfc3+D8JbnTu7lQlRmnyQazze53vibL+HaifSrAx8JfjWXDoflp8rPPlzXLj7R0mEl02pcA4VXpx/6Z0ZY1lSlj/wAGhV+FpU5OVleyi+nPH/dYPQeFNPRZRaU8axwl30PHOfk263GPHV+AcRVR1JQp15dZRqav9TU8G/sKiqRoXFFxakvK3HP0PaV7uypaVrqjBrdc6yaNXjPD6etG6qVH2hBv9z0Yc2d/GLhI5j+JbS6jVpX1rOLeHF08PD6pp4yhviXCcqVrc1rZ/ipyo81OX+XIrzinD7x8lzw+M30lOSi/1RwattZJSlTvFTk35aKi5/uj143tPblfT0rr8ElbyhHicqSfmjF0ZPkl1cXjRPsH9ocMdNwr8Ut66axmdm3L9TycaFSX93Ux3/8A8leFjRwrfSOS3Dab07UbT4a5nKrxK5nl55YUnFL9jJTr/Clu8q3u67X58Y/qef8Asyk9IV3/AJcFxsZy2ov/ADSM9P8A2dnpF8V2FquWx4TTh6yaX9F/ua1f4yv6z5aNOnTz+WGX+5yqfDY/3s0vSOhuUbenFctvTc3/ACxbZLhj+rLWrd3fErxqVeTmlspPCX0NSdC5cHLMcLfDO7T4LxKu8q1nFPrPETNX+Hrm2sqtxWrUYRhHLinlv0LLhj6hd15+3tJ1ajjnbc6MbBRWrz7s6Xw5wuleRqXFWpUim8KMNM/U9BDhPD4f/D87/wDqSb/Y55+RhiswryEaFKG7gjapWNer/Ct6013UHj9T19KlRo/wqFKn/hgkZHOT/EzhfMn41/N5inwO+n/cQprvUml/TJtU/h6r/e3dKHpCLl/wdtsWTll5eV+NTjc+nwGzj/EqV6j91FGzT4bYUvks4N95+b+pn5hZON8jOtTji4KNOPLCMYx7RjhCkyHIiTZyyztbmOmLiU+Xhd4+1KR8u5PEnyrCy93sfSuJ5lwm9X/0Zf0Pmj6P0PpeD7xtcOYqlGNKfKpxm8Z0Tx+5VKk92zYVGFaw8fnk69Oooyj05e5kyoJKKy+59B52KMUjPbVo0K0ak6EayjqoSeE36mJp9RSkoLMmKOnW4zfXFRVFG3oSjs6cMtfVmOrd3dy83NxUq++NDRt1OtPH8On1qSWxjms/NUln3IOnZXU7G/oXMJLEJrmXp1PpTpqWq66nyOgvFqU6cE+aUkt/U+tybjLHbQ8Hl6mtu+CJU8EYcdngzc2SWkz59/8ATtL/ANcXi/w/ZcUjKTiqFx0qxW/ujz/ArG44V8QSoXUOWToySa2ktNUe3aMFxQhXUXNLnh8kuqO+PkZTG45J1m9sAZEk08S3QdTyOyhpRcvvHinBOc32itycrqanFa/hWMaK0qXUte6pr/lnXhw7ZOPLlrFy6txK6r1Lmekqryl2XRfoQxrGAwfaxmpp5ZvSdkEV5sS2K5Ux7rY0pNNPRadwaePXoNJZyN6gS86BjIZzuNYW7KFhrsDH0z0XV6GpX4lZ0cqdxGUl0hqBma9Sor1fscatx1J/9PQy+kqn/Bp1r+/uV560ox6KPlX7F0jv161Ki/vasIe7/wBjSrcbtoeWlCdZ9/lRxPDX43ljxGOyBa263F7qtpThGkv5Vl/qas3VqvNarJ+jeRZEyoajCPdj530IbS3ZkpUa1b+FRnLPXGhUS5SfQWrN6nwi6nrUdOkvWWX+xs0uD28X95WnU9EsIK47wuoLMsKMZOT2WNz0lK0tKC+7owT7vVmTCzn0/QlNOZY8NjRSq18SqbqHRGxcJrkuM5lSllrunubM0kvQxtxSemjWoXSZNNJwfleqIkm0K0jjxKMteR5j/hZm5Ne5Bq8rf0MNOm6knVe20Tbqx8Wt9np7LWq109DO6S5cJYS2QRp0KfiX9pTX4q0c/R5/2PYS1k2ee4XBS4xRx+CMpftg9CjNbhghIDLSkxkoaApAAIoHpqWtUSPYBhgAQBgoQZIAEIACrCnWpunXgpwfRmko3HD1mPNc2vZ6zp/8o3kCbWcNoDHSqwrwVSlJSi+qKaya9WzlGbrWUo0qr+aD+Wf/AAVb3UK0nSnB0biPzU5f1XdAW0GC3F5E0BOAHgAAYgABhgAGtx5F1GADAAKjusnJ4N/1V9d3j18ariL/AJY6L+htcVr/AGXhdxVziXLyx93p/uXwK2+z2dKH5IfuFdQAF1DJiAAGDEAHmcdy4xFy5LSKh4Q1oGMDQB0HotcAUksAIWpWCWpN4WgAky8AloGr0QBnUAxjceADAsY3KBasCMjwDaW/6Iz0ravV+Sm4rvLQzcpPqyWsGBN/qdGHDoaOtWy+0DZpUaNL+HSin3erPPl5WGPxuYVyqNvWrPEaUterPIcbuPGvpx6U24nvuLXiseF17h/NjEfVs+XzcnJtvLbyzpwct5JtjPGRjnqOlCMqkYylypvHN2Hym9wnhdfil0qNBYS1lN7RR6LlJN1iTbas6CVVUOHwVa5lo59InqOF8EhZfe1sVrp7zlrj2N7h3DbbhlBUraPm/FUe8jYnLlTZ83n8m31Hoxw0xTjl6nPuKijNrJnr13hs4l3Xkozm2ceOdq3fUcfj1z49ylnMYrCMvwjUuY8VlStqFOtOpDDjKXLhd0zmXcnKbeuUKjCdKtSqKUX+JOL29D62E1Hlt3X1KNjPTmqU6eekVzMyKzpL5qlSXskjV4DdRu+Gww481PRpN6HQZ0RjVC3jtR5v8UsmSPLH5KdOPtEAKinUm95y+hL13bYABFejSuqE7e4pqpRqLEos+ece4JU4PXcVmpbTeaVR9PR+p9FMN7Z0eIWk7ausxmtH+V9wj5O4mS3m4VU87GbiNnV4dfVLWvFqUXo3+JdGaq0kB6Hitbxbe2q5y1DH6PJ7eM+enTn+aCefofOPE57JLflye/4TOdzwazqqEpN0knhBRVhyVFOJu29RVHiT0lozDOjVfzQUI95TSMcKlGjLz3dLHaGZP9gj5lxO1+x8SurXGPCqNJenQ0nBSnHMsJvDfY9D8ZKl/brrUHJxr0lJuUca7HAjNxeVj6hHob/gdpZ8GlXVWFarypx5E1g4C2Rmd9dSgoOtLkW0Vsa8pdeYCwyXZ2NzfzaouKS3lJ4SM/EOEVrDl8atTlKeseRtp/VgadReRm7YyzBGGpZXMJOEqccrfDyVY5jJxksNPYK6OBNGTCE4+gEJGjep+FldDo8rXb6mhd1IpSjlNvbBKrbtrHh9a0oVVdwt66im3zap+x37niE6HD7XitOca0ebwrhLaXqeU4daOq3KLSS64PS0rZy+EeJ0JvLjLnjkxce3qtTLXwuNceo3nC5W9K3qQ8WUWpSaxoczh3GK9nJUoeH5NE5RbZp1FN8OpVJLWGGvYz8MhGrdVE2lzRT1MY8WMml7106nHOI1n/7itr0pwUUadWdzXf3ilP1qVHI6dKzlP+HSrVUvyU21+pu0uDXktfssafrUml/TJnXHiu686rernaMf8MS1Zzl87m/qeohwOs/4lzRp+kIuX/BsQ4JbRealevU9E1FfsjF5+PFdWvLUOGwc34jjCCX5ctst2VPOKdVy7LGv7HrocPsaesbaMn3m3L+psQcaaxThCC7Rjgxl5eM+LOOvHU+CXNV+ShWeerjhfuZ4fDN635nSpL+aWf6HqnNvqyWzhl5d/GpxuDT+GMfxr1+0If8Ak2qXw/w+GHJVar/mn/wdNiON8nOtzCMFKxs6P8O0op93DL/c2lJxWIvlXZJIxNmC4u6NtS8S5rRpQTxmXU5zlzyumusjZnJy0y2cD4nu+WlTsKPmqVGm0v2RnrfEXDadvUnb1/GqpeWPI1r9UanALCtc1ZcWvMuTbdJNb/zHo48Mp/lkzdfHT4XbKxoQoLeK8z9ep0MmrzwhU5J1Iqbi58udcLdmtU45ZqDlRjcXMIrM50aTlGHu+hxuOed3I3uR084DOdjWq1q9S3pT4bTp13VWVOpLEYru+po/2jdSpcQoTdvG6tqPixqUHzRa+vsMeDLKbTtHX1fRmK5VSVrVVGrGlNReKj1UfVnBuVeQ4NQ4iuI3HjVuTxIppQUZaaLH7m1Usrfh3GLJW0XCncxnRqpyb5njKb9Trj48l91ns3nc0rbh9O4uLiM4cqzUjr4j9Eu5hq8UhS4fWu521xTjTaSjVjyube2PQ5NGo4cG4ZXqxbo2lzJVdM4WWk2vQ7Na5sL2jXpTrU7qlyc04QfO0voavFjLuzZusls7uUZO7oU6Lz5VCfNlGVnI4PFwvLhWruf7PUFyq4TWJ/y51wdSTPNzYTHLUdMfcYbxc1ldQ70Zf0Pm9vCjO4oxuKjpUW0pzUctL2PpVRc0Ki702j5nTSxr0z/U9/gf61w53SvlYUbicOFVa1WhKmoylVW8s9PTY1fYlNdCasnyuMVrjX0PoPMVWsoLliuaT2Nm2tIU4qtcvmm9o9ETCrG6q06k6cKfg04w8qwnjqZL3w6V/KFK5VxSgsqoocqenRFCua+ihlRXZGlKWXjq9h4dap4r26I2bWhHnVSp0JTTpfC/DpXHG7bmXlp/ey+m374PoUtW2zh/CNm6NnO9qLz3DxFdoo7stT5XlZdrp6MJpAAxHh1p1DJaMiS6kM1Z6WNavHqYsG1USawzVjlNrsY03KqFN1akaa0zu+yOBe3Ku76pWj8i8lP0iv8A8ydS9vPs1CrTgs1K0eSLz8q6s4qilFJbJH0/F49Tby8u7kEyhAe5hSRLcstLKwNaFaMAWi3FkHpqSnlbhEXNzG1t5Vpxcoxxoupxa3Hruo3GjThRX+HMv1OhxqSXDZLmWXOPU4Tq1GsObx2NRKVardXDzXrSl/jl/sQqdNfiyHMusvoZKVvXrY8OhNru1hfqERlR0SSE5epv0+EXD1q1IU/Ras2afCbaK+8dWb98IK43MlvuZKdCvV/h0Zy9caHehaUaS+7hTXrjUzKKS1cshNOJT4XXlrOUaf7s2KfCqMf4kqlT20R08oE9QumCjb0aP8KjTXrjLM0pye7CctsLQlJSjswug5D66E+HJy9DIqM8eVZAXKl6D8uNBxo1JPDjj9zI6Ci9k/YDBLXCxoEaKz8rNhU8dDJCDe+EQaVajKFSFxQgnOK5ZQX41/yTO7pVMU7SDlcz0UJLHJ3b9jovEVpuS5NrGQNWjbxt6ahGXNLeUn+J9yZMzvJjlHRt8qXVt4KjLwaH/X1qn5aaS+r/APB2DztCSjXjVo1dVplP+p17C/hdxktYzjJxafX2M2VZW4h9Q6AZbMAEAxiGAx9CRqXQCgQDRQNiyHQMYIGJ6AADzgTANgGmYrm3p3cUquVKPyTjpKL9zKhMDTjc1rOap3y5qb0jWjt9exu6NJppp7NCeHFxklKL3T2NJ0K9k3OyTq0d3bt6r/CBu4Fgi2uaN1BzovON4vRx90ZQJBblYEAgGGAEPdCGA0MQ0stLuBy+Nvxbiys1qpTdSfstjtW0OWivU4tsvtfG7ivvGDVKH03PQJYil2AAyMQQAAAAAIDg+gN9hqGgJablQlljSb2GkUtAFy4K0BsQAPKXURLWoF5GJbDQDFjCG0dCwtowpqrUjzSeqz0McnJMJurjNtSjb1qvyU3ju9jahw6K1rVG/wCWJtyk2/QR87k8vK/6u84yp0qNL+FTSfdrLKbk92IZ5cuTLL7W5jIABClUjTp1KktoRcmZk36L6eS+NL/nr0rKD8tNc0/c8q1lmxe3E7u6q3M96jyRSpuclGKy5PCXc+5x4zjwjy3/ACrLw7h9XiN3C3pRy3u+y7n0Th9nQ4daxt7eOEvml1kzT4Lw6HCrJLH31RZm+3obsqp4vI5rldR3ww0yuSNW6qaJLcbnkw1E5HjdGrXllcpyOLZp0IpL5nqzueC3uYr7h/2uznSSXPjMW+534s5MmMpuPIqMd20sjzBL5lk3/wD03xJvDhTS7uRnpfC1xvUuYQ/wrJ9P+2En15+ldD4P4hRVSpb1Lnw5PHJTltP2PWNYeGtjyFr8NW1GvCrOvVqTg1JdMNHrPGp8qlOtTi39X+hvDlxy+GWNi8LoH0MfjUHp4lSf+GOP6kuvBLS3k/WU/wDg6bc9VkbS3YJ83ypy9lk0a3E1Sfz29JrrhZ/c0Lj4hoQWal/JvtD/AMDZp3/DqYzyYXeTSMUp0oaVLijH0i8s8lX+J7GL8kalR92zFacbu+KXsLSzt6VLnz559CbNOr8X0rO/4RKpBylc2/mhLlxp1R4CR7DjNlWtbCVW4v6/NnHh+GlF5PHz+ZrsyoyW1fem9mek4bx6Flw2NtVr1oqDfLGGdmeRlmMk1vk35UublUpuKaKO5cfEtmm3GlUnL+ZmtL4iuqultZfVo0oUIRS5YzqP+Wn/ALmeNCvLX7M0v/qT/wBiK17+d/xGcJ3TpQcNI5klhexhp8N5n5rjmfanFs6kLKuvldGHtHLMqsqzSc5VavpGXKNjn0uF0YSbqqUlj8cuUFaWVJvMqbfZZkd2nw63lSbVCPiJ45anM3752HCwUP8Atw9sDcNOVw/iU+F3arWqnytYajH/AGI4vcXXGq8JuhUSjpmZ3qdpGTxHNR9oRybVPhdeSzG1qe82o/1M3PGLI4E6NWfKqM/BwsPEdzXrcNuObxYS8Sp1z1PWw4Rct6u2pr3cmbUOEQX8S4k/8EVE53nwn6vWvDeFxL5VQivXGRrh/Eanz1lBemh76HC7KO8J1H3nN/7Genb0KX8O3pR9VFZOOXlYz41MHgKPw7Vr55p1a3flTkdK1+FJw1+zy95tRPZc0u4nL1OV8z/jUwcKjwOpTiouVCkvTMmZ7jh8bezqUZVfEVeOHpg6cpZ0Na81uKUHsotkw8nLKr0ec4vwy2t+D28qSlmcXCTbztscjhdWtwm5s73l8rTw/wA0dmeh45PHB4R/+q8foyeF2VLiHw5StKvllhyhL8rOs5f8d06e3pKVxC4owq05ZhNZWGHOkeQ4bxC44Jcysb+D8JPTH4fVd0enp1YVqaqUpKcJbNHi5pljdukxjYc0Tz+pp8QuZ2thXuKcIzlSjzcstmc6rf8AFqPD48QqUrKdvyRnKEHLmUX7mMOPLObjXqO5zD5jTub+ja2tOvUUpeLjw6cFmU2+iMVHikJXdO1u7WtaVKv8PxMNS9MrqScWdhuN9v1MSr03cu2U81VDnccdNsnNtL65veI1oK5t7aFCryfZ5RzOaXXJg4hw/wD/AF61lWu7mcLlTpy5Z8vLjVR06HScHvWVTs7dWpCjTdStUhTgt5TeERSuKNaDlRqwqqOrdOSlg515ThV+I7OjXiqlBW8nThPWLnnt10Ne+rWnDOMWd1S8OKkpRuYUVpjple5Z4+Nk9pcq2VxdXNOVSytLi6p09ako+Xl9Nd36GrxzidjV4RTlSrRdSc41YRazy4f4jm8OvuIVaVSx4TDyyqylzpapPu3sbPCfh+lXtLyV7SlK6i504QekU8brvqejHiwwu0ttVY8LueO13ecWqShRmsQglyufbHZFW0a9Tglvdwcp1+H1JRWvz008NfobVCPG52VK2dO2teWmqbrSnzTx6JdToW1K24ZYqmpctGmszlLrndsufJr0SNW0qU73j07iDUqcLSEV6czyHw5CK4VVtJY0rVKcl3yY/h+jThSvK9GLjRr180s9Yrb/AHOnSpUqDm6VOMHOXNJrq+5x5OSY/wCLWtuBSVev8P2VPwq1ahSrShcUqXzSinojbtbSc+Iyr29h9is52sqPLPEZN93FHYUmtpY9g16ZZP8AyP8AkTo50eGzqcAjw6vUjGfKo88VlLDybNehTrzt5VOZyt5qcGtNcGeacVzSxFd5PBp1uI8PoZ8e9oRa6KWX+xy7cmV9Nema3o0banKnRhyxnJyknqsvcqnGFFPwadOnnflilk49f4p4VRyoSrV3/JHC/c59f41xn7LYRS6OpLJvHg5skuWMerbb9WY5Rk/w4PDXHxbxarnkqU6C7Qgv6s5Vfid9cZ8e6qzT6czwdp4WV+1n+0j6Fd39rY0qlS4uKacYtKClmT9MHztS7LGW2a6m29csyJns4eCcU0458nZlcuVBCbh4ibzlamNy1RccKvOM9ItbndyZ7LHgtfi3ZhcZVYya6vBSxR55p67fQ2ouDpNwSzjZAYKcVlU8rQ6vC7B8Rv6VrD5PmqPtFHFtoKtWlOeiifQvhjh32Hh3j1Fivc+Z53jHojhz8nTFvCbdnEacI06aShFJRS6IOYTZLZ8XLLd29UinIXMRkWTHZvTJzCyY3JJavBHjQzpLm9iymlzZqz/i6aGeUso53ELjwaM5L5peWJvDHtlpb6jmXdf7RdTmvlj5YmPJEVypIpH2sMeuOnkyu6HsNPTcQYZphWUC30JwPVMow1uI2dCo6dWt51ulFvByrzidepXxaS5KSW7itf1Md9YStIyqxqOcXLVSWv6mq5ZpcjhDGc5xr+poVXjWl5qzbb116i8Ck6tGP2uMlOSUuSL8v6lSqKcPkUZbeXb9GY61KKlHleVLH0Ky9DQtqVFYoUoLHVrVmXEn80GaviuSWHjCKU6n5mSrGRrUcnDu89MkRjORcaMm9UzKlpnTH0HjPfQyRoPGcYGqeNwMOHnVMahLOmf1NhQQ+UKxRp/mLjTWdy1FdQwUNU4IeeXZ4FFDfsA4tsTXLuhx9NAae6w8EENaZzuLm7FaMmMNfQAy9tw5c90NRcXoi4x5lqsgRFZ6Gne8P8eTqUsRqYw10kjf5cPTZA9diy6RwqP3M35cSTw0blmuW3m1JqXM5ZXRm3c2cbiPNHy1Vs+5zJxnRk4yXLJbpnpmso5Xcrs8L4pG5qO3rfd11sn+Nd0dQ8l4dC6gkvua0XmMlumdThnFnGorS/ajW/BU6T/8nnyx1XaXbsgG+wGGgMWBZ1IGwzjcGGgGRaoAyLIFZ7CEmPqAkwAQDyDEC3ApaCbBsQDQ8tCQwNa4sYVair0J/Z7lf3i2l6SXUm3vmq32e8gqNdfL+WfszbIuKFK6pOncQU4fuvZhWViwaMalfhq5bhyuLRbVUsyh/i7o34ShVpqpSkpQlqmtmEIBiAQDaDACIua6trOtXf8AdxbXv0MmDncbk3b0LVPWvUXMv5Vr/XAGXgFBxt4OXzPzSfqzss1rCn4dBd2jZAAAAgAAAAAYHBXqMTDDNIGhhhjSAMiGBAIeEwSGtCgwUkkIQRsW1Hx6qj0WrOlKcIaZ26I5lpJxrNZxzRwbDWmm58zzMrLp6eONqNRVPlT+pRFOOIlHznQAAFUhSgqlOpTe04OP6lAtGJdXaX3HzG6oToV50JrDpycWRSnOnWhOnrKLyl6nvr/gNne3X2iaxKXzrox0Ph/h1CopxopyXqfVnlYdfbjMPbXoXdxcU4TnBxclqjZhCctzeVKEdorBSil0R8/POW7jt+NWNJ9yvDSNlRztH9ilTk/wiezbWVNPoPkwtEZatSlRWa1ejTX800jTqca4VSzzX1Jtfl1NdMr8idozqDzqxumc9/EvB0//AHUn7QZkpfEHB6u17GP+OLRr+XJ/xO2Lb8M0OK17u0owqWlsqyeVJ78v0Olb1qF1Hmtq9Ksv5JJmXl05WvoMMsuLLdLrJ46fE+O3HlpUpQ/wQJXD+P3X8TxcP80sHtFFLZJfQrDPR/5d/Ix0j59xHgtzYwpzunGPO8Zjrj3ZgocLVaS8OhWrS7RhKR9GrUFXouDxneLazhnNVXjdaMo0qkYSg+WS5Uj18HL3+uWWLgW/w3f1EuTh7prvUcY/tkxXHDqlnrGEKlaD2hPKTPSVbW4qxirm5Sn+Juo239Ap8PpaKKq1PaDx+p6NyOeq8jXXFb6ChOiox/mkRD4eqT1qV5Kb3xHJ7iPDZ9LeK9ak1/tkyw4dUW9SlBdowz+7JeTGHWvFUfhhKScpym+2NDbueAzlQzBJTivKs7nrlw+j/eVa0/Tm5V+xlhaWtP5aEW+8vN/U53nxXo8Hw6rB5t67cGnj69jrU+H1qn8K2uJrvy8q/c6vGuA0uIrx7ZqjdwWkksKXo/8Ak1/h+vxGVxWtb6E1GhHzTnq12x3H9O3xepW/BbpaunRh/jnr+xuQ4TNfPcxS7Qp/7tm1G5UqrjBxrJbqLxNfR7meFSFR4i/Mt4vRr6HLkz5I1JGnHhdsvnlWq+8sf0wZ6dpa0tYW1JPu45f6mZrAHmvJn+tag5nstPYTbfVgByuVrUkIAAzVGRNibwS2c7VkNyJchMhnPLJuRcPNNI05T8WrWq9F5UZ61TwaMpfieiMFGny04wbz1kz0cXrH2lntwfiao40KFGO7i5Y9Xojr2dJUKcKS2hFRONGX9qfEfNjNGg+b6Lb99TvQWXk6ct64SGMO+sre/oeHcReV8s180Tz74bxXhc3Owm6sO0cPPvFnqE9CZLqnhnLDmuPqtXF56PxJLwp0OI2LTnFwk45i9V2Zz7auq/Do2l3xStThD5aKopwaWqy1uevkufSrGFRdpRTOY/h3h07mdWoqkuZ55IyxFHo4/I45+aYuNaE+NxuXwy6rU1Gra1ZKrThF4xjCkjJxzjVldUKEbec5VKVeNXmksYS3wdFcE4Uv/gYfWTf+5mhwzh1N5hYW69XDP9TX9+Pe2etef4vxnhvEac1TsX9ol8lbKUo+ug53fFuJUraFOxqOVvJSjVUGm3jq3oeqpwhSWKVKnBfywSL+9l+Yn98b8i9XmKnBuMcQnGpxC5p0+XbmeWs9kjetPhrh1DEqzqXM1/3HiP6HWqyp0VzV61Omu85JHPr8e4VbrzXkZtdKa5jP9OS/6xfX634RhRjy0acKUe0I4Ly/zM89W+L7OGVQtK1V9HJ8qOfX+L7+f8C3oUV0bXMyTg5cvdTvI9hyt7JsU0oRzVdKEd/O0keAr8c4pXzz31VelPEf6GjOpKrLmqzqVJPrOTZ1niX9rN5H0GtxnhlDPi31KTXSD5v6HPr/ABbw2mn4NKtWfTTlR4z2iS8nWeLh9qf0r0tb40uXpb2VGmu85OX/AAc+4+JeLV85u/CXanFI5GU+/wBDaocNvbjHhWdeeeqgzpMMMfxndrFWubi4ea9xVqv+aWTC0ktju0PhPitVZnShRj3qTRuUvg5L/wBzxGC7xpxyW8mGKayrymoj3VD4b4NSx4ir3El+aWF+xu0bXh9tj7Pw2hFrZyjzP9zF8nCL/PKvndK2r13ijQq1G/yQbOhR+F+M18YspQT61Go/1PeO8rJYhKMF2hHBgnVnLWc5P6nO+ZPyLOH/AK8nV+Erq3tKtevdWsXTi5ckZOTZwsYPf3K57SvD81OS/Y8FjEEztwc15JbWeTDqKNCdbxJR2gss3Hh2PKlHNRxcm1rhGLh1ZUqN1+aaUV+4TqZwlolsenbkVRKSazuzH47o11yrKxqjJhPVlU4wuJqmoPxm8Rx1Jb6I7Pw3wynxPiEaiTVvSxOoujfY97J5fsaXBuGw4Tw2nbx/iNc1RrrI22fI8nl75aj04YkyWNiZ4q7RIATJkaROPPo9hRhCC8scFEt9DciMdzXhb2tWtUeIwi37+hwbi6V7CjVisR5c49epHxTfqVSPD6LzjEqmO/RGG3g6VrTpy3itT6fj8Op2rhnn+LLiSM9jib3yP/cAXqUDEwHgg1rqgri3nSe729GedalCTp1FipHRpnrEjWu+HW935qkXGfSUdGalR5zoZbSDqJaaJnTl8Pwequp47OJt2/DadKKSlnHoNppjp0Hyp9TLGljczqHJoVhNptMm10wxilIzp8q0YPkTwsZDCehFLm6j0a2HyJablUqecp/oyjHr9A+jMk4PZGLlmm9dEBSj6NBjUaf0GlqmgEimu44rL0aT9RNPOrYERXLPOoS13Wpe/TQTit8a9wFGOEPlw9MhqVDONdAFjuXD0BaDTfUBuO+hhSalqZ86GJtb7YApLT1MVxbwuIrxE9NmtzPBppNDeWks6FlsSxoStqVNZjTXv1Ne6tqdxDlmttn2OpKCME6W42sa3DeK1LScbXiDbhtTrf7M76eVlbPsefr0IVYOFRJpmKyv6vC6qo3PNO1b8s93AzVj05PUVOpCpBThJSjLVNFEU+hORkgZFsTF9wzhYEgL2G2icjAYgBgCGShgDENiAaGSNAPIxDTApPC//NTSnaVbeUq3DsJt5nbt+WXt2ZuDAw2t1Tuk0oyhVj89Oekomxg17m1p3HLLmlTrR+WpHde4qV1OlNUb5KE38tVfLP8A4YGw1qLBbWuosASkcqp/1HHX1jbwUF7vV/7HWlNUoTqSeIwTk2cv4fhKt9/U3qyc39QO9CPJCK9BjYgBDEAQADEAwEAHFwCyNajNMly56DxhBkTATy36Dw+gdCgBLQWBjbwFD1WBYwHOlsieZsguMlTam3hR1b7GxZ3tve3EoW7c1FZc0tDn3PPO3nCCcpyWIpdWdPg9j/Z/D4UpRSqPWeO54PL62brvx7bwmAHy3YDBYxqDnCO8kXSbGB4McqySzGDfq9Eef4t8Vqxbp0YU5VffODrx8WXJdYs3LT0qg3sjHWq0LdN169Omv5pJHzi8+KOKXeU7qVOD/DT8pyatedSTlUnKcu8nk9+Pg/8A6rleV9JuPibg9vlfaJVmulOOTmXHxtTWlrZN+tSX+x4ZSb2wjLOm6dPnc9+h6MfE45+MXlr0Fz8Y8Vq5VOdOgv5IrK/U5Vfi97Xz417XqenO8HN5mxHfHixnyMd62HXy8yTk+7ZLry6JL2RhyGprrGe1ZHWm/wAQKb7sx4Yal1DtWehXq0KiqUqkoTWzi8Ht/hr4o+1zjZ8RkvFekKu3N6M8Eky4ScXzLRrqc+Tixzmq1jlY+0cuAOF8LcZ/tLh6p1pf9RSWG/zI7LmfHzx/nlqvRPbKTOlSqPNSnTm+8o5I5w5iTk18XqyQUKaxThCH+GKRXO+smYeYOYv9qnRm5vUMmJMpMf0tOrIISYzpLtDycniFxdWl67mVGU6UcKLhLp6o62CZ45GptKPXJvDPrUs20KV9wziaSrw8Or32a+pknb1qeI0q1O8gtVCo8TXs0c29trJybVxThL0eTBRu6tOUKahTnqlCrsl7nrx5cc/VYuNjvW8qk24x5ouO9Otv9H1MsasJSxs8416+xhu7mFDw1d1YwVV454+xrUadKPNKincUf7tZeV7DPixy+ErpNGKpWpUlmpVhBfzSSOdCxhczl411cwbelKU8RS7E1ra0sJRjUtYPm2lKWU/1PJycVxbllbU+KWUXhV+eXaCchLiLn/Bs68/WSUUaMuLWtFYjOhBdo6s1qnH6WPLOrUf8seVfqzj1zvyNajqyrX89VbUYLtKeWaF9xmtw6PPc2XNBbuEzUpcap1riFOdKpBSeOZzybHEaLu7KvR3fK2hjjZlO8a/PTFS+MeFzXnhXpv8Awpr+puW3HeFXU4xpXi55PCjKLTPKcN+Fa99a07md1TpU6mqWMs7XC+A2/DazqU6nj18YU5LSHqkevLx+FmZV2ako1bnl54Zh+FySeTQ45ffYbZ0ovNaqvw64X/k5/FuF8Lpc9e4qVZ3EtdZYx6vsa1jwape041pVp2tGL+50zKX8zM3jw9Xfpd12OD2E7GxzVWK9V80/RdEb0VhnN+y8Zp/weLwq/wAtWC1+piq3PxFQi27S1uEusFn/AHOWfF/S7lal07sdh4yeRuPini1s+WrYUqUv5qb/AOTRrfF3FqiahVhST/JBL+pMfCzv6l5I96qU3tFmKtXt7bW4uKNL/FPDPmlfi3ELn+PeVprs5vBqOed239Tvj4M/axeV9Gr/ABJwe3yvtLqtdKcH/uc2v8aW0dLaznPtKpLH7HiWsjXudsfE48WLy16Sv8a8RllUqdCj/hhl/uaVTjPELuOat9Xaf4Yywv0RzqNpWuJYo0alR/yxbOxZ/DPFqsVi18Nd6ksHXrx4sy5VzmlJ5k236seMbaHpKPwfcPW4vqNNdVHzM3aPwpwynh1q9eu/TRHPLn48f1rWVeOz6jjGVV8tOE5vtGOT39DhXC7fWlYwbWznqbcajprFKlTpr+WODjfLxnxqcdeCocD4pcYdOxqKL6y8p0aPwhxCaTr1qFFeryz1cq1SW8mRnucsvMv41OJxKPwjaQ/9zfVKnpTWDco8B4PQ1VtOq/8A6k2b7aFzHC+TnW/5yCjTt7df9PZ0KS7qGv6mSVeq1jna9tDE5EuRzvJlf1qYRUpN/M2/dkNpCbIkzHa1dRTkkTKbJbJbNKbkS2xMnJdIMZUk+qa/Y8HKOKUs6OLawe7cuV5R5Lj1tKjetU15azzE+h4l1uOHM5VKTXl7mzGm5rQ1o06kKuJQ1T1R1LXEovCXsfQeZMKDcMS7Hovg7gqlcviVZLlp6Uk+r7nOs7Opd3dO2pbz3fZdT3tGjTtbenQorEILC9Ty+Ry9ZqOmGO1N6ktjbIbPjZV6pA2LImwMNaJvCIzkJZloLY1IoNW/u4WNnUuZ/hXlXd9DZbbeEeR4/ePiHEY2du806TxnvLq/oerx+PvkxndRrcOpzuLid5WeW5N/U6TeSadONKlGnFYSQ2fWnr08tuxjPUaSJHqEGcPXcabFnQPlWiAZSJ0Y3/QCkMhPJUW86AUml9Rap6F+I2sNInV64xgBebuN5aH9BPfQAUOZ7JMtLXGESpaDbSWqAajFZytQayiVOMm+XZditwGnFrrldBS1WgJYfoxtfl2ATjosBjCBJ9WPpoUSk8lNYWMjwLGQDoDQdSW3nbABlLRITbyUtsdRSfbdAOLz3L33MdB6NKONSlqt+oFN6YJer20KTSJm8STigGsxaT1RfsTvgvXaQCIlHK0MjwAGnOll+pr1KalFxnHKfRnSlFMwTpqTfoByqNevwefNFupat6x/L7Ho7a7o3VGNWjJSi/2ORUp4i9MrqaEfG4dWda1TlSfz0v8AglWPW5yC3NSwvaV7QVWjLK6p7xNr2IoYdR4DAAMXUYAGRDQDAQYAb2EAAAIBoBgJFANbAJDQDCUYVYOnUipwe6YAgMMPEs9Myq2/Rbyh/wAmxCUakeeDUovZoEzFOlyS8Sg8S/FHpIDT4/UlDhjoxeJ3M1SXt1/Y3uGUFRt1hYwsI5HEbj7TxqzoOEoqEHLDWnM//B6KnFU6cY5WQKAAATBBuNIBAVohdQha9xcud9SsDwFcb2JyJy7C1bNMHn1HlLcl6aEtY3AyKSXQOfGxEVpkeEFDk+402xcrfsUtPUlFQg5PEIuTfRG1T4bUlrVl4a7dTbs6XgUU8eaW7MzZ8/m8m43UdscNsVGhRoL7uOv5nuW9x4Ycp8/PPLP66ySEMfKVhGdG0pehr317bcOoOrXlGOOhluriFtQlUk1p3PmfHuL1eJXcnzPwovyr/c9fj+PeW+/jnnnqN3jXxTXvW6dBunS/dnnZTcnlvLZIH2MOPHCaxea5WssKTnHmMRu2sOajt1NSccTaS6nRhJnnJzoRa/DuYOV9n+hlpeLFNRjo+6AxFRpym8JHW4XwO54lP7unp3eiPT2vwfSp4d1cZx+GCOGfPhh9bmFrxNO2zu0EqKj6n0uPB7GNLwlSXJ7LP6nPrfCNjUk3Tr1aWemMo4zzOOt/yrwcabbwkZFQPXT+EKkf4F3Rn6Tjg0rrgN/bJuVvzxXWnqdcefC/Kn86886LQ6c5W9aM4qDcXnE1lP3RuVKTp554Sh/iWDSrRbqRaWmTvMpfjOtO3Y8du/ttGtN0lCD1jTpRgsddke6hUjVpxqQeYzWU0eCdjOndulRoVKmiaUI53R6T4dupeHUsa6lGrRekZLDXofP8vi7f5R6OLL8dvI8kjPlarueSkzHkpJ79PUJWRMptRi5SaUVu2cXiPxDY8PzBT8at+SGuPqcCvxm44jPFRyUHtTTwj1cfBlfdc7XrJ8Vpubha05XE1vy7L6j8XiVRaQoUV6vmZocLqRp8NpqnFRbznBhv+LTtKkacaLqSks5lLCHW9usXUdGdO4b+/wCIzS7QSiY3a2T/AInjVn3lJs4c+M3tRPldGl/hjl/uRacVulcwdarz028STRu8HJraSx6DFlQWXSo0l3k0jVr8T4dHyyqwm+0Fk1OPUY1aEK26pvX1RxYVkvLRakn+FRydOHilm7TLLTtSubO5rQpctWDekedaG9XvFTqWvPDwqdKWZOLxnBwKVrf3GHRs6iWfmceVfudu6tvHt3RqtRm4rMlrhnS5/wA79Zk7O3G4s69KVZ1YqKXNLL2R4PiF7LiV5UuHJ+HnlpQf4Yr0OjDhU6dOVOpxKXJJYcYxxlHMvuDVrbz2cpVodsao9GPPhldOeWFjXxrtgI1eZNp6LQ11WrS+6y4t6NNYZ1eEcKjfRnKaTpQfLvjzHS3Ge2JLRZWN5epSpOjCEZfNOos/oehlV8JtLE54wlHqzlz+GbbOXdTX8qS1+puxsPAt/DsZxoSe9SacpfQ8vL1yu7XfHch206HDLKja1a8I1IpuSb1WfQ1Lnjcc+DYQnKT68uZS9l/yOj8OWzqurc3VevUe72ydS3tba0jy21GFNPdpav6nPPl441Ja5ljwicqn2jiXmkvNGjnOH3k+rOs/M8svAsHj5OW5ukx0lIuLktpMEhnPda0pyctJxjNdpLJqVuF8NuH99YU9esVg2gNTkynys3GOTU+FeDVHpCtT9pGP/wBH8Jznxa/6o7YjrPJ5J+s/zjmUvhfglPV0KtT/ABTN2jw3htvh0eH0E11lHL/czZQZM3yOS/qzjxZPFnFYhywXaKwS5yfzSb+pGQycrnlftamMh6dh6EZDJna6VzCbJbFkCmxZYsiyAxMXMiXJF0KbJbJc0Y5VUJiMjZLkjBKsY5VmzpOOptsOaMcqiXU13P1BZlsm/Y7TiqXKMrqoh1Owo0KsnpHHuZvsTSzKrFex1nBaxc9Ndzkc/i6o1bVQrRzNvy43R2VbU1+KTZw+PU50uIxb/hzh5V2xueji4rhduWee3ChS5asoSfsbtmqUYyjUbjJaqWMr6kOjza9V1PRfCFG4qzuYtR+yTSjV5o55vRfqejLOYzdcZN12fhzh7s7T7RWilXrL/THodSTHJ6kNnxuXk716scdE2SxslnmrrCZLY2yerEijZEyeg2yJSSjKUniMVlvsjpJv0m3O47xD+z7FuL++qrlgv9zz3Crd0qbr1F557Z7CuriXGOKym8+DDSK7I3cJLC2R9jg4+mLzcmW6pMeMk5BSex2czegteoNi9gHlroNPQSeQbSAvCwLlxs9BxeUPICUSksCzpjoEWgKe+Aecb9AwmJJtPIGSEsluCxlpGKEsaPGO5UH0TWPcKqMYa5j9UU0vclSfM04/UrOuiCJUUlpHHcMIe+dRYT64wAYSW4avYAykAt3uPD6D+ZagsbLoUAMNv/JOcvugG3nfDQpejH102DHrgCcMaXceH6A1ggfQloNeo0vUBPbUpPPqTy5fqNRa3yUPs9iubL1E4pBlPqtAKT7ldNDFz8zwovKW4ctSXp+wFSytdvcxuce6b9AdvFv7yc5emdC40qaT5Ir3A1ZxcspZx0wa86U8vKce2uToyi3HCbXsTKGegHFhSuLCv9qtJZl+OGNJI9Bw7iFLiFHnpvEl80HumaU4qOxzq1KdG4VzZy5K0d10l6BXqk8jOfwzidK+p4f3daOk6fZm+ZUDEAAADAABiYDAEADAQwDYYhgNDRJSABoQ1jADB7CRNaap0pSfRNhY87xDmv8AjMKEXvKNJfXV/sewcYryxSwtDy3wzSdzxeV1LVU4ynr3k8L9kz1IKEDQdQKyAAOpAbgAFDSGGwmQefTb0wXohPOdBcsnL0NMm8t6D5cj26i5+wDxgYJ53E/QCkjPZ0vFrpY8sdWYIm9wl/e1490mjnzXWFax+t9p59A5R5Fk+Hld3b0mBLkQ5mdrplyhOSRhdVLqYpVW9tx22acX4vvPCsZwTw5tRR8+e57f4uVKpZrxKsVVUsxjnc8jHwaerXMz7fiTXG8vL9YI0pz+WJmjaveTwZozqzpznToN04fNJLRGF3L6YPW5Nmn91Dli9BrGc4SffA6dre1acZwpJxls87lOwv4wVR28uRvGcaBCy+5ns7ad3dU6EFlzeDVxWhJc6SR674NsHyTvq0cJ+Wnn+px5uTpjt0wx3Xoba2p2dtC3orljFa+rLayXgR+fzzuV3XrkkTgWC8BgzGtseBrK6l8pLRr3D1Wtc2tteRcLqjGpF99zzfEvhRxk6vDJZj1ozf8ARnqsCeh24vJzwv1m8crx9nx7inCKdS1jTpRm3n76DyummpoQ4zdU+KviFVqpUlLM0lhP0PbX1jbcQp8lxHzL5ai3R4bjPDa3Dbjw6qzGXyzW0j6fFz48s1XG4XG7j1sPijhEqSqTuJQk1rDkeUYKnxdw9aUKFxWl2wkjk/C1lZVada4uqMa9SElGMJbL1PU0Z0qS+4taFL/DBHHkx4cL7jpLlXHfHeMXS/6DhEorpKUW/wB9DFU4d8ScSWLyqqVPrFyUV+iPRO4rNYc39Fghyb3bfuzj/fDH/XFetv1wKfwfTz/1F6vaBu0/hzhdFL+LUa7y3OiBi+TnWpgwKhTtoqNGnyU/Q1r+0d7SUKcoRqJ5TlsdH+hjlb05PLyvY4zksy7NXHcceHAK6Wa99a01/LmT/wBjLDhPDqbTqXdWu1+GK5UdJWtDqm/dmSMIR+WEV9Dvl5WVmmJhpgVRSb5aTlF7JxyjLGrdRXLQpUaK/wAKRkT9Q+pwnJlG+srFKnc1H97dNrtEStqf4pVJ+8jMAuVpJIxqlTW1OPvgrHbT2GBN2Gmpd8PtbxffUIuX5ksMKVpRoUlSpU+WC6G0DR0/rlrW0mMYIw5dMGRDaEjFyt+rpaKRGR5MqoQsgBSYsiFkgrI8k5DIFZFkWQyAdUMnIuYCwMTmkS6y7l1sZcg2YHWXcl1JNaI1MLTbPzITmjRqXdKl/Er04e8tTUrcbs6e1WVR9oo6Y8GVTtI6zq4IdU8/W+I4rKo0PrJmlV47eVPlnGmv5Ud8fFyrF5ZHq3N47e5r1r2hR/i16cf8x424vbirl1K05e7MthUnQqxrzowrR6xmspo7TxJ+ud5neq8cs46QlUqvtGJmtryhc0uedeFB50jUkkzBxCpb3fCLavRuFOcJuMoNKLin09TmKmuqydcfHwZvLXo4U4Vfkr05/wCGSZmVrFfM5P2PLeBSlq4YfdD57i3x4FzXh6KWUdZw4xn+lesjTpR+WnH6jzjZRXsjzVHjnEKLSqxpXEeuViX6o6Fv8QWlRpXEJW79Vlfqa6SM9q6uWJt52Jpzp1o89GpGpB9YvJUtimxjmeF1POcauPtV5yR+Sjomu/U7V/cfZrOc187WI+55qEHnGHKcnstW2ZuUi6rLZ2tW7uKdvRWalR4z2Xc9/aWtKxtKdtRWIwWr7vuc74f4T/Z1B1q0V9pqrX+VdjqtnzvJ5t+o6Y4lJkNjZLPn2u8KTxoJywhPTUxuUpblkaNT5mNvBjjlTaaSiksPO4lPmb7I3IimzhfEt7ONGNhbpyq1dZtdInYrVo0aUqs35Yo8/Oop1XVnjnl1PX43HvLdYzuo17K2VtQ5W05PdoztAgyfUeUgBvC1JepBYhJ4Q1lgGcbCb10QCQGSDeNWP1MepkWMACb6lKONe4cn1FzSjtECnlrYcXy57kKb5cy09yqcvFlrHGm4D3z5RwxulgWVGWrx6ijVbljTl6LAVlSzLOuiG8rZJk8uU5LK9y88y0/YIxqbUtdEZMprGBPDYmsPQB4aDC6gs9Qb9ABIF/8AmAbwmJMB++oLRYxgFruhpgT9NhJt69C17lKnN/LHTu9CiUDaKUacW+eq/wDLqNzpLSNFyfeUgMSknov2L5JJbP6ot15JaYguyRq+arV55Sbj0TAyTytVq/QpT5n1b65HphY0FyLLcXr3AHBP5nn3CKhtGKQ9twyuxA5Ra1TBSQZYklLTsBTkEd9DHOSiVGS6NZ7AVsxNbvOA509yJz0YGC4kotOPm9jXlFSeVuXUk5ZT8oqUJJ6yTXsBqV7aXOri2k4V4dV1Orwri0brNCv93cR3i+vsJ0EllHOvbVVJKdNuFaOsZroVXpsjONwvi3jTVreYhcrZ9JnXTMqbQ8YFuPoAuoDAAQxDAFuGAWg8gJDEMAGgABgAAM5nH6zpWDin5qrUF9Tpnn+P1ee5p046unHmx3k9EFdP4YoeHYVK2MeNUePZaL+h2TFZ26tLGhbr8EEvqZQlACRSAQADCAEAAUTKSXUMiUM6tgcRvG5Lk+g+XTUNjbJpJr1GkkLIakFbhgSKyALJs2NTwrmPaWhqNtlRk04tfheTHJO2NjWP12pSSIlVSWhhlPm1Wz1IPg5TV09kZJVMkuTZIsmNKazJ4R57jvxArZu2snzVVpKfZ+htfEXE/wCz7Lw6b++raL0Xc5nw1wmNaX267jzLPki+r7n0PH4cccf6ZueWW/URw34fq3q+18RnNRlqot6s4PFLN2N5Olryp+VvsfSG85yeY+K7PnpxrwWsNH7Ho4fJ7Z6/HLk4/W3G4PxGjZRrwuISnCrHGInMqOLnJwWE9kS9BrU+g8z1kOanwmg4Nxapp5RkhxGhQsqjlOpKWjgubRP2LrU3Dh1FNY+7X9DzdZyrVFBLlinsuvqSkbtlb1eJ3cKVPPnl+iPpNvbwtranb01iNOOEef8Ag/h3gW8rucdX5Ye3c9Mnk+X5PJ2vV6MJpLRLRlZDR4csHSVA0DEc/jS9CJIM4Fk3vZIholoyMlmK3GNo1b60p8Qs521VZyvI3+Fm2zH+Je4wyuOUsLNx4fglaVlxOpbVdMtxee6PVQm09zx3HKyjx+6qU9MVMo9Na11Xt6dVbSij6fkYdpMmOO/jqRfMsgYKM8aGc+fY6GCACBgIMlDAWQyAxk5wHMBQZJyLIFNhkkAHkAEAsCKJY0GAshzJDQoCHUSIdVdy6GYDX8b6idSTWxZjaNjmQudI0at3Spfxa1OHvI13xW2f8OVSs+1ODZ1x4cr+Jco6jqpdSHWOb9qu6q+54fNLvVkoj8LiVReavb0F/LFyf7nbHxcr9YvJI3/Fk9kYat3SpL7ytCHvLBqf2Zz63F7cVfSL5V+xkpcNsaTzG2jJ95vmf7nXHxJ+s3lY5cYtObEJzqy7U4tiV1e1n9xw6ph/iqyUf2OjHEFiEYxXohuTfU7Y+PhHO8tc77PxWr89xb2/pCPMxrhMZ/8Aub25reilyo3s6jOs48Z8Y71qU+D8NhFx+yxlnrJts4HH+E0+HSpVbZz8KbxLm/Cz1ZjuKVO5t5Ua8FOnLddn3N60lteCaJ1PQ1fhieX4F5Dl6KcdV9SqHwt519ovoqPXw4mmHnJ/LrsYoV6lN/dyaPU3Xwqtfsl34i7VI4/dHNrfDfEKKyqMZr+SWQjnwu5QeZpP2NunxCk1mScTRr2dzReK1CcPdMw6xeGFd6FWlUSdOon6DqJ77HA5cbaepcalWC8s5Je5R1n7k4Ulg50by4W8ub3Msb2b+aKTA6vC+H1rq+hStJypPec08cqPdQtqEKSpyTqYXzy3Zzfhuwdlw2NWosV7hc0s9F0R11sfH8ryb264vVhhNbrQuOCWd1JSqSrLHSMjYsuGWVi+ahR8/wCeerNlDR5v7Z37W+sXkiTGS3kxashNksbMVSSWF3MxqBvmY3sBLNSqierwLHRIcmaHErrwKSpxf3lT9kdcMbldM26anErpVqvJF/dU3/qZo6OWWsja6dgemqPsceHWaebPLalttgE8iFn6G2De4mLLHzIB4BLDJWpSeAFkFHsPCyNPIAk1uGpWO4Y1AIuSW2fcdPmUsttLs2C9WXlAElCekoiwqUZTispLRD3KS0AweJKph4WPYvkitNS2v/JSSwtQqZqajFwe/cyLmxqln0IlLEkv1LUggxjoG49X0HyNJ5wvdlEN4fYHqVy04rLnKT7JC54/hp/V6gQ3nGjYbPs/UclN/i07RQ+RLGXkgXO3rFMFlyXRrfJXZ4G3kAei0ePYPdt+4sDKFoMWcf8AgevT9wE1n2DCxsHmyXy52WoEZ00zoUpvlxjQrlafYjKcvKtgG4uS3CKSSRecjjHIEYJ5VzZ6syvCIkmtUsgGI4aaMb5U8LRlvL7mN67ogHIMaBvutAyBqThLnw+o4x8OTy+hszimtVqa0ocsvcDfg1KlFrbBr16T3Rhp1pUXmPmXY2/EjUimtMhXKurWNdebyzXyyW6NjhfFpwqK0vnia0jPpIz1aeUmjQu7RV48sl7NdAPTRegZPOcN4pVs5xtL95htCr/yegjNSWU8p9USqsATGADEMAAAAYAgYAMQwDJSJK6ADeFnseeso/b+Pw5tYeJztfyw/wDODr8Rr/Z7CrU6qOhrfClviVxXnnMYqkn67v8AqiK9BJ5bEPqHQqJGIaCAAYsyzsAwDDAAwPIhgcJiHUnCjTlUmpSx0istmK3upXD8tCUF3kjTLKojT9Aw+o0ihDHgMERKY0HIhpYCxtW8+eljrHQyGnCfhS5l9TbTTimtmfJ8ni1dvVhluAEsvAEVJqlRq1HtCDZ5scd3Tpb6eG+Irv7ZxapyvMIPkie0sqao2FvTSximj5xKo53HO+ss/ufSqcuajSktnBf0PpeVOvHI48d3VM1L6gq9tOElnKwbTE1lYZ83HLrdu1m4+Z3VGVCvOnJaxZFNc04ru0ju/E9k6dwq0VpLc4dHStBvpJH3+PPvjK8GeOq91x2Ubfg9vnGcNI4XBrCV7d06SXzPV9kZuL3jv7qEE80aXyo9R8LcP+zWjuakcVKukfSJjmz64tYR2adOFGlCjTWIwSSRaYmTk+JllvLb0aZBMnmG2Xts0lkjbFk51sAAZATJY2yWyVqIkzWua3g285512RmnI838S3klXpWtOWHDzSa7nThw756MrqOP8RW3h1IXMV5amkn6m78NXPiWs6MnrB5XsH/7jwmdGePEj/U4/B67tOIRUtMvlkfZyw7cenmxusntYSwbNOaawacXqZIywz5GWOq9Lb5g5iIyyhnOxT5gyICaDyACyXQYZFzITkhoXkM4MfiIl1EXQzZDmNeVXBDq4WrNTC1NtpzRLqJM1HXj+Yh1m/ljKR0x4cqnaNx1UT43Y1c1pdIRXq8h4cn81eXtFYOs8XKs3kkbDqNLXRGCpeUofNWgvTm1JdvRfzKVR/zSbLhCnTX3dKEfZHfHxf8ArF5WH7dCWlOlWqv+WD/qHiXk/wCHaRp+tWf+yNnml3F7s6zx8YxeWtfwL2f8S7p0l2pwy/1Ynw+jN/f17it6OeF+xsgdZx4z4z/S1ipWdnReadrTz3ksv9zOptLEcRXosEZDJrUZ7Wry+4gyIqbAxbDXcIYxZDJVN4FkXUAKyLIhrYAWc4S1KeU8Si0/UqlWdCpzxipNrGGFWvO4kpVMaLCS6ARkevcjIZCL5m1h6rs1kwVbKzr/AMW1pSz15cMypgBzavw/w2ptCpT/AMMjVn8MWmvJc1V7pM7bEF08/L4X/JeRf+KGDLw34Xm+JUpV5wnQpvmnjr6HabUU29NdDqWtLwqKysSnqzz+Ry/zwbwx3WdvL/oCEikfBttu3r+GkUJAzcZDZLGSyLCexhguZ87z2SaMr1YpBpLJbHJkNmpNjHXqxo0pVJPRLbuefqSdWrKtP5pfsbfEbh1q6gv4cP3ZpVJYPqeNw9ZuvNyZEsczBiyLL6ntclZFkWXkQFbiYlsPcgE8DySHsBWV0BNt7adyEi86aAVzNBzepK1DOJYAvPbBkUlsY4rOEuvcM8u+H7AXzY2WS4ybRK/VAs5zF4At8z+VNg00tWl6C5m92wjtq85ChRim2+ZvBkT0WF9SU912Hl/hCK5n1lv0B4S13FhJ5xuUk3v+nYBPGM66Av06lOKit9RJKXUBboNM5Hn+VhvoAN4BvTQeF1HyxSXK2BOO44x7jSZWNdtCidNtvUMYG1ga1CJWjKx20GlgTzJ9gp8re7yLkw9Ssabj1ASQ2uyBablICeXK1JkvKZcBjAGFLJja11M72MbiBjSJaxsZeXBOGQSs9Sks9ECTfUuMcbvICnRpz3j+hKocr8uxnWB4A1pRxHqYZ0uaD7m40skYWF2A5FzbxqwcKkcpmGy4hW4VNUq7lO2bwpflOrWpJvONDUrW8Zw5ZRzFlHdoVqdamp05KUXs0ZTyFC4uOD1cxbnbN6x/KemtLuldUVVpTUovt0M2aajZGSmmUFCGkIeAh4ENCACkIaAT0FzprRpiqpyg0nhtYNWzrclpC2laqM4S1q9ZCjS49WfLRovCjKXPLPZanY4FQdDg9DmWJVM1Je7eTzl6nfcU8GOWpSjRX11l+yPZ8qyqcFolypJEi0m9QACoAEMIGCAAGAAgAAAo42Ab9RNsSeWaZDyLXJeGIAAYsZe5EGMsb0BJjwnuBhnHn0yZqNTw3jeL3JaS2BJGMsJlNVrG6bnTKejNfiEscMu2v+0yqclD27FVqarW9amtVODR83LiuGcr09t4vmGcM+hcJv6F1Y21ONaDrKGHDOp8/qw5KkoveLaN/gNx9n4rbze3Nh/U+jz8c5MHDjz1XvwBrDfYTPh2ar2Odxq0V1ZzWNUjw9Ok4VmmtYs+j1HGNKcqjxFLXJ4av99dTqRWjk8JH1PEyvXTzcs9t/gtjPiHEKdFLyLzVH2R9C0ilGKxGKwkcr4c4e7CwU5rFWslKXojps83lc3a6awx1DyLImJnhtdZD5hcxIGe1XSnIWSckOeGN7XTLkTkYXVfRApNlNMjkTJ6EykRJ5KiK9aNGjOtN6QWTxFxWlcXFSvP5pyydf4p4hyRhZ03q/NUa/ocGjU8R4im5Y0SPqeLxXHHd/XHPJnsbxUeJKlJ4hNYfua/GKCtr7xINYk86M5tZzdRuSabfUjLbzJtv1PozH089y9vd2Ff7RZUqud1r7m3Fnn/AIYuHKhVoP8AD5kd1SPl83HrJ68MtxsRlgyKSZq8weJg8/S1vcbfOkJ1F0NVzb2FmWDWPDlWe8bPiESqmHV7saS66naeLlWbySKdVC8RkvHYDrPFjH9Vx8SpJRhHVlVqFajBSm44eyT1MeXF80ZNNdhScpvM5OT9TrPHxjF5aW+7DCTzj9Sl6kvVM6TixjNztCWcjJWhRvrIzugaFkEyitATELTIFJgxBkqGAhoKQIBoA0AMYFkIY3tgQskVWRokEyihoSDmSAHqGxMmkhp5WoDD+gLXcST+gRQuuBMrOoCGDQgoABPPLpuS3QzWlJV7lZWYQ1fudN6yyzHa0vAt4x/FLWTMp8by+XvlqPXhjqGhoSKR45GqBNjZJqgbIk+iG2QiNHsiWxtkM1ICTwc7iXEraznChVqqNSqsr0XqblWfJByxlpaLuzwnEZV3e1XeL72WrWc4R7/F4e13XHky1HfrYlFSg1Jd08ms3nOTkWd1O1l5cypv5o5OkqsKiU6Tyn07H1Naeba21J+wNkrKzl6hkgrANJCT9Q39QAM5KVOeNkl3YOMYrWom+yCknjfYWme4010WV6hzPphL0AevYEk95foTnXuNaLVkFOSWiTeRrXDT09ieXDTKy3+hQmte7Wxa0wHKk/UpY0IKi84SL2MLWGZY4YB1emw8ZSApPLCsez2xoZFJKO/XsPl9AWgRSw9RkplJ6gNbD5ciKTKJ5cdAS01WCgaAXQMZDRvCHhgGcIE8vUXuNICmtBKL3RSDYIQ4rL20Eop6yxsWvKsIKTQ0kA0gFyKSKUVhJMeMbA1goSTQ1DTLbAeWyImSXQxuLM3KLHoFYeUTXQytENakEcmOo8FPUT0QCwUmTnI0tAJqbY6sfLhYRDmnWx+UtS82MbgRKDNepDXY3CJxzsslHJqwznTK9TRi63Da/jWuXT/FTO5Ugupo1octR6ZTA63D7+je0VOlJZ6x7G9F5PGTp1bWqrm0fLNbx6M9DwritK/p4+SsvmgzOl26iGRGRSaCmAAAAAABhuZRpUJVHpyrLM3Q5fxBVasPCi/NVkoIVWv8OUnccThWlqqcJVn7y0X7ZO7c0b+pWn9nuFSpzSi31XsanwzQULStcL+9nyx/wx0/5OwwJpw8OnCHM58qxzPdliwMISAEgAEMQ8hABLk+g0gAY8A0Bw08izjZDSedCkl1NslzZWgL1KxElogbZUUkSh7IIG/NoGokxtepRPUpIBLJA3oOlUcJp9CRP0M5YytSvFfEdsrfjFdR+Sb54/U51ObhNSW6eT03xVbc9CldRXmh5Zex5Y6SetMb1X0vh91G9sKVeL1cUpejM/seM+GeLxs6zt7iWKFTr+V9zr/EXFfs8I21rNOc1mUovZHzOTxreTUevHkmh8Q39P7G7WjPmqSfma6I1fhnh7vOIRc4/dUVzS9X2OVQTqNJJyk9F3bPoXB7H+z+HQpySVWS5qnudM9cPHpj/a7brfTsSMlnyrd3btIGSxiZitwgARFDwY3uUxMsiJaBaAyWyhSZr3d1G0tqlxU2gtPVmWTPK/FXEfErKypy8sNZ46s9Pj8X9M9Mcl1HGuLmV1XnWqPMpPJ0Phik5cQnWazCnBrONMs5tna1b66jQo4Te7fRHsLGzpWFsqNLXrKXdn25JJqPHvaqttb1lirQhL3Rp1OB8Oqa+Dy/4WdEQ9o0bLhVCwqynRlN8yxhm4olAYuEyvtuZWQuVdx6dEshghrlk5DpjE7VedAySu4GpImzyGRIF6lA90AMOgDTD2F0DQAb11BsQMIYC12GVTASYyBgJvUGUPIa9Q1DqAMMhkT9AKT/AFDLwIE8gVknqPAACeoNpahuIBt9AWRPfIJgX6BjTD1Jiym8gLHoNLG4ZAAT0DItmNADBAtxMBqWQYkMAy2Z7Kl4txzyXkp6+7NaUlFer0R16FLwaEYfi3l7nm8nk6YOnHjusmctsaEij4Vu69RoYITZWQyRslsNJeWDBsliKGY3l57Ld9hylg4HxRxR2tp9kovFaqvO+0Tvw8dzy0zldRzuN8clXuXRt6nJRjpmP4mcK4rKU9G2+rb1MTnHGEiHqz7vHxzCajxZZbrLCs08dDZt7rwq0ZN4i3hmhkyW8HXuKVJfimkaZekxlPL1yCaba7GSpFeJLVYyY5RSemDLS1UjBaU4v1YuZt5zj0RBWHjQKT1GlgMaDCBocRZ6dQSaemwFRjtoDTKTysj/AKgJa6MeMv2KSQ0sdNQqVnCwVFN7ae5SXoPAErmzhx075MqFjDGkQPA8NLT9giis42QBFeUWBrPL9RoCdFkoB8pUCGCRSWgAkGBppAgoUUNrIYyWohEKONx4XVFMGgJSwP1wNRyy+XokUSuXC1SyDReO6WBKIUlHuPlHql0E3JbogYmLmBNFAPI+XKDlS3AfQnD6stQ65HjUgwtEszNZIcQMLAuSIIBrHQWXyvoxt9CHhyyk9ABQxFPGWOO5SeUCiA+gsIaDbUDDOClLWLeTXrW7ct/1N3xIyeAaTKOLOhU1x0NKraVFPx7fNOtF7rqd+rQbeY7GrUpNLLQF8I4wrl+Bc/d3EdMP8R2kzyV1aKt5o+SpHaSN3hXGZKatb/y1FpGb2kSxqV6NMGRB6FZIoKQhoIG0jzvGqrnxGEVlqjTcsfzPRHfqPCPP8Op/beM80tVOs2/8MP8AyRXqbG3VrY0Ldfggs+/UzsG8vInLDKyYE5KSAABLUoKhJ8zLwJMeQE46proNaITkl1MMrlp4UQjOhs143EVly1b6IUq85fJHHqVXNykLIhlcybeN8DJwPZeoDyKT5lgQ9kUOEcIpLJMdSm1gAeFuJy003E9QCgGIWSI1uJ01W4ZdQf5G17o8D0Po0o89OpF680Wj57cUJ29aVOcWmmbxZqIJuSXc3qdJqeHqattHNxTXqdunayrXEKdNZlJ4M5WT21ju+nY+FeGKpcO4qRzTp7Z6s9bJ5eTDZ20LO0hQhpyrX1ZlyfF8nl75PXhjqDJLBiyeTbpIBABlQS2DZOc7mpFAmx5IbeWVCbJbwgbIlqWTdGnxO+VhZTrP5toLuzwc5ynOVSbblJ5bOr8RcQ+2XvhweaVLRerOVQh4tTHQ+34vD0w9vHy57r0Xw3axo28q85RVSo9FnVI7WGtWtDy7k4xWM4XYqN3WprFOrNemT06ctvSNonJwqfF7uH8SMKi9UbNPjdGS+9oyp+q1Gl26qkM1aN5a1/4VaDfZvU2DIeSXqx5JCjI9xIGA84DOhPUYDb0DIn8oJ6ZCGDeBewBRH1GycgEVlIeSMa5HkKXNl6bFkpDyUN4FkNwemwFZAlaDAeWwb/USYvxEFrbUNBJDa0KHkX1E9EJgNeoxaBomAtyhY1Bb4IKFnQHow2RRSfcNxApa4ApibBsWADI0SwyBRMqkYruw92Y3TbeI/M9ES3Q2OG0pXV06s193R29WdddzFa0Fa28aUemsn3ZmR8PyuXvlp6+OagKQkikeaN0yWNklqQNksbJYaDJbDJE3hZb0W7NYzd0lYbiqqNJ1Hv0XqeU49SjVtFW/vYz37o69/c+JNyfyL5UcW45q6ec47H2PG4es3XmzyeenjLwQ3ob1xw+o5ZpIiPDbiW6SPa4NNHd+HbDnnK7qLEYaQXd9zXt+GRjrVfM/Q7nCYcqqQS8ujSAmvBmE6dWlzdDSqUnGWxlpiwNOSMihjoGPQglLKKSSY1FjSxnJQksj5PbI0s7F/QCY4XuVjOqFjD0LitAJxhIyJZfsNRHggSQ2s9BpFJfqBCTyPDLwGNQEtClqGBxwAtmPAaZHhvqAlgpAoLJWMFAl2DlfQuKwPGCCFEpRwVjQaKEojwWlkMakGPGpWEU0mtQUVFJf1KJwx6lBjXbQBYHgYlh7hSbQ8A49cFJECUc7k8qMmMCYEKnjqDU08OWTIll5G0BPmxohPlxhvUvD7goxe4GPGmd0JpmVxilhbGKUMbNgY5LBLgZnF9NTHJtPGMAYZpOSBJZ0yXyx1aBaECSHqPcWQJ8yeUXjK1S1Jm5RjpHJVNuUU5LDAxyi9MCimtJPBnx6ByxfzIo1ZN5ws/UdWhKcdZY9jPJR6mOU2nhAaNWzzrGWvY59zZqtHlmsSWz6o7U8s16tLMdNwNLhnF6llUja37bhtCoz0kJqSTTyn1R5qvbxuIOFWPs+xisL+twqqqFzmdBvyy7EsWPXDMNCvCtBShJSi+qMmTKtPi9z9msas0/NjC9zF8MW3LUrVZf3cFTT/merNTjlRTr0KLflTdSfsjucFpeDwmi5LE62asv82pYrewLGo8pjKyQ08MWVkUpcupFXsTJ9DF9ogurb7Ih1Kk35Y8q7so2E0t2TKvBaZy+yNOrVo0ta1ZZ7EK65k1QpfWWgRsyqTktFyruYpzpwXnnr2Rj5a9RZlU07JFwoKOvKmXSbYKl41pRo5/mloY5Rua6+8qOK7ReDd8KL1cEVGhnVSeOwGhEbaRMc4CSyGQ2u4s5KUEt9Qx0ASyMAwlsAIOoYJZRYEta+gYfLjOAptiE85ayGq3ZENaHP4hwejfy8RS8Op+zOg4ycHyfMKMZac2F7Fg8pccGrWclKWMZ0ktj1fwvYJQd5VWXtBP8Aqc68p1OI8St7Ci/KnzTa6HrqdKFvRhRpLEILCPH5XL1x1HXjxNvUTGSz49u3phCADLQACWyyCW8hsGBM0EyWNslvQCJM5PH+IfYbJxg/vaqwvRHTnJRi5SeIx1bPB8Wvnf306r+RaQXoezxOLvluufJlqNJpvbVs6VpbqnDL3Zzoz8PzrfoWuI3EdsfofZjw27dWUMLuY3HCyaK4tcdYwf0KXFm9J0YY9Co2ZbGKWxH2+jLeDj7C+0UpbS/UKJQj7PujNQvry10o1m4rpPVGJyjLZolk0rs2/wAQRbSuqDh/NHY6VG6t7hZoVYy9Op5HORKOHzRbi11TwTRt7XPcPqeXtuK3dv5ZT8WHaW/6nTocctqmlROlL12JodRi5jHTqRqx5qc4zXdMJLfo2Rpkb7gjHGXkSby+5SemgF57EtvoLIZAaz1Y9hIJMB57DJAIvIsiyhoqmmGSXoysgP8AoLbcMjazp0IhLQpabE4a3Y0yqrLSQ8khjICe4A1gNwG9A0az2FJcq3yCwgKWwuuR/wBB4RABqHQXmS0KK1ASfdizhr1ArBHK+bPUvmwtmGeuiIFh9hrAvM9nkrkfLnAEydOEcylg2eHRjVrSqLWNPGM9Wa/LFx8yzjY6PD4pWnMvxTZw8jLrhW+ObrZWuo0GMDR8C+69ZooSBliEyRsTFUmS0Nk9CxonhbGhe1srwYP1kzZuK3hQb/E9EjlVHlN51PoeLw7/AMq4cmWmncT5pOPRGHkMklq9NRR1bz2PqT08zXdOUZZ3RfLnR9TPCk5ySM1O0xPL1xsVGtTt247HRtLfwovO7ZVKm03zLBnb0wugGOcWltoatainqtzey2tehjqQ0A584vGCVFmeUdScEVj5Q5UZEtxKLyAopdEPl1HgazjUolQQ0tcFJlICc9iunqUl1xsUo9yCUv1HjBWBPUoMNiSfoNN59CsrYglR9clRh2QLOQmpuKUXj1RRk5SXozFCnJN81ao3jRdjYjHCWewCHgpRKxoBKBorHYfKBKRSQ0ikgElgYisAJgh4y9SsASkPpgfKD0AnGR8pWPQSAMMGULGoUkmwcdDI5ZwkiG+4AvQGSmHNgBvIxR132Kk0iCQ5cjXLnPUaTfsBjec4SJ5c9DLyPJbp4QGrKGVojG6UpJ4eDa5d9CWgNWNBp6zbLcMoyNCYAvUWVnYaWQeEBHNrqtCJST0loiprMdNjHypR2zjuQJ4bxB5FyNPL3MtNppYjjI3Eo15xaRj6am5jK1IlTXYDRnTys9TTuqKq03TqLOVojevPFo0uelDn7rscWVSrOr4sptyOmGFy+M5ZabvD6srLlp023BLVM71KvGrTUovOTzlGXNmcVstUY7CtXp3dWcZyUJbxffoyZ8dhjm2LhO84nVgnnnnG3j7fi/3PYvCxGK0Swjy3DKLp8Rozq/w4KVRy7yf/AIOrS4xC7jOVtF8qk480uuDn1sb26iwt3gxyrwi9Jcz7I1JXFKnFSua6T/Knl/ojHG/jJ/cUZP8AmksF0bbvi1JvEIcvqzFUnCH8atl/lTME6dxXi+avyp9Ijt7NUop1PNLqxo2f2tZ5aNvP/FJYK5atZfeVGv5VoW1L8KLhFrdahExs6aWsYv1LVJR+XBWJZWHoVjQCY08bPcvw8LccX3MmmNshWNQilh6sS5otpIyciYZwBx1jHqPbYWEN6IMDUWRZbY8PBQB9QWo8NkBsAnqx7FDxpsTp16FN42Icc5yBEqmZYgtO5cKberHGKWmC00kRS5WiJycYtroiptvGGXb27uayh+FfMTLKYzaybp/DllKhRneVl99Xbx6ROu2GFGKjFYS0SEz4fNyd8tvVjNE2IGBwdCAG9CW8G9Bt9CWyMuU9Ni2xoJkSY5MllCZEpDkzDOeIt742LMd3RvTi/E1/4ND7LSeJ1NZ+iPJS0fqeqfB4Xlade8qTdSTziL0XoZ6HCLG2nzQpc0u8tcH2+DCYY6ePPLdefocCva9KNTyRUtUpPUp/Dt4lvSf+Y9TJkM7bctPKv4evdcKD/wAxjlwDiC2pJ+0j1mcD5n3GzTxk+D38N7af0ME7S5pfPQqR94nucvuwcp7ZTXqNmngXzRfVDVWa6s9xUo0qulSjTl7o1KvBbCrtScH3iy7NPKKtLqi1W7nZrfDSeXRuPpJGhX4HfUdfD513i8jaMEaifUbfc150qtF4nTlH3RKqNAblKrVoz5qNWUH6M6FvxyvDCrwVRfm2ZxlVwWqiZLF29NR4naVl8/JJ9JaG1Rk+XSSkvRnkMp7mSlOVN5p1Jxa7MaNvYZ7oMnnKXFr2GnPGol+ZGzT45JaVaDfrFk0rtNg9jn0eL2tTSUpU3/MjchUhUjmlOM16MG2VPIZJWwJ67kVa1ZcKc6japxbxuYW30ZsW9zUp0+WKS9yiKkJ05YqLDCLWcCq1J1Z80nloiO5BkW+BpkcwKQGTIaE5FlrcC9thkrLQ9ShvUECEBT1BLsTzapYfux5l0IHoJvUbWNYrPuTza+pRSb9PqKUnnQXKs53H09CCUmo4erznJkjHESVuDlJPRaMC+hK82jeB4bDkx/sA3no8eo9cbgtgRQ2tMm/w2SlZKPWE2n/X/c0JTVOnKclpCLk/oZPhyNVWdV19KlSaq47JrT+h5PL/ANHXj+uuCAD4r0mJhkTYpCEwYjMUGKpJKLbeEty5SwtN3scriNzlujBvC1k0enh4++TOV1GOvXdWq59Oi9DUqSk9FkyJ5WiEouT7H2sMZjNPJldsKhJoy07dPWWhlhHbQyqOToyx06SzpoZ4wxt2EloVsggz+pSWmUStZLsWloyhbCk+5SYnh7kGtUh1MLWDbmjXmnzegVCDHYrlDGNgFyvOGg5cFpaeoATjA8JPPcHLXYaUnrLQBrI02JR9ykgDUtRBRKQEqK3LwhbIpBCaS6DitNR7lJALGWGz01KxkOUKSb6jSGkUkAktRpFKPcfLo8BE4HjAJMrDCljL0Hy4ZSWNx4AjGQSKwGAFh9ASKFy6gLbQTMjihYAjA0MeEAt9iHAvYf0AhRwNQWdS8IlhT06Cx31DARQDjFJZwVjPZCJeckGRblYyY1LuOM0lhIoU01s0YpIySbZDWVqQY3jUhmRpInHcCRYyVhAkgIwTy4ZmeMieqAhbBj9R8uNikgMfhyT0FJNvG3qZyXEDDjTG5y7/AIdhurQj/iidlRWRuOOhvDK41nKbjytNShJTho10Zs+Wp5oLEuqOld8OUs1KSxLqu5oKniWmkl3PbJOSPPd4t7wJ1KEoRfK5Raz2yZeG8OVraU6DafKtX3HbXNNw5avla3aW5U72nBNU1n1Zwy48tukzmmzG0o5z4cc92NQgp8ia9jm/a6lRPXCI55JqSk+ZD+NJyR2EktilLmeOxrW13GukpRaqL00Zuw5ZLWOGcMpq6dZdohza526YMscNYYowl+HBfK+u5louVLqCTGoruNabhGKXVdR024rDbKm05bfUT37hVSenzGNVJJ75XqOUZN+XHKJw5XvkDnSwtgyiNdgUdQwyCfoNoGuxQoooS0QMgNmLGQe4yhYYMOYTAeuClFyaillvYlZfsbnD6fNUdTpHYzll1m1k205pwbjjVPGDr2lH7PQX556yBWtH7U7jD53rh7ZMsnlnzefyO01Howx0TJGyWfOtdoGIBMkVMmYtZZyZdxHSVEp8qJ5ymiWka2Jzl+g2xbEyeAqZM168sy5VstzJOfL7mD/c9vjcW72rhyZa9JXoT+IrGBPQ+k86ZIkpskBNITajqDlnpsCw2A4rIpdPRizgHLTAEuWeg+YWQe/sAZQZwS2JthFPEliUYyXqjVrcOsq3z0Ip946GfLB67llK5VbgFvL+BVlB9panOuuC3VunJJVI94npdAzo0XaaeK80Hh6MuNXG6O/xHh0LqnKpCKjVj26nnWnGTT3RqDYjUj3wWpep1uCUradk2oRlUz5+ZZ9jFxG2tITaoeWa3SegRz5arXUmLlTlzQk4tdmDbWgsk0bdiz41yxULr/WjqU6sasIzpyzGWzPITllYOjwK6nCu7fOYTTaz0ZmxZXoYvMnoZk1g1oTWdGZW9PUjSurwLJi5nncuMvLnqUPWWw9O+hKyn0wx8urxkC010ZS1aSTZj5U9DIvKtdcdgHhxePTI1nOolPK2wNPTABjfsGPUeRIAXYpEJa5e5e4BnIYwD0WhKll4Ab1DA8ah6LcgFgT3Q9gyBUWl7hLOQTQBDWw0JDXuVWrxifJwe7kt+VR/VnW4PUp1raFSEszqUYTl6dF/Q5XE6FS64fWt6UXKdXlUUvcr4Uoq3ub+jGpzqnGnHPbfKPL5U3x104/r0YAI+I9IZLBiI1ATLRFGGrUUYyk35YrPuaxx7XRbprXtw6VPR+eWkV2OWo765b3ZlqSlXqOpPd7LsJJZ9z7Xj8XTF5eTLaYxK5U0UoYeuxXLoepyCjqsaIvCRGiLhjGoRSWgJYW4N4QY0AXNrpsXnTBOEloVhPYoWMjW4baBt7EBJJmCpFJ5M+GyZwTQGqtRuLyXyKItMhUcuuo0kh77FRRBMU3nKwPqZMCSKFgpLuLA0nkIpAlqNLI0gDGRqI0igJUSsDRQEpZRWB6DwAkgSKSGo6lCxkfKNLBWGyCMYaKxoUlkcYrqFYqkXKK5Xh5HTUlHEnlmRxBRASDGQaSaeNQ5opa7gLAIblnYQDEVuLleQJabHjuNoMoBJIpIFgfQCeolnruVzdhBQ0RpkoT9Ah5zsGCVoUtQFIlPHQpglpsRSE/QbyC3x1AjBLRmcSJIDFgMF4BoDDKSi9diwlHIsNAGzGLBQDQYBAyhJaldMEqXYeSIMYNW6s1VXiU8RqLp3Npsex0wzuNTLGVxGmniSw1uNRcvLGLb9Dq1LenUlmcU2ZqcIw+WKR6f/Jjj/GuXRsa0n5o8i9TfpWNGnhy879TZzkfKjllz2tTikEVGK8qS9hix1zjBCq5ysHnt27SKy1LMXqX4s5LQx5GtFlBVeLriSwXGcZLRgpKUejFGEFvEAmiG8MvRbbA46ASqiehS9jDHzSajq0ZOZ8uGsMDmYbWm41LkjmS1HzA1ncrKsaZEKTccYW7GnrgINgEwWoAkwaxuUhN5AmKyy8CisPJTIpNbJdXg69GmqVKMF21NGxo+JV53tE6J4vJz1NO3HAJjJZ8u13iWIYmc61CJb1HJ6EoKYmGxLZvaBktjbIbKE2Y2+vQqTMFWePKjtxcdzyZyuoibcpZJ3DIsn2cMZjNPHbsm8Z0IzlbYKbEzTKV1yS5Y9RtohvDAM5E3gM6CWoU85eOomGAS1AnUYS9AQAxdNR4YpLoERl5BsbwTnqFDEPcChJY9zzvG7bwrnxYryz/qejSb2Rr39tG5tJ03pLePuIy8xa3da1cvBny8ywyZVJ5eZtv3McouMnF7rcEtMm0ZISedWU6iWhhyIIyN+ps8Nm439Jx7P+jNI6/CLbEXWlu9ESrHbo43k8ZM/PFPRfqzVhkyJMy2y+ui9BqKzp9SI5ZaeEQVFassUdWVpjJQ0g5dNAiy0QRlqXoX7Ca1Dp3AY0RFalgDSG3hL9CUnz67A9Sgy3uNego/NhlJdiBvUlJ5zkaAAltoxpaCS1H1x0AFuMjLzoWntkB7bHO4jxeFrUVvQp+NX6pbRM/Ert2dhUrU152+WPo2eYtqVxWuI0LWLqXNZ79So26vGuLUanNGrGlNrCUUm1nsdz4Ot61rWvIV8qpOMJyT31yZOHcDtOCtXN/NXF2tk/lgzb4VXlccZv6k5KUnCGq26nn8n/6668f11xNjJZ8KvVCYDYuhFTOWFjqcq8qurUUI/JHf1Zu3VTw6WfxS0RzkmvXufS8Th3/lXHly1NMbT6FYx0LwGMH1HmJZY8YDCyNe+gQuVbj1AQFLUpCitB9ABD1yAFDS1B6PYBpaEDQnHV526FY2G1ko15LVmHRNt9dEbU45Rh5cPYiojHDbfUtIeCkEG4YHgfKAsDURxW48MAik2NLA0tCsaFE4HF5eOpSQ1FJ5S1AMCS1KW+Gi0lgCUhopIfKBOB7FYYKDe4CHjI2ox3Jc1zYim/UClFLoXpHrgxuUnuT7gXKSSytWJzytCJPHQUdQK3GkhgRSQ0IrRAC9EHUawtgaAl+4sF8qDAEJY0KQBqAsIBMedcBSegcjb0GnkpaZ01IEoJbvUQpPLyJMBsZOXuPIDYR9hZE2wLcjFIpClsBjBlaEtASN6hkAEPAn6AngoGDFuylhbgIMjeGwWCCZDjkrnit5IMprKeQGGcCWw+gDTK6EoAG1lYCNNZzkFp1DOoVTiLzL1QsjQA2k8ouMuYx4xsGwGZiU8aNEKWUPOQMsXFapJNilGMnlolBzvsBy0tddixaAVgpx544z+higvDnyPmkmt2ZVoMKPYM9hY3wxxwEGo8D0Y8IAQ+pOVnCNizpeJW1+WOrM5XU21jPbetqfhUUur1ZkHkR8bmz7ZPTjNEyWNks81dITExikRpIAJsqBkSHkTYEslvA2yJSWNdkbxm6b0x1Z8kG+vQ18Z1KqT55Z6dCcn1+Di6zby55bBLGJnpciJk2MlsCYQlVcsYSW7ZMkuZpPK7jZLTASWBjUe4+VIBIeUCSY0lnUCcaBjJWG3otgliPuBOCJFSq01119DFOeX5YSAbj3FouoKNSWMpJF8keTDis9wMUqkY+v0IU3NZjF49TK4JyzsKSllJYSKML8Z7NRQKlHl88nIyvCMUpZ2A5XEeGwqzdSg0pflONOEqcnGaaa7nqnHXJr1rSlVeZwTfcsrOnmhqLb0WTuPhtLfkKp2cIfLBF2acy2spTalNYj27nep0/DoxysLYVChiWZLRbI22k1jBNkjFbyVWnmLw08MzbbGDwJQqRlRaiteZPqbGGn5t0RpSeEPGUTh5LhHHuwLh0LwiEuV4LWWyAWnuVHONRpYHgBdMDSFsykUJ6bIfsDYLDATyCWdWNj6ALlHqkLfLDoAY+o9gE5ZAM5JyPGU/QnGNwKTzsNvQx+xX1A0+MRc+G1MfglGX7nN+GruFvxqrUclGcqbjTb79jt1YKrTlTltOODx91bztbl055UovR/7liOre3V1XhOhVnJRcubk7s6/wAIxlTuK0J5T8OOc/U8v/ad1HC8RyaW7isnf+CatSre3cqsnKTUct/U4eRP/jrpx/XsBDJPg2PXATN6FCktCK53EJr7TCnleWGf1MK1WhpfEV2rXjNJSjzQnRSkvq9Tn3NN/YK1zYOrTlSkm5xl5Zx9j7njzWEeTkvt3cPBJ5enxriUEk6kJrpzRNmn8Q3S/iW1OX+F4PS5u+Bx4fEFN/xLWpHu08m1Q4xYVcJ1vDfaawEb4ghOnUWadSE16MprG4Cy0ti0JA916lFJDJXUYQ0ty4krOcP9S46IKY8aC6lZAXLjR65Mco5ZmepjaAxYBLUtrDFlZx1IBLUpLqHKNaFAkgURpZZWOwCSQ0iJ87g3SypJ9ty6UuenGTWr3AeCkh8voHlitZagPTYuNPKzl+xic/QPEljGyAzYSQnKCW+X2MLbfUSQGZ1W15Y4JcpNbk51HjUA0bKSwGi6D6ALoCApRb+VZAmUeZCjHl0yZfDfXCKjSitXlgYsFRi2Z8JLRYIwQY+TUrA0wCpa5VqLXPoW9USAtQkMTABDzkACKQpPUol6gSwTeAwGwUhF4yHLjcCUDHgGBDYuYtRyS4LJAJjxkWOwJtAWoRRMoYWg3IUamoGNrHQE0XUaMWdQKJa0HnTQWe5QtQXqNCIGNMWAKJqW9OqvM2n3QUaSoppSbT7lxaQ9GQLYpbEvcH5VoA9SkyIvO5aAaSbBtZx1AMIA06i66FYBJATkeMoppCSS2AnzRlmL+g3LXI2iG9Qq5VNM4ZCqvGmrJi5YfNHqUks5QRqAn2FltDxhFZS+40s6jSzuWkugGPDxoNLBajuS9tADKezKRhjT5ZuS69DJFrOAq0tdjpWtLw6a7vU0baDrVox6LVnU6nk8nPU068cDExslnycq9EJksbYmc2oWSdWNiClsJjZLCES2Nsls1BMma1eX4V9TNUnyx9Wa+Ncnv8bi3d1x5MtekLQNy+XIcuEfTeZCFJ4HhhgohakyWplehjnKnHWUkiCcAkY5XEPw5fsJzm45hHGe4GQWiW5jhTrSf3ksL0M0YJab+4EutTp6asjx6j0pUt+rNlQglokGr0KNZ0a01l1eX0RkpUIx3k5PuzLhocYYW4GNU4p5UVkiec6mZvlz1Rgk9WQSs51/UNxe7BMoMMibjjYc5aGKTyQTKWSOg+o0ihYJayXjGRqGdcAQoNmWFFdVqZIwLikkAlTWCZU8ZMwPR+5BhgtAmnj32MjWGisLqijFFvqte5aeFkma2ytCo8s4qUGpR7oCtyoiRS2ArZbFdCVsNakCk+WLeNtRU6niZcV5ej7l8qaaa0DCily7FCAWQlhrcgpNJag3l6EPDTyx80Uih5GiG9RxzkgctgT0BsRQZeAYk9R9cATgEtRvQM9iB4Rr3dlQvqfLVWq2kt0bG4JFHnLzgdzQTlb/AHkF+pv/AAQpxvrpTTjLEcp/U7CbWxnsIU4XymoqMprDfc5c3/11rj+un0AprGRYPg2PYQpbFEvVpIkivHfGklHi1u8pfcrf3Zy7S9rW9OrSpzUqdWLjKDenuZfjG6jc8alGm8qjFU8+q3OGm6eHzPPofoeHHXHNvByX/JvyWEtCk8o1aV5P5ZYa9TL9ppptTg0+6OumNsyfQGlJeZJkwnTk8wrL2kZHTqSeY4l7MuhijGVOXNRqSpy7xZv0ONX9usTca8e0lqabU4/PTlH6Etk0PRWnHbWviNZOhN/m2/U6UZwmk4SU10aZ4prm31MtvXubSalb1XH+V6oaV7NMaONZ/EFKo1C8h4M/zr5WdmMoyipU5KUXs0yaVSepSySiwGPqH7jW2QBvAtyn6hh400AhxEsPQyNNk4w2AsAk8+g04rdg5JLTfoA0sD5opasxU3NU0qjTlncWNXzap9AM6nHGU9PQl1HnRYRjpwUE1HZvJb13AHKT3l+glvsMAKHglN5LSAEh4Gk28LLfoZI0KkunL6sDGkhmeFqk/PLPsZfCjF6RQGpGE5bRZkhQf4nj2Nn2Ja1AxKjFPO5az2SKaSRLZVLOuoDUe4Y1IgJawU9w6aAY8C30LlghZZFD203E9CgfQCXqAPRhjLAWOqE9x4a2DGQFzBuwwACS1LSj1RLHkKeUJ4ZLDIDe4YWBZFkB50IbeRthuAgHgCCWGw2Ll9QQpLJGNS8YG4gY9thF4I6gJiSCSywQFCykwwGO5QJa7jwCQwFgYaiIBrDQ02AAUmPOSR5ApMaJjqN+4DbBMlPC7lY0yAZRL3zgYspbgGQazsOXoLOANXApEuWXuDZWTygjPXAsCS1ApvLDlaBSSY3JsAIaecovBdOk6lSEV1Zm3UWT23uH0+Sm5tayNsSSiklskB8jnz3XqxmoTJbG2QzyWukAsgySNBhkTYmVA32JbBktgDIb/RDbMNV5XKvqd+Lj7XTOV1GKpLnn6dCcjcW10ROOh9nDDrNPJld1ki21sKTwJRbW7WBYytGzbJJN64x6smo+RfOm32LlDMXq8mOcHJYYVj5Jz3kJ20fxamdLA2BhhSUVshyjkzJLGpjll/QIjDawUkGy0HpkoMaDTwxoEiBN9WDku43HJMacYvLyyiZNGNpZyZZRjjuYnhMgxy9tCG8FSbJaYVEnl+gsFuPYajgIx8jZap6FtYehS0AxqBaSSDIdShoOoYWQ2ArCASzkeQDGg2msDQPUCWuaLi9msGvQt/suYxl5H+xsYx1yTJSnGSTS6AVB86Ti8ruZMYMNByp16lBQfLCKanjRtmWLyvYBoqLjtnUjRlLHYgyN6GKWjyU883oKeqWCiXq9xNZ6lYSTB6aYIJ5dfQaSBaCyUPGCk0Jf7AtiBieQbAB46oqOu4kujHjUBNYEo/oVhMaS7YKEog4syLHQOXuBKWnqZI5jKM09Y6oSRWxLNzSy6dGnXjVipR36rsX4kVu8HLhmDzF4Mjqya1Z8/k8O27jvjyN6daK21OdxK6uY201Zw56sljP5Sm23uBeLxOt3TLkeCuOG3dOcnVpVOZ6ttZNOVGaeqPpOdNf3NerbWtbPiW8JeuD6Meavnbg1ui0vEjh7o9nW4HYVM8qlTfoaNX4aSbdGtF/4kXbOnl3HleGgUnF6SkvZneqcAvY68kZ/4WatThVzB+a2qL6DZpz43NeO1WWOzZlV/V/Goz90XOzmt4SXujFK3ZdjJG6g94uL9C1Vi/llk1HQkjG4yj0aA6HOtmso3LO9r2UlKhLMOsHszjRrTit8o2KVynhbAe0sOKW97HCfh1OsWdCPqeChPzc0ZYfdHc4fxudJRp3OZw6S6oivSReHkrds1adzTqwU6UlKL7FeNLBNKztY3BVI53zg14zcurZWw0Mkqj/CsEZk9ylqhNALAZAEsv0AvGiFyjSYat6ALGBOTT2yZFSm9o/qZqdr1nJL0QGCPqXTTcspZT9DZjTpRfLjUycmFiOxRrxt235ngyxowSWdS0lr3Gl0AKaUZtxWNDLmT3IxgyxxKOQIaY+gZy/YAELBQtgEluS0mUssWc9AEnkG8IWAIGtcgngFjUTAjGrE1gybEsCRDwGCCchgeAeiCk0S5LOOpXNkWEnkBbInJbyJgLcBdR9QEyS2JoCOg3geBMKWWIpA0AJi6hgeEQD2F7jeCWwG850BAgWq0Alr0IkkZcMUsYAwoQ5LsS01uA2+gstCyG4FJlZI2HnIF5BLUhMtBDwTllZEUOLTG/QQMKpYG2Y9h5AsWcIWdAAFJS2Y8ddxZSQ4MIbZMlnZ4KewgNNxWQSHsAQseohvCFkKMdhpaBsGSA5sHQ4fTajKpLrojnqLnUjCO7Z24RUIRiuiPN5GesXXCbMTGSz5Gd29ESyRtk5OTQZI2SyqGxZAllQZJbwPJEnrl7I1jN0TKWE2a8pNa82cjqTbba2MTbfTB9fx+LrjuvLyZbUnkrqTHcrB63JeMx0ZLWEUthaAY3JpoaTaWgYy9SsruQS13E8dBvV4QnoUS3LIxajzgCcByl5zsLd7gEdxvRBjAs5IDOBbib6A/QDFNmHJkqGNLUBYbY2iuoBUpFaCDpoVCzkHncaWAewCWR4yCWg00twBLXUOoJhuA+gA46AtsANMHsEY9AayBLj2YKGOpaXcNFqwL9O5rfaOS4lSmktMp9zYTzHJjnRptuXL5nHlz2AyLD2LUe5gpQdOMVq33ZnbyBKaewpaNBLR6MRAS3JbG8PUQBzYny4e25beUS0t8gnp3KK2Qkw1FJPYgrfUpImOxa1AFoVgeFgOoCSysDSxsUl2DlaZQJYQ9w0BLID0QLDeoY0DZANrsGBhuAhp6ieeg1nqA2kTgoloIlonBbE8gSPMvzMTAA1e6T90ROhQqfxLenL6FZXcfMBp1eEWNb+6dN94s59z8OZTdvXi/wCWaO4tRSWCxHirvhde3f3lFpd46o0ZUmnofQc9HhrszRvOD2l35kvCn3jsXY8XGc6bNmnc50ZvX3BLi2zLkdSmvxR1ORKnyv2KjqWt3Vt5KdGpy+nRnobDi9K4ShWxTqfszxcasoGzSuVnVgfQFtkaw+p5ew4vWoYTfiU+zeqPQ2lzSvIp0JJy6x6oitnZaBnTUuNGSXmlj2MsKUOzfuRWuk5bIuNGT20RsJJLCQ46MDHCkurbMySitIoeFhsTeqXcouL5t1hFbPQxuXKllPV9EZEwFyJvOzMizj1J6alReAE4PR9EFNTw1OSlro0ugReW10HH0AvKaaxgItrRISi86l8uUAsJ7CyluXH0REYpNxlrLuAaCyXhZ22FlcyQROq1QPUrQltBUST6MlZW5aeemBNALQTlEFoG5AgYZHugJYxAmQT1GJj0wFSwzkUnljWwBnUT0DYT3Al6AhsTYUwFkWQgzjIsFvHQlsCdhpsAQUPRCTG3nQWMBAxYDOWPACRXNhECbeCKrIMmJRURjUmfqZWiJRyiKwtdhrRFOOhIAPAmMAwPUpBygEdQwNR5RaoqDYHkATfUBrXcSYNhowpvAIMAtyAe+BLRlJZeo2kgFqPZi9gKjSTKJwh8yArCJkuhXMnsSoyeuP1AEsF4yhPZah+FYzlkWNuwoLxXUevKjoMx29JUqEYrfdlny/Jz3XownoMhspkNngtdYlsT2AGZaITATKhMQyWywTJ9DDXnhcqfuZJS5Yts1ZvXc9/i8O72rjyZa9FzZYYBYQubR9D6mnmUis4MamsZzoXFJlD5gBpBpkAawiXDqZMYQNARCPLF5Ype43tqRnuAN4MblzSwi28ihBR16sB5whN6A3qIAyxpixgRBQYBIrGAMFRamPYzVDDJgC1B7CS6lFE7bjTUVkG8k47kEzq64UW2PLxqNIbXcoTyxxWR4eUWlpgCVBa5DCWOVaFYG16ATlvYpx6jisIaQExWoYyV19AzggXKHLoPoCfcoUY4WAksrALLeehWEBgqupTjzxfNhbIzRkpQUtm1nDCSWEJuXjKLhmLXzdgFgWuS2sbCaIMeG1ka0KefoQk0wHHYe2iBaBqA22ovG/TJjUqvjxi4+VrV9jJy9x7IBY1MkUSill7AUNLqGBoBxfl9SstInqNNPqUNPK2wC0DqVoABpkAQAHQFqG6AS3YJhjCE2gKQYJUlnuHM32AGS5LvsJ6vIOK6BE8z9hNPuDYATjUvoLGo/QC4siSbZTeBNgTkWpS9ENU5PfQBRk1pnTsad5wm0vcycPDqd4m9yRW+4+Xsio8jf8AureLnGHiU1+KJyJU3F6aH0qDcTSvuD2d9F88FTqfmiXaaeEp1p02b1rduMlOE3Ca6phxbhNbhtXzrmpS+Wa2Zzscr0KPZcP8AiKUcQvI86/Ov9z0VvXo3NPnt6kZL31PmdC4cdJanTtbicGp0qkoS9GTSve7FI8/Y/EDTjC+jp/3I/wC6O5CcaihUpTUqbWU11IrJNvkajuZNI4WVqtTGpc0tNh41KMz0S7Ex19ylhRWRRSUdAGlpqPKSWg1sNIAW41tgWxcHHMly7LcBeaOOpTl2CPKt2JpZ0AnOFpoikvUbi0/oLlyA3nQmMUpZa1fUrTGGGAJ1yDRSWyYpbgQEsNrXUJS5dO5LabAGhIedWidwDCFsGBMgNwATZAMjUoT0WQpJLI28ERknFPGPceGwHvsJ7lKOEJgTjAmZG9CAqdkPl7gweoA8Y0JDbYe4CEysibIFlCYYQnsA0DYk8hgoMjwCGQLYQ8AlkBIYSTWyyKO2wCkskuJl23Ja7FGGSaJWTK0Rh9CARS06iWg2tCh85SkmtiMgtwGhieOgIB4FjsNAggFsNaoGgoy8FZJRQAGBrYNwjQS7sH6IpoMLGoE8zGmLqGJdgKzk2LOn4txHO0dWYYw6nQ4dT5adSo/xPCOPLlrFvCbrbZI2Sz42d3XphMhjZLONbhCBiChiYxMRCZjk8jmzFJ40/U78XHc8tM5ZaiJtzeuy2MUotsz5WCdz7eGMxmnjyy3UKGEHJ6FbsaeptEK3TWWvoXyJLRF5wiZSAhkteYvIJZYCcsInxHLTZFSSyY3oANruRzvsDBavVAIaZTg0JtJJL9QFIMZ2DmBar1AWMDWBNPqEIvLzsQWmLLb9B6MUsFGKT3yYmjI1lkS0eAJSKFux4IFjUGitBYyAKKHsGqDGQG8tgkVhtAtNChpA9yt0LlyQGNQQycgD30DCzqNaMMFEotRW4KOmpXbsBOMhgeNRvQgWMEzxFczzp0RUdH3Y2sgY8SUVnd9AeEjFdT8FKeXjOWWsTjGUWmmsgN9RcqznqVhCaXUBNDFoh7LUB4HoANAJaPBaWoku5Se4U0NNZI1Q0BQIYYCGkUiVoCZRSY8kvOdB8q3yAZRCk10LkvoJBCy31KUUCS6lLQKxNYyEdTI9BeoGNizgprDTfUHBrARCWcgovsczivE61lcRoUqcczhzKUvc5UeI3X2yjWrV24RmuaK0WNjcx2lr1GMBhtbNGWSxNtbboGsmdaXZKm8LLHyLoPOARAJYGgexOSoJRy/UeMMaBbhQAloykEYL6nGvw25pTipLwpNZ6NLJ88qRw8dkfS1FSi4v8Sa/Y+dXEMSkuqymUdXgfw7LiNL7TcVHRobRxvL2OncfCrprPDriUmt41dE/qX/bdpw7hNlGP3lV0Y4px6adThX/ABi8v/4lRwh+SDwggpXCcpU545k8M7HB+JOwqck8yt5br8vqjyTzny6Gxb3kqcsT1iFfTqFSlXpqrRkpwls0bNNLXmeNDwnCOLOxvqclP/parxUi9l6nuViUVJaprIVkSCKzIlSbeGthwkm9HqBmiktAxqDTTLTWEBHL1aK20BvbARw0BKjFTcu428PKDAYYDcurHF4IS7jiBcsPDSFHQEyugQupLWWMlpRe+4oT5U84IccmT3IWnsFQ1gWSmkSAadzGly9cl6PBLWHggBPcb0ROckCk+4nlv0Bx1bZSWgUlEYmLIFZDqTkaemoATkbkhIABrACyAmSVglrUijIIOgsa7gNklNCYQJYBgtwChPA08ksMlQ2CkLcHoQZoy0JbTZCbB6lFSjglrUBZCia6kGVkNBGNgpPsVy90TqnjABnI8pEZ82xQFJghIMsKsWmBNZW409AgW42ssn2GshTSDOug+gYW4DXqG4ljuCWoRq9BYT3BvHuJvTQBcuu5cWl1IyLL7EGdbNnTt48ltBd1k5UX5dfY7LXKlHssHj8rLWOnbjgIZTIkz5OVeiJbJyGRGGgIAYCFJ4Q28IxN5N4+0KUsJt/Qwc2csmNaNxDnpvMMtJlYSR9jxuLrN15eTLZbjT7CyCR63I8Ag2HHG24QOWhDeS5YjuRKSzogoWSs4Ii/ME5rHcAbzsTjXUxOtJt8sP1F95L5ppewGWTpx3lqYZVZNNU1+pShj19R8ugEU+fGZ7svDbKigbaAXKVGKWyywckthp+uAE4k7FNroJgGcdBMvGwpaAYJS1wiGsyzjUyPDYuXAEpegnzdi2mJZecEGJ7lwTLVPrIa0WAFjuC7Dz3JcsP1KLyCCOqyVjCAEsl9CUMCWgSyN7D0yAsJAkU9sCSwgHuPAJA9gE9AH7DaAjBS2Gk9RS20IMdRRksSw12ZgoSlJPmgoJbJGRrL1NW6lOlVpTi3ycyTSA3Eh8pUlroLYCHHDDDe5k3JewUPbAJZBReCooASDYGknuEcgDHmK+aWCJ6JsUaeUpPqEZovmWVsD1wC0ikgTAp6EtDbYb7lDWEtRrRrQlNdS44zkBSeSc42MuiWokl2AUVktR0yxcrzoVj1YGNrORJST+XTuZEsDAlqLWvQWEhuP0DGPUI4fxRSzb0LlLWEuR+zPP1IZhJd0et4xDxuEXMcaqPMvpqeUjlxXsejD4xXq+HXDueH29V7uCUvdaG2cn4aqc1jUt29aVRv6PU62Tll9ag3HgRS29DCk9id2U1oJIoewxBgB4BIeAQF03iSb6M8Fxal4N9cU8Y5aksfqe6yea+LLXkuIXMV5ascP3RYlebgm3ojIk29jBGTjLRm9SmqmdopLVvYqMDXKYppIucnNy8NOSju8GDLe4GfxPupR9D6jw+UlY2qn83gxz74Pl9nRdxcUaEd6k1E+pRxTaS2isIis77voPl6xejHF6DXogrLz6ailJrGCXq8secIIOmCopppZJ+aKxuUk0gq2sSxkcf6GPD5086F5aAWMt5+gapvD2BaCxJ1E86AUlplPIczk9seg4tQksrKJk1nK0ERUliOTHLbTUyZYnos4FELUlrBWEiZ41CjKIerYY7BLT6gIl9x5JbyQLORNYAMkCbGmSHYKbepLBvAs5AB5FswAWgZ0BoMAUnlC0B6LQQAJ6ANoBZ9BDWgnuFMnORixkAWgm0MTRAlqVyvBOB8xQ0sbgJsXQBsNhDyQDDCGn3GUGMBgS1ZTIiXqtjG1J7IyN6gUYfcEU1rnIkA0DDIwBIeNATwDYA8aCTwysaAkA9/QTaSxkbWhDg85TAqOHkUM8zRKeJYZlXoBot6+pPMSxZAp67lJ5ZGV1GnroQbNKKlWprvJHWl8zOPa1IK8pU3Jc8paI68t2fN8yvRxpbIY2yWz5ld4TJDIEUABM5YRqRCm+x5/wCJuKKzt/s9GX31ReZr8KOtfXcLK1ncVHpFaLuz5xe3U7u6nWqPMpvJ9LxODte1cOXPU09f8NV+fhrg3lwl/U6zZ5f4TrPxqtPo4npubB9P485oaZj5m2PdAWmgx30JisBKLns8AJvUEubOCo0sb6lNY2CMSg0Uo4KQYAjlWAUUtcF5XYl6sBYQgYY2AEyXoVjOgmFSk+ox4y8saQEIeBNYY08AVsiJyyW3nYhtdgIhjUTcud5xjGheUid3oQLOg46L3DCGA2sktYZSefQWNQIm1jCFCK5sspxWQUWupRSbyUJYHnIBjsNvXCF7DWgA1oOMcixkrYAygBLYbWNwENaiwNEUND06iWcj3Khiwh4wwYGGUVh9zG0s6mWT37kcqe4DTk5Zb07F4JSysdAqPlSw9SB7DwYqe+XuZkspMB6parBglzSeImecu36kbIDHFNS1My0REcc2WZMRk8vbsFTjL1Kzp7BNpbES+XPYISniRkg85MMGpRyjLBSj0AuTSJ5ssbWdwjoUGNdC4p65Ety0FNpDJKCDICYb7AMA9BAY7m6t7SmqlzVVOLeFnqzj3PxLRjpa0JVH+aWiN7jNn9u4dOnFZqw89P3R5i2trm7gvBoyk+umEbx1+s1d1xG8vE1Vq8sH+CCwanOo4Teh27f4cqvDuq6hH8sNX+p0rfhVnbPMKPNL80tWde0jOtuJwTx4XyqUqM/CmuWcmsJHpcp5KW2NkJpHHK7rcgQycMaz1MihJA2knnoNbAA8D2BAGBNal8ug3HQohI1eKW0Lvh1WnPdRzB+puYSWuhoXdVzbjH5eoR4GtHkeHo0Y86YO1xfhk1VdajHmhLddjkOnh4lGSfbBdiVJpNJtJ767iW5mpW06ssQhJs61hwWT81Za9EEdH4N4a4ud9VSf4ILs+56+C10OTwaHgp0dk9UdqEfL6hpa7YKit9SU/UpNfUBpdy0syx0JWpWyAXL2KhLEnFpkpLsNLDb6AVq28AmNPljLl3ZKzpl6gVoJrAs4DOQDXOM6Fc2FhoEtMicWAcw29MkYeRyk46NAPHciSYc7lOSeMLYTnzN4AldSW0xvYl6EE4aJyitWY5ZTAbJyxPKK6EE5wGcg4jWgUsZElgrImAMQ9hAMjLyWg66ATkMg/UGAZGQhoChNjWxLChsSeADoAZFnUZNSMmnysIbAmGUsSepYUYEPA+UBNC5SmgAnCWw16j5WDAEsDFkaCDlyJoeewuoESRDMrWSXECNh5z1BoWzAa3KjjJKY08AXoCYgArqLYWWNb6gDjmWSmNYB4A5TbBeobE65IG3qYa9xG3pOpLRLYt7nB+IKkp1oUE2owjzNdyjf4Dd/aePUerbbyeyk9zz/AMOUbPhtrSlyc9zX3m/wr0O9N6tHy/O+vRxJbIY89xYPmfXoAh4A1oJmKTyy59DS4jW+zcOuKy3jB49zpx47ykZvqPKfE/E3dXP2em/uqTx7s86zLJubcm9W8slweT9Dx4TDHUeHPLdd74RpSld1ai+WEdT1ODy3A+MWvDrSpSqUZynOXM5I6cfiawfzRqR+gqR1ho5X/qLhuMqc/blCPxFw9vWc17xCuwUc2HGeHSX/ALyC9zIuK8Pef+tpaeoG6Js1lxOxf/xlL/UXG9tJ/Jc0n/mCMoEqrSl8tam/aSKw38rT9mAmiXtnJeJJapkuLaAhMMjktfcM402ChIGIeNQFl9R50FLQlvTOQG05atiwOKT9xtoBbbEGRpYMcsogQNc0Ws49UAACSxuNbAsNjehQPbQS3DqC39AB/NkM+g5PG2oLYCUsajjlyfTA8YGk3LBAbFJBsMBZXPypPbOcaFNaZRSTDBRK0wGcseMAtwDAJdxtpLVoiVVJ6JsC47jawYHOTemgsOW7bYGZ1IrRvLFz50wyEkioSS3AmWj13FjJU9SqFNVZyi5cuFle4C0S0IcVnJceqe6G0QYnui8tIqMUk3jUUms4AMaZbIb7Dk+bRB4b0yBKWHqZIjUFnISfm2ATWoNJ75GsMb9ApRWmiwUhLYaAEDwgJby0u4FR31MiIwUssCtAWrFkE8FQS0WQjoJ6iAvIZ0Ekh4QE5103HHRYSSXoGNRoCcZEzIS1oBHQMD5fXBSQE9Ax2KaDYImUc7lKC7gtWZEtAMbTRUfVGRDwUSgKaWCcaAa91LycqZpqGmps1U8mNJ9UQYXQTys5T6GCHDqMpSljOu2Njd26FRa6IK14WtOmvLFfoZVBJbFvGQUeZ4W4RlsY5uE+x1U9zTtKXJNepuY5UUOCS3yV1Qk0w1UtiiluNvYkpAOlNvm5447My5TSMWdBxyuoFvCF0DQaeABRzHPYmKZQs4egFJCbfV5RClNtp/KQufzJ7LYDK5FQaknkiTyk/QnPbQB1I8rTxoTj9ylLO71FICGmnvkl46l76ktagStNmTUT7FcqaMbck3rp2IIlqOG2GGupOQKE2xZ1E564Ip5wLmbYuZZJ+V5iDbJh9QeCOeUltgeM9QHkHNYWmRaIeQE8sWH1LFuAsANsSYUxMbEABuhdSgicDzkGIKNMgAANMM5EADyNNEvQSeQis43E32DLGAteg86DTFgAQZGloIBhjQQ8hUyWEiZLJmlFENIIxFJA2S20BYJkp5DYCtwJW41uBaDORIEgOdhCawU12MereM5IG+VLL1Z5j4ijNXniL5ZRx+h6d02zR4pYfardxSzKOqLErQ4PxZSVKFV4lTaw+57iTy89z5dGjUt62GseY+k2NX7RYUKveCT9z5/m4b9vRw1m6kSlKM8Z0exfUx1vniz5uOOno2alLmWXoZGYlpJGUuUESWpz+NUPG4LdQW/Lzaeh0mY5wVSnUpvaUWi8V65Ss5e4+TttDjNrqZLmm6VxUpveMmjDjJ+int8+tiKU15d+x2eC2nD7ym6VaL8Zb5e5wqbdOWcM2Y1PNGtSm4VF2M2W/Fjq1KdjaXTpV7KUUtnnOV3K41b8PpWVOdtTw57MzcL4rZ166nfQgqyjy80tmjQ4/e07u+SotOlTWFjYxN70rmtRWyEsZ2QDTOqG0n0X6DjGP5V+gJ9C9VoNJseFFarK9mVGdWHyV6kfaTE5CLo22KfEeIUn5LyeO0tTdh8RcQgsT8KqvVYZygJo27sPiWLX39rJesHk3LfjVhXwvGcH2msHlsk4T3Q0u3uYVIVFmnOM16MtNnhYOVNp05yg1+Vm9Q41fW+jmqse0tyaXb1jZLWTkW3xJbzaVxSlSfdao6lK5oXCToVIzz2YGRLGwco8PqhpkEt4jgh7GSSyyZIKiOmoa5G9wzmTS6AJabj5m9hYWMh03AaiPmxsh68qG9IgRjC9QcuxWCMPsBUdN3qy4Z5vQiJa0WoDGtzG6sV3fsT4zekVgg2FoLmT2Zr67ttlcxRcqnmwRKTzuNYbJkvMAuXXOWN7oIrf+hk5cdOhBK9wbwD0BLO4BuOMcrJTjnBSTxoijHgdOXJUjLGV1RapsPCSRAPWo5YxzdB4YPCxjoNdyiKk/BpSqSTaW6SJpOFaKlHR9n0M2c6dDVrRhbUqlX5UnnIGfGGMmU0qfPumN7ZyQPmE9UEVpkemSgUUkLTYpk4ywqsDjESGyIMYySo+fL7FBkBgiRphVMMLAPUOgQthZ1BjxgoMYZWwluOQCYdiXllL1ApbD1BNFAY2g2RTAInDG1oNaaj3AhaGRCwslANAw6AAmyZPQbaMU5LAGGbyxIeM5DACeo1tsNRTMsIahWLwub0M9OgktMmRUzNCOEA6KcVkyZljXYFsGCoEzIpJ6EFPDKKyVHBiT1K16MDNmOCdERl41YufDSaAyblGNPTOGWpJrQIb1Q1DKznYiSylo0PnynEKNGsoXI986DS6JA89AJjEcoJPcfma2Rhc23h6AOWmHF4xuHNnZkvVYfUMP2AefoJyQn67iwQPmWCJSy/Up4Ie/oAPYhrBeCWQRh5JcebcyZE9QqORDQ8EyeFkBjTJysA2A8A1kWWNAD5gTGGQEtUNLQWcgAxPIwYVLygTKy2JIBtC6A2IAYZFnIY7BBkqJOAigLepLQ28AAkhtCyPdBQDaJWclYCBS1wNtEpYY9AKFgF+wPL2Cqy8egsBqgTCIejIa0MzMc9UBCQ1lv0BZwVpgA5cMAQatgPA0mA0VHNecBGPXqWsx0bBkCGtBYKQGpcWNvcv7yms90dHhVNULV0YttRemTBkz2c8VsdJI4c+O8XXiuq3GRWinFNbpltinrTZ8h6mNvCRlNfm53hI2FsiZqBbD2JkzESvnnxRQ8DjVfCxGb519Tj7HofjOcJ8YSg8uMEn7nn2nk/Q8V3hHgy+rjWnHr+plhc43pRk+5rpDzjY6MtpzpS1klH0QvDpS+Wpj3NXLY4ya3A2fBb+WcX9QdvVX4c+xgaTWYvUSnUjtOS+oGxCMozXMmsFSk5NmCNzVW8s+5f2nO8UEXkOYjx49Yh9oh+QCuYeSPFp9g8Sn3YF5GSp0mvnwNJPaogHkMj8Ob2w/ZkuE47xYCeX7Dp81OXPTk4S7pi5ishdujacdvLdctVqtD13O3Y8as7pYc/Cn+WR5IOVP3Jprb3qkmk4tNdyTxltxC7tGvDqtxX4Zao7Fp8RUqmI3EHTl1ktiWG3ZkCTa7E0qsK8FKlOM4+jL8yMql4SIhLmT7IpJZ2DCWmShptlbvXZGPm8uUiW2+unYDI5rOAU1gxYKi/LqQOUn0eCW/VkvLY8ootahotRJpdSdXLfQC+YE2wSQ28YwAPK1Ck+dZaaRbWy6jjCWNEQVHGRSmilT7v9BqnFevuUYt9cGWNPKy9C8D3QCjCOddTJlLZELRjYAhPUb1QskEcuHkoMNseMATgx3FH7TbzovRS6mZbBsFa0YxhShQcs8qwZ1sczjFvc4Vey1qL5o9/U37acqlGLnjxElzpdwjIKTwPcNgDRpAJ5yAVQNhgXUIM4wAt3uMABAhpagVuiXsMTKFF6lN5FgYDDcTYAAZyAYAqKL2I7alxedwFuPA9BhCwDWB9RAJasprAk8ZCUgKexDYskt6aBRJmKWWU22NJAQo5Rap5LijKo9gMSgZIR10K5dFpqXFJANLBQhoqKT7jRLHgIZWSFnJaQUhrMdgWGNsopPO4SxgnOQeqAm5uvBShCm5yazjOEatvd3dapU8ajGhSjmKaeZN9/YzXNtC6hCMpzi4PKcHq/QJTi0uVNZ6dUQacra/dZTpcRqcudYTisYOnbynUg1NLnju11MClJLQmjVdK7hKTzF6MDfemxDqRcsN6lc2rXQiUY5zjUoUKklJPPXUKii556kvCXqY86gZFsGdSZSUYt7sOZNaaEFPUQsh0ATZBTE0BAngbygQVIbIoTwQIT2ATAlLGnQOVZymG4J9MgGqYZDqPADTTHgxpZ2H4nK0nt3ArAwUlJaPQWVnABnUeciS1DRAN6CbE02tBNMChPcnLY9wGkgEnhjYAxoBAJjQgArQBDCgQAAFLQQBFrbDDBK9Sm9MAIBNjQALA8jTAhpYIehl0IlhoBZGSl3H7hFJDWMCzgck3HTco0G8EqTHjIcrIoFJvoDynhIeAiE3j1MtJuM1LqhJLJWhMpuNS6b6kpLKKWqa7mhGcobNstV/o+x83k8fKXcejHOaZ/AWPmZl2ivQ1PtWPxYE6/NtI4Xhzv433jYnUSMM6uFhbmKUmyWj08Pi/tc8uT/jk3Xw/bXdadapVqc8nls1KnwpBp+HdPPaUT0UYjwfSnqaea+3kqnwpdL5KtOX1wa0/hu/g/4Ll/heT2yQ84G008FPhF1S+ehUX0NedpUT1hJfQ+irmfVg4Z3Sfuhs0+bOjKP4WHJLB9Gla28/nt6T/ymGXCrCTy7SBdmnz7w2Hhs96+B8Nf/wALj2kzFPgXDltSkv8AMNpp4fw32H4Z7OXAuH/kn/qIfArDpGf+ouzTx3hPsDpM9c+A2X/1F9SJfD1rLatViNmnk3TYuRo9RL4apZ8t3L6xMU/huon5K8Je6wNmnnPMtmy4XFaH4m/c7FTgF5HVQhL2kadfht1R/iW817LITTX+1p/PBMpVKM+rizDKg09U0/VEuk0BsY/LJSQ/c1MSjsZI1pLfUKyt5JwCqwl8yGkn8sv1AyUa1WhLmo1JQa7PQ6lv8RVo4jc01NfmjucjDjuiW8szpdvX2vELa6j93WjzflejNpP6nhMNPMXhrqjetOL3dthZ8SC6SJpdvVyZjXM2c+345a1sKqnSl67HRhUhUjzU5xmvRgU3gOmR+VoS16kAkUtmSi1BtZb3KIx2KSfSOTKqcUWnphBURpyfzNRRXgrOW8lhkASx0LECerArAPQTe3YSeQKFkA6gCayPItH0DcA1zoNY+o0DSawAcwaNktCIqnoTkG2JMAaNVUvs11zwk1Ge6b0NvK1IrU41oJPpqn2AyrUlrDEpdM7DeoCeQGtdx4AWEGwC6gCy5PsOW2BxWEtR4QCSDqPYWQiuhL0KTDcBbjSDGBvTYoloNCm9NCOugDyGwLQMgGSosnGSorUCx5DGhIKbJ5/NjH1DIpPARTYtBZyJ6sKbYgQYAeBqAJFpAKKMsNZYJxqOOVJPsBlYCy2MIaAI7jbKBIaFkTeoGRARFlIC1pgT3Fza6A31YDytQy1sychsA841XzERpvXKWe5ccKWpeVqugGCSnGL5dy6VOMVzS1kNJbFcqAyKSayKbUo6GLVPGQw09wCb5cepOcocvM9RaIBxWgYCIm9cAPZgJvQSbAedRPoIWSAJwWhMCchuPYlsKhvzYGKWqz1GnlASS4efm1yXuGAFr2FkpBgA9gWu4cogFJdEEdCW5c22ga5CsnNoC1IT0HntoEWngG8kKTe4udZwBWwA2EWpLsAYAGGQGgepPNgeQH0EC1YAA9hAgK2QgbyLoAx5EhgPICHkBtLAsBuGQGw6aCWWHQB6icchkeoGMGipJsOWTW5UEdSkRhrZlqOUtWBoP0Em2Y+uU/oVJzcJKLUZNaMgqTSeMrPbI4rfU0aFhKNfxq1Rzl0N9LlWApNISTG9RZwEX0DoTkXO3pgLsOOuvUyRjpsSkkhueFjqTRuh4ySCeW2x6FRSYZD2JzjVgVkpRyY4tvD1RaeAKS8z9EPJOXj3FJ5fsBQc+pOcAvcC+dY3ME229zI2nsLEceYDFjXIparC3LawKWgEKOE+Z5ZLTLfpuTKpGL82iAx5editRSrJ7Ixuq2BkbxsDqxjo5ZfYx6snwueWW3oAq0adVYlQhLPdGlU4Pa1Pwum/5WdPlSWwsMqaeercBmsulVjL0ksGjX4XcUn56Usd1qj1rjkEsaN6DY8NKjyvfUnlkj3FW2t6scVKMH64OfW4Ja1H93KdJ+mqG0eZjUlHQvxE90dSvwKvBN0pQqr9Gc+tYV6Xz0px9cFELkl1ww5JdNV6GFxa6gpyi9GUZGu6LpznSeadSUPZkxrprE4poyJU6i8jx6Mhtu0OMXlJJSlGpHtJHQpfEFvtWt5QfeOpwXCUXqtO4stsaXb1dHiVjWa5K6TfSWhvQmmsxaku6Z4WUU90iqNxcUHmjXnD0T0Jo293zIXMjzNrx+6pvFaMase+zOxZ8Ro3y+7zGa3i9xVdBSyOL1MKehcZEVmWoyYsvcgHtoKOENNiksYfqA209sjySkPUKeOoJYBDCBANBLGChPQgYJkUm0llho8NDxnIuXGwQmtR4Fh5KA17mUqVvUnTjmajpjuK1uFc28Zrd6P3Nl4x7mFypUIPmcaccpLpqwrMmsFLYjlSBZAtpEYyxrOQYA9sCz0BgA9A0FjUFuA89CkyXgFkqLexKHqLbcKaELI1jOgQh9AaAB9Rp6iQaAXzaCyLTGgbAGe4pJSEGQHohxEkUtgEG2pWBpAEUWkCSKQQYGAIBpjEhlDB6gIBoGGQAaKJW5SQDHjJgqQljMW36IqnJqniT1AsUW5S1B6oFuBeMhstBJhqBWECfoJDQC5sbboTeWU1lE8uQFuDQ9hMBNNRyt0Tvr1L/C1knGAHkTJznQEQGeg8CH0AHoEgaEn3AkmRQnqgpImWmqGGMgNAQnhlZW6YDRXKR0GmAnkGthiCjCEwyARLWQxkbGBOH0JcGzJhdxP0ClsCeoZ7g9whRbzqysk4Gs41Ap4DAkigqE8jzgl7jWSIY9QAoWw1sJlJaBQtA6ldRbBDWNmD0GEl5G+wVj5h7kLV6mTGAhrRDYhtACGhYAIr6DxoT9SlthgS49gS1K2TE12KOXGK5i8LK02EMgec7kSznRlYFLTYBZ6LctRfUxpormfQCml3BYzkWskKUWtgKbiJ64JjB66GRRSYE4wCG5DiA4+onqx5yLJUD0EHUGsEVXMkhJp4JayhLKAyZzLAmyXJJbmOVWMd029wL5m3o9CnJGtOtKS8i5UY5OUoat5A251IRXmkjDK4S+WGfc1+gN4QFutOWdf0JSbIW2TJCLazhgDBRbMqglHL3DOFgKjlwOC1DlwPPKBbwkY239AlLGxCU5PRBD5lkencao5eZP8AQtwitkBibb2WSYU23l6GcWCBciWxSWNHh5DCFkuxrXXDLO6T8SlGMn+KKwef4lwWpapzpfeUl+qPU5JbysYTXqNmng2gWU9Dr8d4crep49Ffdzeq/Kzj5NSs6bFGpUqSVOEXOT2SRnq2tSi141KVJv8AMjr/AAz4KtKk4xXjqWrxqkdOty1IvxYxlH+Yo8fKLW6Jwjeu/s8Kj+z5z1XQ1HKMnl+VgQVSnUo1FVpSxOOzBxa9UToB3bHjsa9WNG4goSlopLbJ2YS5WeEnjOU9T0/CbqVexhKT1i+XJmxqO7Tmmi1k17eaemmTYzky0FuDedB6MSWNQhJg5ebHUMYfuNRW4U1qUIaQDj7iljG4NCaQQlqCWoPKi8bipRcY4y5NgWJ6Mpk65yAdBYY3v6D02KMclsYrm2jdUOSWkk8xfZmfGpMsroRU26qQowVXDklh4Mq1MMlPnT/D1G6nLLlk8AZAeooSUlnJYCxoRszI/QlhEp66jDQHgAKTIxlDRRaYpPKBbCS7gGMolaS0Gsp+gPQBvLKSwhLLQ+gUCb1DdgwGh4FH1G3roBIPOVgfuPHYIpLIilohANLO41uLJSw+oDSLIzjYOYDILBKkXnQA6AnqCGENvUQnoGSisgIALTBMljyBT2IaHnuJ6gKD1wZOpjjiMl6mTPYBRTW5aZOQApA0Q5arl1KjnOrArUkpkt6gPAY0EmNPACZG7HLV6CYCx6D6CYPQBMaFgTAoljXuS2QLOoMTWuQcgoE5YIc87BjIBjKwCjjYoTAE8FZyiBqQFLUWMBnQWQpgwQ0kEJIMPcNgyAJAGR7gQ0gH1JnU5fw59gGtxtpbmNVMvTMfcpoKab6DBbAEKTJ51pqip0+aKeduhDgnHAVkXoGRUeaFPEnkppZAQLOo8Ak0ECZWRYSDAFKWDHOvrgqTxHPU12nKWgVlhLL12MzMCWEZovQIHoTl9zJo0ThAJSYZY8IAikxvUSwHMBcGnFpoGsGPxMPRD8VY1TA57WBLUJSI5gLegm8EOokgUuZAZVgGkSs40Q4U3ztyk2n0AyQSQ3LXRD0WggE8oxtrOjKk02/QjGAKykgyQ8vYakBcX3HLRaGJ1ExTqSUXgDNFJasmc49zUc6kvx4HzaeXVgZnX6QTa9TG5zz5n06BHLWoNLOvUDGsqWXllrmevQElpo8FNJLQCflIk3KTeyKw2wcXq5LC6AY2kuoKPMOb10X1LhJRg9Ou4UKmk9TImQuaSeEUoNbhDfuQ1nbUrk5tH+pmjFRWIoDClJrZlKg95Sa9EZdUJtvqBjcYx+VCxgtrAgEluJD6akkUMFruJZW7HjLAT1EynjJOHjUBADxoAGG5oRubepRkvmieJqwdOo4NaxeD3ezyeU4/b+Dfykl5Z+ZGozT4BdK3veSpNRp1VhtvZmfinFo1ZuhbSfhx0cvzHCMkeVLTc0yyykCzJ4RMFzPXYyupCKxFAKScOpj59+/Ycbjkqxm4qeHnD2MdWrOtVlUqPMpAD9Tt8GnixSW/MzhM7XC04WsV1bbJWo9DYYqT80U2kdHToc2wype6N9GWlJDeiEmNsgTWg1qhbajWiwFPJfQxpa7GTGfoEDIenQpsS1AlZxqNMAAHkYCbYUPUOgN6C6BAD1HnCJAfoYpUYyrQnNaxMuewtXuA2kyksLJG2paeUgpNkpalAwElkMAC0CHhYFs8D5gABZ7hlhjIDwJotIckVSysabixoS4vOVuUs4CKjHRk6FKW+SSKaQYBDjq8FQYDGCmsBgAXYFHzZzp2GkMBNIFFFYQ8aALoGBpaDAWMIaegCwBeQTyycAEUIBrBQ3sLICQFPUWcADWQHF5KzoY1poWBM9i09CZ6x9xUd1FvUgyIpYwAFC5eqHnA8iYCz6gwwDAE8D6Ec2g0wGSUhdSCc4DcGxJlBsyXncroD2AjIuYbRLIBy0wkTrjUoTegVDS6FJkseyAYs+oNk5AbGkJsa3IHjA2tQBFAAadxNsB5BYyY9c6l9MgOT7Cy2GQ3AGsoxyymZdxBWGWumHkunJuLUt0WTjDAeQyNLKB6AOL7g4oEJvAB6DS7hjOqFqgKaDOB/MkIITeQTBggG9QjhbIMAANINnuGASApZDAPPQXUIoTAYAHUENNdSiWsDSy8FbidNSxq0kwOU3kEuxWF0G3hEE+Giox1BNlJN9ALSSQCbUPnkkS7qknpmXsBTyDliJglcym3yRx7mN1ZPWUugGepUhDWUjE7mL2W3cxJ51ayEknh4Aqdacl5dPYxynLGpWEtcFeE3qgFHV7bbsqW2mXgajyrGR5AiXyruJLGpkUU9W9BtLXG4CWiHFJvMv0J5cLf3BLmeI6sC3LPoJ7FRi18yK5E9wMalGL7sbUp/haM0acYrKSyKSzJPmfl6Aa8qC/Ey4wi18uxckn1Jb5QG2kiUtNRYb1f6FfUB6MacnohJ50T2HlN4j9QG8paBokkgeMCCh67kbFywJ6gRqx40G0JgJrINYWg0LlIFgnly8syY1DHqBjawCiZVFMloCGjkfEFq6tmqsVmVN/sdrlIq0ozpypy+WSwWFfPsajjubl9Y1bGrKNSD5c+WXRmlqzbC+fGyDk5qTm6kU1+HOpOBqKCElgeClBv0Lo0ZVZqMdu4DtqDrVEunU9Da0NljRGOwsOWC0+p2KNvypLBmtRltKfLHLNjroKMeVIrGNTLR4YYKSwtxPOmApD+o8CAa13K2We5EX0LaAGs+4tUmGWG+4Qh4G2IoFoDeBLqG71AQN9g2ABYyUo9x4SQgFsCTHgeMEEYlzenYFNKWJaGVY6ESjq+oALUKbeMS3XUpsKlDxkA2CFy50BR9SsDwgqcfqDi09dzJjEk9iXjmbQRKe5UHlaiepMVjRLYovAZwS8vZ4HsAARmbzmOnQfNggpFx0ZjUkzJBootJgkPOVoG4AGAXqAAhggW4DABAMSGAAMSKTQCATYZwAxrQlSTTyUnHuEJj1Fldx5QDQNk82B5AciJPEtPoU3oS8/UoyRlnUpS11MNNy5U2tS8ZIMmV3ByRGMDSAaYZytSRlD0xghDbEBWcITba1AAJeOoPGgPUAHklvIMAATG9haYIE1oQxt4ITYU2Tkp6kYaktVjqAwbHyYe4NKKy2BOcjy8aGPxMvRYRXiY1xkC4ppYH1MTq8z3wVzrG4FFZITyMBy11QtUG3UM5AY0JbDAB7onmGmAAwzqJeoFJYCSefQSGBK3G9QxkM4Aa0QPCWok8oPQKcU29NO5csRZCeGZGsxTCMbaew+gktQYA2LXOuwxgGXkonGRoIrJOQaGkAR1DTIkICk8FYIWpepQ0PAsNMroBy8JdkY6lejDSU8v0NKU5Tfnk2LkWM5INl3ev3dP6tmOVa4m9ZcseyJhJLsZoxzq5AYadHVybbfq8lOEo9X7Iy5SW5OeZgTyZxujYjTjyaojCSWBrIQ5YjjH1Mck3r0KccvUTXqULl7GVPC17GJU+uWZIQlLREUN9yX6GbwV+Jv6FxjCOqj+oGJU58qxFtsyRtnvJ49jIpZehW72AxxpRi9m/cvCitl9BtJEc6csLIBoJrC0Q+o28gTnuKTQ3oYpJN6sBZ5s4ZOHuyuXCwtEGNMBSXuGMdx8umBpJkCbwl2K0S0JkuZYew4voUMH2HohgJpYFgO49gJwJopJ42DlfUglB9DJyg4gTgWC8eg8Ll03CMeEPlytCki0grGoJbtkuJlkicMDWr0YXFN06sFKD7nleJcHnZ3DVOMp0paxaW3ueycSZU1JYkiypp4OdGEdHCpn2LhQm0uWjL3aPZqxg/mSf0LVpTjtEu008pS4TWq4c9uyO1acKp0qeHHDOpCgoPYprLJtdMNKjGmsIzRQ+XJcUkhtU4KWoYXQcVjqQNLr1BjitNRNZYCzoCSB4WwReUFNrqhvUNhegQyWwbeMZwJ6AMG9AjjGoslAtx5FqCTYAxp5YYwCIG9RiyNJY0ATRQYyBQugppSi45aysZRWgmskGvb0506PJUm5tN4k92jKnzRTKawRzPDxugp5CO+oovmWRtBF4yEd0+ws4QsvIFznq8ElRSxn9yc6lU8AkHM8CWu5A2BK0GEDFjUYAGha6IhDzgozIT0FF5HkBPXqxrYEkNANe49GSMBYWc5Y8NsQ0+gUA0+4DTCBJ9wUUtR5FkAHjO4YMdLxMyc+r8q7IItxS2FhdhgALToUsCwGQp4B7hkAgyKTzH1EwQFR3aKWjMcfm9WXqUW2tBNiE8gMGJ6CzlADyNCDoBSlgNyBoBpAJsM6ADAA3ATJe5bZjZApMlj6hgKQm0gllLTcxuLby3gDJKSSyYZS5pJIyrAuVJ5SAx/iaa2EoNy0M+E9xJJARyRS2DkwXLVCywJWcmTJHUYFZBYb1F1HgBuWiWCdWMNWAZxoJblYSJzgCh50IyDk8YissCm8IaJSzuVHf0AG2JvOAegIKBiyLOoRaLi8wS7ERY84YDwJoMiz3AayC3AQDyNMnca0AroIENLUIADGAwALQvJKKTKHnAczYmLbYDzsY82fYbWFhGHLiZYybSXUgTpPSWWZU8R+hSgu4Knh9WUEU5alYSehlp05zW2Eu5k8Dlfma+hBhQ+V40Rn5MPRA2+uwGKNGbzzNIfhqL11La7ZElu92ULC0wsYGtGVy7PH7g0+xAubDwClkFHXIJZykBedVkrmSW+THGkop5eX6laLYBtJ+gl0UdUXo0kEsKK0wmAmsGOTw8IpMTSa1ASxLUiSRkeEsYMcs9CBKWXtoP6kvKKWMAElpoJJmRCAlLIY1yio46DegVM5QhFSnLlyKMo1IKUZZi9mjHUtvFm5Oo0msYwZIQhTiqdKOIxWEgKwPAJY3H2AMNLC1HjvoPGgpLT1AFqJIEmWtEUTjAbDYNEE9RibBPTRalDDAJSy8tYGl31IJwVFaBgaQCxhlRhnUBpvDRQpR1yJRXYoMkClFLZElslLIBgEhsEA2tCW8F4MeNfQBPLGgejwC3Cqb0QpPXIbjQRL1QlqU0JIA5X0BLQa0HsBGe41oGH2D3AOmg8CSwPUoEuhWyBFLGAE9kIJNti2AbQJZEsjICRilB82Y7v9zIyQrUoXEPtU6MZJtbrsbbNO8slWnGtS8lWPbr7mejUVTMc5cNGwModNQQ2ghNvCS2BYyMWAKQsgvcABgJLUeNQDXoGCsYROQp7CHuGwRkilgrBCepRQ2HQNWCeAHomJsBaAPIsj3QmgKTyGNBZwNaoBpiYMYBkExA9Qh5yGcCAKbYshgMYCKTHkhMpeoA9RDWAWgCW5XQhFZAYZFkAB7ggeAKGDEIChkjABdQ0DJAMSkJsQDU1JuOHp1Exf1E3oAMTYPUQASxhuFLA0NiAF6gsASmBTEDegANLQnOg2JaAOOpTYhrVAPGd2G3UkIyTWcYAprsSGc5Df3AT3K0DDYsANblJiwUt9QFjI8YKbWFgS13AhoTiW9NhAJL1K36iSABrXqJAMAG0GjDYCU9dSgaTDAQ8DQgAYAhc2OhQyokjAoPoLmx7FZ7AeeVGU3mMW0ZI2k8551E3dlhbBhEGGnbxgstuT9TYjGKWiRG5a29QKWELR9NUCeXjH1HoBPMsbYJ3Wo2k3oxPR4QDzhbEYeGzKtY4SI5Zd9ABaIlyedi1r7kqUU+V7gCTccjinEOmFoNLbXXsiBtZFoim8LUWMr0AE87MblpsTGLW2i9hyAjmfMtNOpTaRLXYpLK1KIeHsTjJkccC5fUDGy0tBNZHqQGUhN5QvceuwCjlP3KxrgOXb0KjuFCiPYoGghYGGgwElgGtRvbQCqcUg3QAiCWLBb30FjUCGsoI6D9hxjlgNDwGcCz2AbSQm9R4EAIeSc64GkAxbgJsob2Gid0HQgaeRiBZAoTQFN5QVjYtxvcQDxgEGdhsqJiupTCKSY01kCegRFLWWg0tMEU3nowEgeiKg0GiUVsiAyGX0DORRbxqUVkTYZwzHzZzkC21gEzG+jKc0pKPVkFZyLGQQ0A0jSuGrSqpxXlm3k3Mk1acasHGaz2AdOcZwUovKYzWtYuk5U85x0NgKeBoQJa6hDwLGo9hoCdhjwgxqAPUnGBvQGFNACDAQGaOxiW5aKqsiewD7BE5DGCsCeXuwDOgInOoyAHsIa1KGtQwL2H0AAAWcBDYJghgGQ3EGQoDIxAGR50JW4wgGHQnqBWQEGSim1gSE9QIGAhgAZEmDAYmAsgPBLTK5gymBOGSWRqAN4EMS3ATFnUbTFjUKBhgAELHUNgTYD6CDAwDJOdXoN6iyA8lZ0JHnDQDZPXA93qNgNQW4sYfoGcAm0wHlvoPViTHF4AFuMlvD0GAykTgFuBTWpDeuC8CwEIaAHoFPQTDcMZIEgY9iW+xUVkpNGJZ6lJ40Cr5ugsa7gtR4CD2GvUAAGwAFoBWc6bC2BAUaKWVoUkAEQ0sZAACnnoC2AABdhYWXjfuwAAUntjYOXPUAAmSWGuhjS3k3oAAZIpJZyXBJLQAICekc7gvUAAefoJJPdgBQuUNQAgJaGNy1xgAKDPoNoAIFjUrH6gADFJqKywACo5aWSgAKWNR7AACwNZAChp5AAAH6ETmoyS6sAIHgafKwABvH0FGSksrYAAbQsaAAAkMAKFklsAAMjWqAAHsJ5AADOBpgBBOU9MoW4AAx5AAFnqHqAFDz2BegAAdxMAAEUgAgOoYAChYwmQ0gACU++nYtYaz1QAQNIecAACLAAInFJuaj5sEUKnjQbxytPDTAArKC3AAgf6hkAAY0gABMnqAANMYAUC3KQABaEAAPImAAStygAAwCYAA8ajewAANk7sAAaGABAtwe6AAoDAAAkGAAIEwbAADIZAAGAAAdBgAC6jAAExYAAFsGwAA9hNaAAECAAp9BZ1AAgyG4AQS8j6ABVLI1qgABJi6gAFJJilpIAAYPRgAAmJ6gABHKY3kAACugABS2BaMAArOuQ5gAIWQ0AAAFoAAKT0eEStQAKtJdR6IACGtSsaAACG1lAACXbAe4AUPp7B1AAP/Z;" parent="1" vertex="1">
          <mxGeometry x="1190" y="230" width="1344" height="1080" as="geometry" />
        </mxCell>
        <mxCell id="ZFCfkoxtxYTRv5SqpdLA-8" value="" style="endArrow=classic;html=1;rounded=0;strokeColor=#00ffff;strokeWidth=16;entryX=1;entryY=0.383;entryDx=0;entryDy=0;entryPerimeter=0;exitX=0.573;exitY=0.259;exitDx=0;exitDy=0;exitPerimeter=0;" parent="1" source="ZFCfkoxtxYTRv5SqpdLA-7" edge="1">
          <mxGeometry width="50" height="50" relative="1" as="geometry">
            <mxPoint x="2039.996" y="505.88" as="sourcePoint" />
            <mxPoint x="2348.38" y="440.00000000000034" as="targetPoint" />
          </mxGeometry>
        </mxCell>
        <mxCell id="EoRffU3IumJQ-eT22blE-1" value="" style="endArrow=none;html=1;rounded=0;strokeWidth=20;strokeColor=#00ff00;entryX=0.484;entryY=0.315;entryDx=0;entryDy=0;entryPerimeter=0;" edge="1" parent="1" target="ZFCfkoxtxYTRv5SqpdLA-7">
          <mxGeometry width="50" height="50" relative="1" as="geometry">
            <mxPoint x="1866.32" y="651" as="sourcePoint" />
            <mxPoint x="1852.4959999999999" y="592.9200000000001" as="targetPoint" />
          </mxGeometry>
        </mxCell>
        <mxCell id="EoRffU3IumJQ-eT22blE-2" value="" style="endArrow=none;html=1;rounded=0;strokeWidth=20;strokeColor=#ff0000;" edge="1" parent="1">
          <mxGeometry width="50" height="50" relative="1" as="geometry">
            <mxPoint x="1858.8899999999999" y="648" as="sourcePoint" />
            <mxPoint x="1950" y="658" as="targetPoint" />
          </mxGeometry>
        </mxCell>
        <mxCell id="EoRffU3IumJQ-eT22blE-3" value="" style="endArrow=none;html=1;rounded=0;strokeWidth=20;strokeColor=#0000ff;entryX=0.554;entryY=0.472;entryDx=0;entryDy=0;entryPerimeter=0;" edge="1" parent="1">
          <mxGeometry width="50" height="50" relative="1" as="geometry">
            <mxPoint x="1866.8899999999999" y="660.24" as="sourcePoint" />
            <mxPoint x="1868.32" y="570" as="targetPoint" />
          </mxGeometry>
        </mxCell>
        <mxCell id="EoRffU3IumJQ-eT22blE-4" value="&lt;font color=&quot;#9933ff&quot;&gt;&lt;b&gt;&lt;i style=&quot;&quot;&gt;&lt;font style=&quot;font-size: 50px;&quot;&gt;{s}&lt;/font&gt;&lt;/i&gt;&lt;/b&gt;&lt;/font&gt;" style="text;html=1;strokeColor=none;fillColor=none;align=center;verticalAlign=middle;whiteSpace=wrap;rounded=0;" vertex="1" parent="1">
          <mxGeometry x="1850" y="680" width="60" height="30" as="geometry" />
        </mxCell>
        <mxCell id="EoRffU3IumJQ-eT22blE-5" value="&lt;b&gt;&lt;i style=&quot;&quot;&gt;&lt;font color=&quot;#00ffff&quot; style=&quot;font-size: 40px;&quot;&gt;Sa&lt;/font&gt;&lt;/i&gt;&lt;/b&gt;" style="text;html=1;strokeColor=none;fillColor=none;align=center;verticalAlign=middle;whiteSpace=wrap;rounded=0;strokeWidth=5;" vertex="1" parent="1">
          <mxGeometry x="2130" y="500" width="60" height="30" as="geometry" />
        </mxCell>
      </root>
    </mxGraphModel>
  </diagram>
</mxfile>
